<svg xmlns="http://www.w3.org/2000/svg" width="326.591" height="326.592" viewBox="0 0 326.591 326.592"><path d="M148.732 256.894c-4.06 6.86-7.056 12.933-9.826 18.576-8.802 17.938-15.755 32.106-47.813 48.974-9.012 4.74-14.784.453-16.848-1.61-3.86-3.86-5.455-9.918-7.143-16.33-1.606-6.102-3.428-13.02-6.924-16.516-4.183-4.182-7.264-4.685-11.93-5.443-5.58-.908-12.523-2.04-20.126-9.642-3.02-3.02-5.97-5.077-8.57-6.89-2.142-1.494-4.165-2.903-5.868-4.607-7.35-7.35-4.35-15.788-.916-22.318 20.6-39.16 27.15-45.464 48.857-66.352 2.802-2.697 5.812-5.595 9.116-8.815 3.457 3.735 7.308 7.085 11.664 9.577-3.807 3.723-7.224 7.013-10.378 10.047-20.896 20.108-26.512 25.513-45.982 62.526-1.443 2.742-1.78 4.104-1.856 4.624.03.03.063.066.103.105.766.764 2.19 1.757 3.84 2.907 2.958 2.062 6.64 4.628 10.6 8.588 4.18 4.183 7.263 4.685 11.93 5.443 5.58.908 12.523 2.04 20.126 9.644 6.363 6.362 8.835 15.755 10.823 23.303.703 2.673 1.694 6.44 2.598 8.433 27.646-14.563 32.762-24.99 41.234-42.255 3.375-6.878 7.304-14.865 13.248-24.295 3.915 3.583 6.91 8.013 10.042 12.326zm-33.786-31.957c-4.235 6.973-7.805 14.993-11.292 22.86-4.804 10.832-9.77 22.034-15.087 26.347-3.217 2.61-3.708 7.334-1.1 10.55.168.206.343.4.527.585 2.683 2.68 7.013 2.955 10.023.514 8.116-6.586 13.572-18.89 19.348-31.918 2.503-5.645 5.055-11.367 7.776-16.5-3.117-4.36-6.88-8.223-10.194-12.44zm-21.642-24.44c-1.86-2.374-4.298-5.233-5.537-8.31-6.067 8.082-10.71 18.55-15.227 28.738-4.803 10.833-9.77 22.035-15.086 26.348-3.216 2.61-3.708 7.334-1.1 10.55.168.207.344.4.528.585 2.683 2.682 7.012 2.956 10.023.515 8.116-6.586 13.572-18.89 19.348-31.917 3.416-7.704 6.912-15.583 10.824-21.864-1.27-1.512-2.527-3.052-3.773-4.644zM215.76 95.406c8.562-11.04 16.452-23.433 24.187-38.238 1.918-3.67.495-8.2-3.175-10.12-3.672-1.918-8.202-.497-10.12 3.175-6.64 12.71-13.318 23.476-20.484 33.1 3.167 4.032 6.387 8.048 9.593 12.083zm97.148-32.22c-1.704-1.702-3.726-3.112-5.868-4.605-2.6-1.813-5.55-3.87-8.57-6.89-7.603-7.603-14.546-8.733-20.125-9.642-4.666-.76-7.748-1.262-11.93-5.444-3.497-3.495-5.318-10.413-6.925-16.516-1.688-6.412-3.282-12.47-7.144-16.33-2.063-2.062-7.835-6.35-16.848-1.61-29.342 15.44-36.49 30.848-44.058 47.16-3.16 6.813-6.405 13.766-11.455 21.332 1.276 5.05 4.23 10.697 8.14 12.335.41.172.777.384 1.107.62 7.634-10.364 11.907-19.55 15.815-27.974 7.295-15.725 12.566-27.09 37.338-40.145.902 1.994 1.894 5.76 2.598 8.432 1.987 7.548 4.46 16.94 10.822 23.304 7.604 7.605 14.548 8.735 20.127 9.644 4.666.76 7.748 1.262 11.93 5.443 3.96 3.96 7.64 6.525 10.6 8.588 1.65 1.15 3.074 2.144 3.84 2.908l.102.106c-.078.52-.414 1.88-1.856 4.623-19.47 37.014-25.087 42.418-45.982 62.526-3.33 3.202-6.936 6.672-10.996 10.648 4.897 1.8 9.44 4.457 13.683 7.61 2.757-2.68 5.313-5.14 7.714-7.452 21.707-20.888 28.26-27.192 48.856-66.352 3.434-6.53 6.435-14.968-.915-22.318zm-45.024 10.73c-3.67-1.916-8.202-.495-10.12 3.177-8.234 15.762-16.53 28.532-25.74 39.845.194.28.396.555.59.835 2.34 3.403 6.038 7.337 8.55 11.563 10.818-12.79 20.472-27.257 29.897-45.298 1.917-3.67.498-8.2-3.176-10.12zm.127 233.126c1.814-2.6 3.87-5.55 6.89-8.57 7.605-7.603 8.735-14.547 9.644-20.126.76-4.667 1.262-7.748 5.443-11.93 3.496-3.497 10.414-5.318 16.516-6.925 6.412-1.69 12.47-3.283 16.33-7.145 2.063-2.063 6.35-7.835 1.61-16.848-16.867-32.06-31.035-39.01-48.974-47.813-10.43-5.117-22.247-10.916-37.96-22.987-21.982-16.89-28.307-28.33-35.63-41.576-6.395-11.57-13.645-24.687-31.634-42.676-7.466-7.466-13.27-13.498-18.39-18.818-20.888-21.707-27.192-28.26-66.352-48.856-6.53-3.436-14.968-6.437-22.32.914-1.703 1.704-3.112 3.726-4.606 5.868-1.813 2.6-3.87 5.55-6.89 8.57-7.602 7.603-8.733 14.546-9.64 20.125-.76 4.666-1.263 7.748-5.445 11.93-3.495 3.497-10.413 5.318-16.516 6.925-6.412 1.688-12.47 3.282-16.33 7.144-2.063 2.063-6.35 7.835-1.61 16.848 15.438 29.342 30.847 36.49 47.16 44.058 11.93 5.534 24.268 11.257 39.625 26.614 18.39 18.388 25.33 29.326 32.676 40.906 7.46 11.758 15.176 23.916 34.735 43.477 7.467 7.465 13.27 13.495 18.39 18.817 20.89 21.707 27.192 28.26 66.353 48.858 6.53 3.434 14.968 6.434 22.318-.916 1.704-1.705 3.114-3.728 4.607-5.87zm-19.94-6.493c-37.015-19.47-42.42-25.087-62.527-45.982-5.167-5.37-11.024-11.456-18.592-19.024-18.387-18.388-25.327-29.325-32.675-40.905-7.46-11.758-15.176-23.916-34.736-43.475-17.24-17.238-31.414-23.813-43.92-29.615-15.724-7.295-27.09-12.566-40.145-37.338 1.994-.902 5.76-1.894 8.432-2.598 7.548-1.988 16.94-4.46 23.304-10.823 7.605-7.604 8.735-14.548 9.643-20.127.76-4.666 1.262-7.748 5.444-11.93 3.96-3.96 6.525-7.64 8.588-10.6 1.15-1.65 2.144-3.074 2.908-3.84l.106-.102c.52.078 1.88.414 4.623 1.856 37.014 19.47 42.418 25.086 62.526 45.982 5.166 5.37 11.023 11.457 18.59 19.024 16.492 16.492 22.91 28.1 29.114 39.325 7.795 14.103 15.157 27.423 39.62 46.217 16.896 12.982 29.978 19.4 40.488 24.56 17.264 8.47 27.69 13.587 42.255 41.232-1.993.903-5.76 1.896-8.433 2.6-7.548 1.986-16.94 4.46-23.303 10.822-7.603 7.603-8.734 14.547-9.643 20.126-.76 4.667-1.26 7.748-5.443 11.93-3.96 3.96-6.526 7.642-8.588 10.6-1.15 1.65-2.144 3.075-2.91 3.84l-.104.103c-.52-.08-1.88-.415-4.623-1.858zm10.338-30.838c-.184.184-.378.358-.585.526-3.217 2.608-7.94 2.117-10.55-1.1-4.312-5.316-15.515-10.282-26.35-15.086-12.56-5.57-25.552-11.33-33.966-19.718-16.517-15.952-31.935-33.307-45.83-51.583l-.084-.114C112.806 144 92.013 121.77 50.22 99.94c-3.67-1.918-5.092-6.448-3.174-10.12 1.92-3.67 6.45-5.093 10.12-3.175 44.144 23.06 66.955 47.423 95.945 87.083 13.435 17.665 28.343 34.44 44.31 49.857.033.03.063.062.095.093 6.44 6.44 18.157 11.635 29.49 16.66 13.026 5.775 25.33 11.23 31.917 19.348 2.442 3.01 2.167 7.34-.514 10.023zm26.87-31.113c-.184.184-.38.36-.585.527-3.216 2.608-7.94 2.117-10.55-1.1-4.312-5.316-15.515-10.283-26.348-15.087-12.562-5.57-25.55-11.328-33.967-19.715-16.517-15.954-31.937-33.308-45.83-51.585l-.086-.113c-28.236-38.637-49.03-60.866-90.82-82.697-3.672-1.918-5.094-6.45-3.176-10.12 1.92-3.674 6.45-5.093 10.12-3.176 44.145 23.062 66.956 47.424 95.945 87.084 13.436 17.665 28.343 34.44 44.312 49.858l.094.092c6.44 6.44 18.158 11.635 29.49 16.66 13.026 5.776 25.33 11.232 31.917 19.348 2.44 3.012 2.166 7.342-.515 10.025z"/></svg>