<svg xmlns="http://www.w3.org/2000/svg" width="579.789" height="644.211" viewBox="0 73.895 579.789 644.211"><path d="M515.368 170.526h-28.99v112.737H383.307V170.526H196.484v112.737H93.41V170.526H64.42c-35.43 0-64.42 28.99-64.42 64.42v418.738c0 35.432 28.99 64.42 64.42 64.42H515.37c35.432 0 64.42-28.988 64.42-64.42V234.947c0-38.652-28.988-64.42-64.42-64.42zm0 483.16H64.42V338.02H515.37v315.665zm-399.41-428.402v-122.4c0-16.105 12.884-28.99 28.99-28.99 16.104 0 28.99 12.884 28.99 28.99v122.4c0 16.105-12.885 28.99-28.99 28.99-16.106 0-28.99-12.884-28.99-28.99zm293.115 0v-122.4c0-16.105 12.885-28.99 28.99-28.99 16.104 0 28.99 12.884 28.99 28.99v122.4c0 16.105-12.886 28.99-28.99 28.99-16.105 0-28.99-12.884-28.99-28.99z"/></svg>