<svg xmlns="http://www.w3.org/2000/svg" width="714.9" height="573" viewBox="-51.499 37.499 714.9 573"><path d="M306.03 610.493c-.423 0-.848-.002-1.273-.007-.364.004-.727.005-1.092.005-34.188 0-66.248-13.23-90.272-37.25l-.113-.115L28.292 386.668C-10.295 348.03-31.544 296.69-31.544 242.09c0-54.645 21.285-106.025 59.935-144.675 38.635-38.634 90.01-59.91 144.66-59.91 49.3 0 95.933 17.314 132.952 49.062 37.02-31.748 83.653-49.063 132.95-49.063 54.65 0 106.026 21.277 144.66 59.91 79.783 79.784 79.783 209.6 0 289.384l-.072.072-187.395 186.44c-24.01 23.96-56.028 37.183-90.114 37.183zm-1.213-80.013l1.214.013c12.747 0 24.696-4.92 33.646-13.852l187.43-186.472c48.527-48.597 48.507-127.613-.063-176.184-23.524-23.524-54.81-36.48-88.09-36.48-32.122 0-62.38 12.066-85.6 34.054-14.5 20.548-30.048 30.554-47.43 30.558h-.132c-17.38-.05-32.858-10.08-47.214-30.625-23.21-21.942-53.44-33.985-85.526-33.985-33.282 0-64.567 12.956-88.09 36.48-48.584 48.582-48.584 127.63 0 176.213l.11.112 184.944 186.41c8.91 8.88 20.858 13.77 33.654 13.77l1.15-.01z"/></svg>