<svg xmlns="http://www.w3.org/2000/svg" width="326.59" height="326.592" viewBox="0 0 326.59 326.592"><path d="M163.294 326.194c-38.757 0-70.968-12.065-93.15-34.893-22.093-22.73-33.77-55.707-33.77-95.36 0-40.864 12.187-88.888 31.808-125.332C92.558 25.332 126.336.398 163.294.398c36.96 0 70.738 24.934 95.113 70.21 19.62 36.444 31.81 84.468 31.81 125.33 0 39.655-11.678 72.63-33.77 95.363-22.183 22.83-54.395 34.894-93.153 34.894zm0-301.797c-62.827 0-102.92 101.6-102.92 171.542 0 67.525 37.513 106.254 102.92 106.254 65.408 0 102.922-38.73 102.922-106.255 0-69.944-40.093-171.543-102.922-171.543z"/></svg>