<svg xmlns="http://www.w3.org/2000/svg" width="768" height="768" viewBox="0 0 768 768"><path d="M555.84 571.755c-1.5.05-3 .082-4.504.082-3.546 0-7.082-.14-10.6-.408-3.454.26-6.922.407-10.402.407-9.748 0-19.417-1.04-28.854-3.032-9.565 24.322-22.845 45.368-39.577 62.643-38.302 39.542-93.78 59.592-164.894 59.592s-126.59-20.05-164.892-59.592c-18.717-19.323-33.13-43.354-42.835-71.426-10.033-29.016-15.12-62.537-15.12-99.634 0-82.018 24.23-179.245 63.236-253.74C162.757 158.213 217.215 76.96 297.01 76.96c44.935 0 81.824 25.772 110.018 56.935 23.144-23.12 53.886-37.435 86.28-40.484C438.3 22.843 370.353-15.2 297.01-15.2c-93.417 0-178.09 61.712-238.42 173.768C11.348 246.312-18 361.964-18 460.388c0 97.577 29.087 179.082 84.116 235.702 55.378 56.988 135.22 87.11 230.893 87.11 95.675 0 175.52-30.12 230.896-87.11 33.635-34.607 57.554-78.53 71.083-129.723-12.49 3.587-25.5 5.47-38.653 5.47-1.502 0-3-.033-4.498-.082z"/><path d="M706.763 164.803H494.458c-27.147 0-49.154 22.008-49.154 49.155 0 27.147 22.007 49.155 49.154 49.155h81.568l-187.8 187.802c-19.197 19.195-19.197 50.32 0 69.515 9.597 9.598 22.177 14.397 34.757 14.397s25.16-4.8 34.757-14.397l199.868-199.868v93.634c0 27.147 22.008 49.154 49.155 49.154s49.155-22.007 49.155-49.154V213.958c0-27.147-22.008-49.155-49.155-49.155z"/></svg>