<svg xmlns="http://www.w3.org/2000/svg" width="714.902" height="572.996" viewBox="-27 35.937 714.902 572.996"><path d="M610.29 608.933c-22.09 0-40-17.908-40-40V399.63c0-15.51 8.828-28.957 21.73-35.594L552.924 258.72l-149.466-64.527-149.482 64.528-39.098 105.316c12.903 6.637 21.73 20.084 21.73 35.593v169.303c0 22.092-17.91 40-40 40s-40-17.908-40-40V439.558c-12.188-.728-23.43-6.995-30.45-17.09-7.478-10.753-9.22-24.483-4.66-36.76l63.43-170.857c3.8-10.236 11.62-18.474 21.645-22.802L387.605 113.9c10.117-4.368 21.59-4.367 31.707 0l181.015 78.148c10.024 4.328 17.845 12.565 21.645 22.802l63.43 170.856c4.558 12.277 2.817 26.008-4.66 36.76-7.02 10.096-18.263 16.363-30.45 17.09v129.376c0 22.093-17.91 40-40 40z"/><path d="M78.282 608.933H13c-22.09 0-40-17.908-40-40V177.94c0-78.3 63.702-142 142-142.003 45.643 0 88.793 22.16 115.427 59.28 12.88 17.95 8.77 42.94-9.18 55.82-17.948 12.878-42.94 8.77-55.82-9.18-11.645-16.23-30.496-25.92-50.425-25.92C80.814 115.937 53 143.75 53 177.94v350.993h25.282c22.09 0 40 17.908 40 40s-17.908 40-40 40z"/></svg>