<svg xmlns="http://www.w3.org/2000/svg" width="612" height="611.963" viewBox="0 90.019 612 611.963"><title>Slice 1</title><path d="M306 90.02c168.74 0 306 137.258 306 305.98 0 168.723-137.26 305.98-306 305.98C137.27 701.98 0 564.724 0 396 0 227.278 137.27 90.02 306 90.02zm83.85 185.93L306 359.796l-83.847-83.857c-9.994-9.994-26.2-10.003-36.204 0-9.995 9.994-9.995 26.21 0 36.204L269.796 396l-83.857 83.85c-9.994 10.002-9.994 26.21 0 36.203 10.012 10.012 26.21 10.003 36.212.01L306 432.204l83.85 83.85c9.992 9.992 26.208 10.002 36.202.008 10.012-10.012 9.994-26.22 0-36.213l-83.848-83.848 83.848-83.85c9.994-9.984 10.012-26.2 0-36.203-9.993-10.004-26.21-9.995-36.202 0z"/></svg>