<svg xmlns="http://www.w3.org/2000/svg" width="714.9" height="573" viewBox="-51.451 37.499 714.9 573"><path d="M305.996 603.62h-.002c-11.61 0-22.648-5.046-30.246-13.825-27.32-31.574-79.72-94.77-123.704-163.275-44.717-69.648-66.454-122.553-66.454-161.738 0-121.532 98.874-220.406 220.406-220.406 121.536 0 220.413 98.874 220.413 220.406 0 39.187-21.738 92.092-66.453 161.74-44 68.528-96.397 131.712-123.716 163.275-7.596 8.78-18.635 13.824-30.244 13.824zm0-479.244c-77.42 0-140.406 62.986-140.406 140.406 0 8.155 3.878 40.8 53.773 118.515 28.405 44.24 60.764 86.373 86.636 118.117 25.87-31.736 58.226-73.862 86.638-118.115 49.894-77.713 53.77-110.362 53.77-118.518 0-77.42-62.988-140.406-140.412-140.406z"/></svg>