<svg xmlns="http://www.w3.org/2000/svg" width="758.107" height="256.899" viewBox="37.323 40.102 758.107 256.899"><path fill="#FFF" d="M337.296 181.17c-20.56 0-38.062-5.48-55.067-17.252-21.47-13.403-30.025-15.938-53.704-15.938-6.125 0-13.277.185-21.315.403-16.92.466-37.982 1.044-58.21 1.044-26.987 0-48.717-.987-68.384-3.108l-.122-.016c-11.872-1.61-20.463-3.31-26.264-5.195-2.957-.963-10.81-3.518-10.51-9.647.238-4.803 3.763-10.468 42.84-16.932 21.863-3.615 46.293-5.978 59.126-6.442 8.55-.492 18.96-.596 31.932-.596 2.77 0 5.598.004 8.47.01 2.96.004 5.966.008 9.005.008 34.326 0 72.006-.692 94.63-8.145-4.916-3.822-5.82-7.9-5.465-11.06.902-8.044 11.324-14.82 25.936-16.865 1.908-.302 4.234-.462 6.836-.462 13.682 0 33 4.33 42.772 7.27 30.414 6.74 60.564 9.88 94.873 9.878 21.488 0 42.448-1.157 64.64-2.384 23.768-1.312 48.344-2.67 75.294-2.67 3.314 0 6.675.02 10.06.062 6.725.17 13.608.172 20.896.174 18.76.008 38.154.016 55.723 2.883 16.548 2.342 22.386 4.23 24.887 8.076 1.94 2.984 1.09 5.977.47 8.157-.736 2.597-1.32 4.648 1.07 8.3 5.165 7.154 24.297 7.867 41.184 8.498 22.344.835 45.444 1.696 45.028 18.352-.34 13.63-22.68 13.684-31.24 13.684h-.103c-13.552 0-29.446-1.648-43.47-3.104-9.05-.938-16.865-1.75-21.935-1.876-.103-.003-.206-.01-.31-.02-1.624-.152-3.31-.317-5.044-.488-8.562-.842-18.264-1.794-26.896-1.794-5.52 0-10.075.4-13.596 1.195.31 2.83.56 7.836-4.23 10.323-.12.062-.245.122-.374.174-19.718 8.04-42.77 11.785-72.545 11.785-17.688 0-36.097-1.296-53.896-2.55-17.715-1.245-36.033-2.534-53.543-2.534-7.795 0-14.866.246-21.618.753-18.772 1.532-36.133 5.563-52.922 9.46-19.026 4.42-36.997 8.59-54.912 8.59z"/><path d="M337.296 182.67c-20.882 0-38.65-5.564-55.92-17.52-21.106-13.175-29.513-15.67-52.85-15.67-6.024 0-12.905.174-21.274.402-16.972.467-38.025 1.044-58.252 1.044-27.04 0-48.82-.99-68.544-3.117l-.18-.023c-11.946-1.62-20.624-3.338-26.51-5.253-3.255-1.06-11.9-3.872-11.542-11.146.278-5.635 3.91-11.69 44.092-18.34 21.933-3.627 46.442-5.995 59.316-6.46 8.574-.496 18.992-.598 31.986-.598 2.77 0 5.6.004 8.472.01 34.608.06 75.688.056 100.652-7.28-3.772-3.85-4.29-7.79-3.975-10.583.98-8.735 11.918-16.044 27.217-18.184 1.99-.314 4.368-.477 7.044-.477 13.797 0 33.34 4.37 43.15 7.318 30.287 6.707 60.316 9.83 94.495 9.83 21.47 0 42.398-1.156 64.557-2.38 26.728-1.478 54.496-3.002 85.46-2.61 6.764.17 13.617.172 20.874.174 18.82.008 38.277.016 55.964 2.9 17.268 2.443 23.085 4.404 25.903 8.74 2.314 3.558 1.316 7.065.655 9.386-.706 2.488-1.133 3.99.883 7.067 4.697 6.505 24.26 7.234 39.98 7.82 23.074.86 46.93 1.752 46.476 19.888-.377 15.146-23.888 15.146-32.738 15.146h-.104c-13.63 0-29.563-1.652-43.623-3.11-9.07-.94-16.825-1.746-21.818-1.87-.143-.004-.277-.012-.414-.025-1.625-.153-3.314-.318-5.05-.49-8.53-.84-18.19-1.787-26.747-1.787-4.74 0-8.764.3-11.98.896.17 2.828-.14 7.852-5.15 10.454-.17.087-.336.165-.505.233-19.9 8.113-43.132 11.895-73.107 11.895-17.736 0-36.167-1.297-53.988-2.552-17.717-1.246-36-2.532-53.45-2.532-7.76 0-14.794.245-21.506.75-18.656 1.52-35.96 5.537-52.694 9.422-19.112 4.44-37.163 8.63-55.254 8.63zm-108.77-36.19c24.06 0 32.72 2.567 54.498 16.166 16.803 11.628 34.03 17.024 54.272 17.024 17.748 0 35.635-4.152 54.573-8.55 16.838-3.91 34.25-7.952 53.137-9.493 6.797-.51 13.905-.758 21.74-.758 17.556 0 35.893 1.29 53.626 2.536 17.806 1.254 36.182 2.547 53.812 2.547 29.574 0 52.446-3.71 71.98-11.674.09-.038.174-.08.257-.12 3.66-1.9 3.784-5.53 3.422-8.826l-.146-1.332 1.307-.295c3.623-.817 8.31-1.232 13.926-1.232 8.702 0 18.44.957 27.034 1.8 1.74.17 3.424.336 5.047.49.072.007.145.01.213.012 5.104.127 12.915.937 21.958 1.875 14.076 1.46 29.93 3.104 43.402 3.104h.104c8.05 0 29.436 0 29.74-12.22.378-15.174-21.973-16.008-43.586-16.814-18.07-.675-36.75-1.37-42.343-9.118-2.806-4.28-2.073-6.857-1.298-9.586.603-2.12 1.285-4.52-.285-6.933-2.188-3.364-7.98-5.165-23.84-7.407-17.48-2.854-36.812-2.86-55.508-2.868-7.28-.002-14.153-.004-20.937-.173-3.363-.042-6.716-.063-10.025-.063-26.903 0-51.454 1.356-75.196 2.667-22.216 1.23-43.187 2.388-64.737 2.388-34.424 0-64.673-3.148-95.198-9.913l-.107-.027c-9.625-2.897-28.843-7.208-42.34-7.208-2.484 0-4.768.152-6.604.442-13.946 1.952-23.853 8.2-24.678 15.552-.405 3.602 1.243 6.867 4.896 9.708l2.223 1.73-2.674.88c-25.092 8.265-68.088 8.27-104.107 8.21-2.872-.004-5.698-.008-8.467-.008-12.942 0-23.31.1-31.846.593-12.812.463-37.16 2.818-58.968 6.427-41.155 6.808-41.446 12.695-41.585 15.524-.246 4.983 6.815 7.28 9.473 8.146 5.715 1.857 14.22 3.538 26.003 5.136 19.696 2.125 41.375 3.11 68.304 3.11 20.186 0 41.216-.578 58.114-1.043 8.452-.232 15.354-.407 21.416-.407z"/><path fill="#FFC60B" d="M342.46 112.31s19.913 51.506 10.41 140.95c-8.104 76.277 60.646 37.172 34.3 0-26.346-37.173-4.433-125.548 77.437-124.745L342.46 112.31zm208.074-28.702c-17.19-25.025-54.33-42.732-97.664-43.48-44.378-.77-82.876 16.465-100.376 41.858-6.27 9.095-9.845 19.235-10.03 29.97-.006.32 0 .635 0 .95 20.388 9.254 60.818 15.636 107.394 15.776 49.234.148 91.652-6.718 110.796-16.716-.576-10.068-4.142-19.655-10.12-28.358z"/><path fill="#FFF" d="M436.095 122.5s-1.463.15-4.02.295c-1.28.07-2.832.174-4.612.23-1.784.047-3.8.102-5.998.105-2.198.013-4.576-.02-7.092-.087-2.514-.09-5.17-.172-7.91-.36-2.733-.223-5.575-.353-8.44-.68-1.436-.154-2.886-.28-4.333-.46-1.45-.19-2.903-.376-4.357-.563-2.904-.407-5.805-.862-8.648-1.38-2.847-.5-5.627-1.108-8.313-1.72-2.694-.563-5.265-1.3-7.7-1.964-1.212-.358-2.39-.71-3.532-1.047-1.137-.35-2.22-.754-3.264-1.105-2.098-.68-3.97-1.48-5.632-2.144-1.66-.68-3.062-1.39-4.23-1.922-1.147-.58-2.022-1.094-2.63-1.416-.6-.336-.918-.517-.918-.517s1.424.396 3.858 1.128c1.23.32 2.726.71 4.44 1.154 1.728.392 3.653.884 5.784 1.322 2.117.478 4.437.895 6.867 1.397 1.216.25 2.483.442 3.767.677 1.286.22 2.593.488 3.935.694 1.338.223 2.697.446 4.075.676 1.383.195 2.778.408 4.186.64 2.818.413 5.68.854 8.55 1.233 2.87.407 5.74.785 8.572 1.145 2.833.36 5.62.716 8.317 1.06 5.41.647 10.462 1.248 14.792 1.766 2.166.23 4.152.485 5.918.715 1.77.194 3.312.4 4.582.562 2.535.34 3.985.564 3.985.564zM360.554 215.918s-9.68 63.5 1.914 74.354c7.102 6.65-1.914-74.354-1.914-74.354zM53.168 215.382l-10.608.356.87-19.59-6.107.27.09-8.226 20.034-.758.87 8.135-6.71.2 1.56 19.612zm7.332.134l-.847-26.608 10.675-1.338-.044 10.63c2.23-1.352 4.19-2.027 5.883-2.027.653 0 1.27.104 1.85.312 1.753.624 3.046 2.155 3.878 4.592.653 1.9.98 4.16.98 6.774v.67c-.044 2.585-.372 4.873-.98 6.862l-9.115-.09c.015-.414.14-1.395.38-2.94.28-1.77.46-3.103.534-4.012.06-.624.09-1.188.09-1.693 0-2.24-.543-3.363-1.628-3.363-.698 0-1.292.274-1.783.823-.49.55-.735 1.21-.735 1.982l.223 9.158-9.36.268zm32.938-6.998c.252.372.646.69 1.18.96.773.398 1.724.602 2.854.602.03 0 .052-.007.067-.02 1.158 0 2.8-.433 4.924-1.294l2.92 4.68c-2.69 1.473-5.47 2.207-8.336 2.207-.98 0-1.977-.09-2.986-.27-3.12-.533-5.557-1.9-7.31-4.1-1.442-1.783-2.162-3.788-2.162-6.018 0-.608.052-1.232.156-1.872.52-3.017 2.042-5.355 4.568-7.02 1.872-1.278 3.915-1.918 6.13-1.918.712 0 1.44.066 2.183.2 2.496.433 4.554 1.465 6.173 3.1 1.723 1.753 2.667 4.545 2.83 8.38l-13.192 2.383zm5.015-6.53c-.178-.683-.557-1.194-1.136-1.537-.372-.206-.795-.31-1.27-.31-.313 0-.647.043-1.004.133-.476.147-.91.465-1.304.947-.395.48-.614 1.044-.658 1.683l5.37-.914zm582.83-4.63l.914 29.93-11.396.456 1.25-30.12 9.233-.266zm4.664 29.903l-.625-22.546 10.24-.72v2.906c2.24-1.49 4.365-2.234 6.368-2.234.417 0 .825.032 1.228.098 2.18.354 3.958 1.554 5.336 3.604 1.362 2.18 2.105 4.84 2.234 7.98.017.32.023.642.023.96 0 3.623-.576 6.894-1.73 9.81l-9.83-.098c.017-.446.15-1.515.408-3.195.306-2.71.497-4.553.577-5.528.063-.656.098-1.26.098-1.804 0-2.42-.586-3.63-1.757-3.63-.753 0-1.394.298-1.923.89-.526.595-.793 1.307-.793 2.14l.24 11.082-10.093.286zm39.422-22.906c3.395 0 6.288 1.122 8.676 3.364l-6.61 5.77c-.704-.64-1.368-.962-1.994-.962-.528.02-1.01.146-1.442.386-.946.577-1.437 1.5-1.466 2.765.016.77.318 1.53.914 2.284.398.498.904.857 1.514 1.08.434.13.85.193 1.25.193 1.137 0 2.218-.593 3.245-1.778l5.938 5.312c-2.34 2.996-5.68 4.494-10.02 4.494-3.447 0-6.323-1.01-8.63-3.027-2.39-2.082-3.582-4.783-3.582-8.102 0-3.348 1.19-6.152 3.58-8.413 2.35-2.24 5.228-3.363 8.626-3.363zM131.142 257.175l47.507-1.292-1.294-21.646H153.35l-.28-6.296h18.664l-.394-15.518-18.384.45-.168-6.58 22.826-.448-.843-20.238-43.626 2.138v69.432h-.002zm101.232-49.7c-3.786-1.724-7.87-2.585-12.256-2.585-7.947 0-14.693 2.644-20.24 7.927-5.585 4.573-8.377 10.4-8.377 17.484 0 5.437 1.856 10.046 5.567 13.83 3.56 2.813 8.3 5.024 14.224 6.636-3.56 1.573-7.177 3.69-10.85 6.354l10.738 6.187c1.874-1.312 3.56-1.97 5.06-1.97.637 0 1.217.112 1.743.338 1.5.562 2.25 1.593 2.25 3.093 0 .148-.02.316-.056.506-.188 1.836-1.35 3.072-3.486 3.71-.825.264-1.725.396-2.7.396-2.135 0-4.647-.582-7.533-1.743l-12.03 8.716c11.056 4.085 20.67 6.128 28.84 6.128 1.424 0 2.792-.056 4.104-.168 7.645-.75 13.042-3.374 16.19-7.87 1.724-2.44 2.586-5.042 2.586-7.814 0-1.875-.413-3.843-1.237-5.902-2.025-5.098-5.942-8.9-11.75-11.413 4.76-1.312 8.507-3.6 11.243-6.857 2.924-3.448 4.385-7.496 4.385-12.145 0-7.384-2.96-13.36-8.883-17.936l5.172-7.478-11.244-4.667-1.46 7.246zm-17.428 14.73c1.423-1.61 3.148-2.418 5.172-2.418 2.024 0 3.767.808 5.23 2.418 1.422 1.61 2.135 3.562 2.135 5.848 0 2.25-.713 4.18-2.136 5.79-1.462 1.612-3.205 2.418-5.23 2.418-2.023 0-3.748-.805-5.17-2.416-1.463-1.61-2.194-3.542-2.194-5.79 0-2.286.73-4.237 2.193-5.85zm89.403-14.73c-3.787-1.724-7.872-2.585-12.257-2.585-7.947 0-14.693 2.644-20.24 7.927-5.585 4.573-8.377 10.4-8.377 17.484 0 5.437 1.855 10.046 5.566 13.83 3.56 2.813 8.3 5.024 14.224 6.636-3.562 1.573-7.178 3.69-10.85 6.354l10.737 6.187c1.874-1.312 3.56-1.97 5.06-1.97.637 0 1.218.112 1.743.338 1.5.562 2.25 1.593 2.25 3.093 0 .148-.02.316-.057.506-.19 1.836-1.35 3.072-3.487 3.71-.825.264-1.725.396-2.7.396-2.135 0-4.647-.582-7.533-1.743l-12.03 8.716c11.056 4.085 20.67 6.128 28.84 6.128 1.424 0 2.792-.056 4.104-.168 7.646-.75 13.043-3.374 16.19-7.87 1.725-2.44 2.587-5.042 2.587-7.814 0-1.875-.412-3.843-1.236-5.902-2.022-5.098-5.94-8.9-11.75-11.413 4.76-1.312 8.508-3.6 11.244-6.857 2.924-3.448 4.385-7.496 4.385-12.145 0-7.384-2.96-13.36-8.883-17.936l5.172-7.478-11.244-4.667-1.46 7.246zm-17.43 14.73c1.425-1.61 3.15-2.418 5.173-2.418 2.024 0 3.767.808 5.23 2.418 1.423 1.61 2.135 3.562 2.135 5.848 0 2.25-.712 4.18-2.136 5.79-1.462 1.612-3.205 2.418-5.23 2.418-2.023 0-3.748-.805-5.17-2.416-1.463-1.61-2.194-3.542-2.194-5.79 0-2.286.73-4.237 2.193-5.85zm149.132-35.32L411.25 263.17l21.83 6.245 7.58-29.65 14.735 23.77 13.768-23.77 10.43 27.408 21.71-2.548-27.713-77.74-18.617 31.896-18.92-31.895zM546.89 211.99c-2.95-.93-6.022-1.397-9.217-1.397-7.883 0-14.554 2.588-20.012 7.764-5.538 4.853-8.31 11.765-8.31 20.738 0 9.258 2.772 16.11 8.31 20.56 5.338 4.687 12.008 7.033 20.013 7.033 4.446-.082 7.862-1.232 10.25-3.457l.484 3.76 25.41-1.395-6.978-57.67-19.77 1.397-.183 2.365.003.302zm-6.852 16.858c2.223 0 4.124.89 5.7 2.668 1.577 1.738 2.366 4.268 2.366 7.58 0 3.273-.79 5.802-2.366 7.58-1.576 1.737-3.48 2.606-5.7 2.606-2.224 0-4.124-.87-5.7-2.607-1.577-1.777-2.365-4.306-2.365-7.58 0-3.31.788-5.84 2.365-7.58 1.576-1.778 3.474-2.667 5.7-2.667zm76.906 36.808l-.606-27.957c0-2.102.667-3.9 2-5.397 1.335-1.493 2.952-2.24 4.852-2.24 2.95 0 4.43 3.053 4.43 9.153 0 1.375-.083 2.893-.244 4.55-.203 2.467-.688 7.114-1.456 13.947-.646 4.244-.99 6.935-1.03 8.063l24.803.242c2.91-7.356 4.365-15.604 4.365-24.74 0-.81-.02-1.616-.06-2.426-.324-7.925-2.204-14.637-5.642-20.136-3.477-5.173-7.964-8.206-13.462-9.095-1.01-.16-2.042-.24-3.092-.24-5.054 0-10.41 1.878-16.068 5.64v-7.338L589.9 209.5l1.576 56.88 25.468-.724z"/></svg>