<svg width="185" height="30" viewBox="0 0 185 30" xmlns="http://www.w3.org/2000/svg"><title>Logo</title><g fill="#FFF" fill-rule="evenodd"><path d="M4.955 9.3l-3.25.11.265-5.997-1.87.082L.125.977l6.14-.232.267 2.49-2.056.062.478 6.004zM7.202 9.342l-.26-8.146 3.272-.41-.014 3.255c.684-.413 1.284-.62 1.803-.62.2 0 .39.032.567.096.538.19.934.66 1.19 1.405.2.583.3 1.275.3 2.075V7.2c-.014.79-.115 1.492-.3 2.1l-2.795-.026c.005-.127.044-.428.117-.9.086-.542.14-.95.164-1.23.018-.19.027-.362.027-.517 0-.687-.166-1.03-.5-1.03-.213 0-.395.084-.545.252-.15.167-.226.37-.226.606l.07 2.804-2.87.082zM17.296 7.2c.078.113.198.21.362.293.237.122.528.184.875.184.01 0 .016-.002.02-.006.355 0 .858-.13 1.51-.395l.894 1.433c-.824.45-1.676.675-2.554.675-.3 0-.606-.027-.915-.082-.957-.163-1.703-.58-2.24-1.254-.443-.546-.663-1.16-.663-1.842 0-.187.016-.378.048-.573.16-.923.625-1.64 1.4-2.15.573-.39 1.2-.586 1.878-.586.22 0 .443.02.67.062.765.132 1.396.448 1.892.948.528.537.817 1.392.868 2.566l-4.044.73zm1.537-2c-.054-.21-.17-.365-.348-.47-.114-.064-.243-.096-.39-.096-.095 0-.197.014-.307.04-.146.046-.28.143-.4.29-.12.15-.187.32-.2.516l1.645-.28zM168.337 3.783l.28 9.162-3.492.14.383-9.22 2.83-.082zM169.767 12.937l-.192-6.902 3.138-.22v.89c.688-.456 1.34-.684 1.953-.684.127 0 .252.01.375.03.67.108 1.214.476 1.637 1.104.417.667.645 1.48.685 2.442.005.1.007.197.007.295 0 1.11-.178 2.11-.53 3.003l-3.014-.03c.005-.136.046-.463.125-.978.094-.83.153-1.393.178-1.692.02-.2.03-.385.03-.552 0-.74-.18-1.11-.54-1.11-.23 0-.426.09-.588.272-.162.182-.243.4-.243.655l.074 3.392-3.093.087zM181.848 5.925c1.04 0 1.928.343 2.66 1.03L182.48 8.72c-.215-.195-.418-.293-.61-.293-.162.005-.31.044-.442.117-.29.177-.44.46-.45.847.006.237.1.47.28.7.124.152.28.262.465.33.133.04.26.06.383.06.35 0 .68-.182.995-.545l1.82 1.627c-.716.917-1.74 1.375-3.07 1.375-1.057 0-1.94-.31-2.646-.927-.732-.637-1.098-1.464-1.098-2.48 0-1.025.366-1.883 1.098-2.575.72-.687 1.603-1.03 2.644-1.03zM77.95 6.88c-1.16-.527-2.412-.79-3.756-.79-2.436 0-4.503.808-6.203 2.425-1.71 1.4-2.567 3.184-2.567 5.353 0 1.664.57 3.075 1.706 4.234 1.09.86 2.543 1.537 4.358 2.03-1.09.482-2.2 1.13-3.325 1.945l3.29 1.894c.575-.4 1.092-.602 1.552-.602.195 0 .373.034.534.104.458.172.688.487.688.946 0 .046-.006.097-.017.155-.057.562-.413.94-1.068 1.136-.252.08-.528.12-.827.12-.654 0-1.424-.178-2.31-.534l-3.686 2.668c3.388 1.25 6.334 1.876 8.838 1.876.437 0 .856-.017 1.258-.052 2.343-.23 3.997-1.033 4.962-2.41.528-.745.792-1.542.792-2.39 0-.575-.126-1.178-.38-1.808-.62-1.56-1.82-2.725-3.6-3.494 1.46-.402 2.608-1.102 3.446-2.1.896-1.055 1.344-2.294 1.344-3.717 0-2.262-.907-4.092-2.722-5.492l1.585-2.29-3.446-1.427-.447 2.22zm-5.34 4.51c.435-.494.963-.74 1.584-.74.62 0 1.154.246 1.602.74.437.493.655 1.09.655 1.79 0 .688-.217 1.28-.654 1.772-.448.493-.982.74-1.602.74-.62 0-1.15-.247-1.585-.74-.45-.493-.673-1.084-.673-1.773 0-.7.224-1.297.672-1.79zM57.416 6.88c-1.16-.527-2.412-.79-3.756-.79-2.435 0-4.503.808-6.203 2.425-1.71 1.4-2.567 3.184-2.567 5.353 0 1.664.57 3.075 1.706 4.234 1.09.86 2.544 1.537 4.36 2.03-1.093.482-2.2 1.13-3.326 1.945l3.29 1.894c.575-.4 1.092-.602 1.55-.602.196 0 .375.034.535.104.46.172.69.487.69.946 0 .046-.006.097-.018.155-.057.562-.413.94-1.068 1.136-.254.08-.53.12-.828.12-.655 0-1.424-.178-2.31-.534l-3.686 2.668c3.39 1.25 6.335 1.876 8.84 1.876.435 0 .854-.017 1.257-.052 2.343-.23 3.997-1.033 4.962-2.41.528-.745.792-1.542.792-2.39 0-.575-.127-1.178-.38-1.808-.62-1.56-1.82-2.725-3.6-3.494 1.46-.402 2.607-1.102 3.446-2.1.896-1.055 1.344-2.294 1.344-3.717 0-2.262-.908-4.092-2.723-5.492l1.585-2.29-3.446-1.427-.448 2.22zm-5.34 4.51c.436-.494.964-.74 1.584-.74.62 0 1.155.246 1.603.74.436.493.654 1.09.654 1.79 0 .688-.218 1.28-.654 1.772-.448.493-.982.74-1.603.74-.62 0-1.15-.247-1.585-.74-.448-.493-.672-1.084-.672-1.773 0-.7.224-1.297.672-1.79zM95.634.577l-7.6 23.352 6.69 1.91 2.322-9.076 4.516 7.277 4.22-7.276 3.196 8.39 6.653-.78L107.14.578l-5.706 9.764L95.634.578zM128.683 8.262c-.905-.285-1.847-.427-2.825-.427-2.416 0-4.46.792-6.133 2.376-1.698 1.486-2.546 3.602-2.546 6.35 0 2.833.847 4.93 2.545 6.293 1.636 1.435 3.68 2.153 6.133 2.153 1.362-.025 2.41-.377 3.14-1.058l.15 1.15 7.787-.426-2.138-17.654-6.058.427-.057.724v.092zm-2.1 5.16c.68 0 1.264.273 1.747.818.483.532.725 1.306.725 2.32 0 1.002-.242 1.776-.725 2.32-.483.532-1.066.798-1.747.798-.682 0-1.264-.266-1.747-.798-.483-.544-.725-1.318-.725-2.32 0-1.014.243-1.788.726-2.32.483-.545 1.065-.817 1.747-.817zM149.54 24.69l-.187-8.558c0-.643.205-1.194.614-1.65.408-.46.904-.688 1.486-.688.905 0 1.357.935 1.357 2.803 0 .42-.025.885-.075 1.392-.062.754-.21 2.177-.446 4.27-.2 1.298-.304 2.122-.316 2.468l7.6.074c.892-2.252 1.34-4.777 1.34-7.574 0-.248-.008-.495-.02-.742-.1-2.426-.675-4.48-1.728-6.164-1.066-1.584-2.44-2.512-4.126-2.784-.31-.05-.626-.074-.948-.074-1.548 0-3.19.575-4.924 1.726V6.944l-7.917.557.484 17.413 7.805-.222zM27.32 22.094l14.558-.395-.396-6.627h-7.357l-.086-1.928h5.72l-.12-4.75-5.636.138-.05-2.014 6.994-.14L40.69.187 27.32.84v21.254z"/></g></svg>