<svg xmlns="http://www.w3.org/2000/svg" width="546.48" height="792" viewBox="28.8 0 546.48 792"><path d="M563.4 198c-3.96-11.88-7.92-23.76-11.88-31.68C496.08 43.56 389.16 0 298.08 0 179.28 0 44.64 79.2 28.8 245.52v55.44c7.92 79.2 71.28 162.36 118.8 241.56L302.04 792c31.68-55.44 63.36-110.88 95.04-162.36 7.92-15.84 19.8-31.68 27.72-47.52 3.96-7.92 15.84-19.8 19.8-27.72 51.48-91.08 130.68-182.16 130.68-273.24v-35.64c0-11.88-11.88-47.52-11.88-47.52zM302.04 368.28c-35.64 0-75.24-19.8-95.04-67.32-3.96-7.92-3.96-23.76-3.96-23.76v-23.76c0-63.36 51.48-91.08 99-91.08 55.44 0 99 43.56 99 102.96 3.96 55.44-43.56 102.96-99 102.96z"/></svg>