<svg xmlns="http://www.w3.org/2000/svg" width="110.724" height="110.14" viewBox="-1.863 0.344 110.724 110.14"><path d="M53.5 13.028c-1.104 0-2-.896-2-2V2.344c0-1.104.896-2 2-2s2 .896 2 2v8.684c0 1.104-.896 2-2 2zm-17.48 3.715c1.01-.45 1.464-1.63 1.015-2.64l-3.53-7.934c-.45-1.01-1.632-1.465-2.642-1.015-1.01.45-1.463 1.632-1.013 2.64l3.53 7.934c.333.744 1.063 1.186 1.83 1.186.27 0 .547-.055.81-.173zM21.566 27.246c.74-.82.673-2.085-.148-2.825l-6.453-5.81c-.82-.738-2.085-.672-2.825.148-.74.82-.674 2.085.147 2.825l6.453 5.81c.382.345.86.515 1.338.515.547 0 1.092-.223 1.487-.662zM12.63 42.72c.342-1.05-.233-2.178-1.283-2.52l-8.26-2.684C2.038 37.178.91 37.75.568 38.8c-.34 1.05.234 2.18 1.284 2.52l8.26 2.685c.206.066.414.1.62.1.842 0 1.626-.54 1.9-1.384zM.348 63.6l8.636-.907c1.1-.114 1.896-1.1 1.78-2.197s-1.104-1.888-2.198-1.78l-8.636.907c-1.1.115-1.897 1.1-1.78 2.198.107 1.027.975 1.79 1.986 1.79.07 0 .14-.004.21-.01zM8.032 84.56l7.52-4.34c.957-.554 1.284-1.777.732-2.733s-1.776-1.283-2.732-.732l-7.52 4.342c-.957.553-1.284 1.776-.732 2.732.37.64 1.042 1 1.734 1 .34-.002.683-.088.998-.27zm15.547 16.025l5.103-7.025c.65-.894.45-2.145-.442-2.794-.892-.648-2.143-.45-2.793.442l-5.104 7.025c-.65.894-.45 2.145.442 2.794.355.258.767.382 1.174.382.618 0 1.228-.287 1.62-.825zM44.3 108.9l1.806-8.494c.23-1.08-.46-2.143-1.54-2.372-1.08-.232-2.143.46-2.372 1.54l-1.806 8.494c-.23 1.08.46 2.143 1.54 2.372.14.03.28.044.418.044.924 0 1.754-.643 1.954-1.584zm20.77 1.54c1.08-.23 1.77-1.29 1.54-2.372l-1.805-8.494c-.23-1.08-1.29-1.776-2.372-1.54-1.08.23-1.77 1.29-1.54 2.372L62.7 108.9c.198.94 1.03 1.584 1.953 1.584.138 0 .278-.013.418-.044zm21.144-9.413c.894-.65 1.092-1.9.442-2.794l-5.104-7.024c-.65-.894-1.897-1.094-2.794-.443-.894.65-1.092 1.9-.442 2.794l5.104 7.025c.392.538 1 .824 1.62.824.407 0 .818-.125 1.174-.383zm15.485-17.2c.55-.956.223-2.18-.733-2.73l-7.52-4.34c-.96-.554-2.18-.225-2.732.73-.552.958-.224 2.18.732 2.733l7.52 4.34c.315.182.66.268.998.268.69 0 1.363-.358 1.734-1zm7.15-22.01c.116-1.098-.68-2.082-1.78-2.197l-8.634-.906c-1.112-.11-2.082.682-2.198 1.78-.115 1.1.682 2.083 1.78 2.198l8.635.906c.07.007.142.01.21.01 1.01 0 1.88-.762 1.988-1.79zm-11.96-17.81l8.258-2.685c1.05-.342 1.625-1.47 1.284-2.52-.342-1.05-1.468-1.626-2.52-1.285l-8.258 2.685c-1.05.342-1.625 1.47-1.284 2.52.275.847 1.06 1.384 1.902 1.384.205 0 .414-.033.62-.1zm-8.628-16.612l6.45-5.81c.82-.74.888-2.004.148-2.825-.74-.82-2.002-.888-2.825-.148l-6.45 5.81c-.82.74-.888 2.004-.148 2.825.396.438.94.662 1.487.662.476-.002.955-.17 1.338-.515zM73.622 15.73l3.528-7.933c.45-1.01-.005-2.19-1.014-2.64-1.01-.45-2.192.005-2.64 1.014l-3.53 7.933c-.45 1.01.005 2.19 1.014 2.64.265.118.54.173.812.173.767 0 1.498-.442 1.83-1.187zM53.5 22.06c18.715 0 33.942 15.225 33.942 33.94 0 18.716-15.227 33.94-33.942 33.94S19.56 74.716 19.56 56c0-18.715 15.225-33.94 33.94-33.94m0-4c-20.954 0-37.94 16.985-37.94 37.94S32.546 93.94 53.5 93.94c20.956 0 37.942-16.985 37.942-37.94S74.455 18.06 53.5 18.06z"/><path d="M34.542 38.477c1.61 0 2.917 1.69 2.917 3.78s-1.31 3.78-2.92 3.78-2.916-1.693-2.916-3.78 1.307-3.78 2.917-3.78zm14.583 0c1.61 0 2.917 1.69 2.917 3.78s-1.306 3.78-2.917 3.78-2.917-1.693-2.917-3.78 1.306-3.78 2.917-3.78z"/></svg>