<svg width="14" height="12" viewBox="0 0 14 12" xmlns="http://www.w3.org/2000/svg"><title>Shape</title><path d="M13.97 1.707c-.51.225-1.058.378-1.632.447.586-.352 1.036-.908 1.248-1.57-.548.324-1.156.56-1.803.688C11.265.72 10.527.375 9.71.375c-1.57 0-2.84 1.27-2.84 2.84 0 .223.025.44.073.647C4.583 3.744 2.49 2.612 1.09.895c-.245.42-.385.907-.385 1.428 0 .985.5 1.854 1.263 2.364-.465-.015-.903-.143-1.286-.355v.036c0 1.376.978 2.523 2.277 2.784-.24.065-.49.1-.75.1-.182 0-.36-.018-.533-.05.36 1.127 1.41 1.948 2.653 1.97-.972.763-2.197 1.217-3.528 1.217-.23 0-.455-.015-.677-.04 1.257.805 2.75 1.275 4.354 1.275 5.223 0 8.08-4.328 8.08-8.08 0-.124-.003-.247-.01-.368.556-.4 1.038-.9 1.418-1.47z" fill="#FFF" fill-rule="evenodd"/></svg>