<svg xmlns="http://www.w3.org/2000/svg" viewBox="0 0 22 22" enable-background="new 0 0 22 22"><path id="Shape" fill="#fff" d="M18.3 0H3.7C1.6 0 0 1.6 0 3.7v14.7c0 2 1.6 3.7 3.7 3.7h14.7c2 0 3.7-1.6 3.7-3.7V3.7C22 1.6 20.4 0 18.3 0zM7 9.6h8c.1.4.2.9.2 1.4 0 2.3-1.9 4.2-4.2 4.2S6.8 13.3 6.8 11c0-.5.1-.9.2-1.4zm12.2 0v8.2c0 .8-.6 1.4-1.4 1.4H4.1c-.8 0-1.4-.6-1.4-1.4V9.6h2.2c-.1.4-.2.9-.2 1.4 0 3.4 2.8 6.3 6.3 6.3s6.3-2.8 6.3-6.3c0-.5-.1-.9-.2-1.4h2.1zm0-4.8c0 .4-.3.7-.7.7h-1.4c-.4 0-.7-.3-.7-.7V3.4c0-.4.3-.7.7-.7h1.4c.4 0 .7.3.7.7v1.4z"/></svg>