<svg xmlns="http://www.w3.org/2000/svg" width="225.77" height="69.67" viewBox="0 0 225.766 69.666" enable-background="new 0 0 225.766 69.666"><path d="M101.17 19.59H90.14l-8.02 12.377-7.95-12.378H62.685L76.32 39.23 61.44 60.833h11.24l9.282-14.192L91.1 60.834h11.55L87.7 39.14zM225.77 40.54c0-5.856-1.697-11.1-5.787-15.42-4.01-4.09-9.717-6.636-15.426-6.636-12.266 0-21.443 9.796-21.443 21.986 0 12.11 9.64 21.52 21.674 21.52 8.56 0 16.197-5.325 19.44-13.19h-9.798c-2.314 3.394-5.86 4.935-9.95 4.935-5.862 0-11.1-4.163-12.34-9.873h33.32l.308-3.32m-33.71-3.932c1.16-5.398 6.476-9.717 12.04-9.717 6.09 0 11.337 3.78 12.956 9.717h-24.992"/><path d="M140.25 19.45v41.525h10.38l-.01-41.517zM174.44 7.116h-10.33v12.16h-7.35v8.397h1.98v.01h.49l.31.014h4.52V45.37h.01v15.463h10.39l-.01-33.14 7.56-.007V19.27h-7.57zM130.13 39.515c-1.266-.93-2.672-1.674-4.22-2.236-1.547-.563-3.08-1.014-4.598-1.352-2.87-.675-5.05-1.335-6.54-1.982-1.49-.646-2.236-1.758-2.236-3.333 0-1.575.675-2.7 2.025-3.375s2.84-1.012 4.474-1.012c1.856 0 3.57.436 5.147 1.308 1.575.873 2.813 1.898 3.713 3.08l5.55-4.913c-1.633-2.08-2.83-3.513-5.592-5.102-2.566-1.478-5.64-1.966-8.563-1.966-2.025 0-3.995.253-5.907.76-1.913.505-3.628 1.28-5.147 2.32-1.52 1.042-2.743 2.377-3.67 4.01-.93 1.632-1.393 3.573-1.393 5.823 0 1.913.337 3.516 1.013 4.81.675 1.294 1.574 2.377 2.7 3.248 1.125.873 2.405 1.575 3.84 2.11 1.434.534 2.91.97 4.43 1.307 3.092.732 5.412 1.464 6.96 2.194 1.547.73 2.32 1.94 2.32 3.628 0 .9-.197 1.66-.59 2.28-.395.618-.915 1.11-1.562 1.476-.645.366-1.35.633-2.108.802-.76.168-1.505.253-2.236.253-2.193 0-4.19-.478-5.99-1.435-1.802-.956-3.264-2.165-4.39-3.628l-5.87 5.252c1.763 2.58 4.528 5.1 7.51 6.25 2.982 1.153 5.166 1.408 8.317 1.408 2.194 0 4.317-.24 6.37-.717 2.055-.478 3.854-1.252 5.4-2.32 1.548-1.068 2.786-2.46 3.714-4.178.93-1.715 1.393-3.81 1.393-6.286 0-1.97-.395-3.643-1.18-5.02-.788-1.38-1.815-2.535-3.08-3.462"/><circle cx="145.44" cy="6.236" r="6.236"/><path d="M32.936 26.15c-5.56 0-10.885 4.32-12.04 9.723l25 .007c-1.622-5.94-6.87-9.728-12.96-9.73M33.3 9.204C16.604 9.2 3.06 22.73 3.06 39.424c0 5.04 1.25 9.79 3.43 13.97L.55 63.836s-1.14 1.954-.144 3.15c1.01 1.214 3.01.45 3.01.45L15.183 63.6c5.05 3.787 11.3 6.06 18.1 6.06 16.696.003 30.23-13.526 30.24-30.22.006-16.7-13.526-30.23-30.22-30.24m21 33.926l-33.34-.01C22.196 48.83 27.44 53 33.31 53.002c4.088 0 7.64-1.545 9.956-4.938l9.8.002C49.82 55.94 42.18 61.26 33.615 61.258c-12.04-.003-21.684-9.422-21.68-21.538.002-12.19 9.188-21.99 21.46-21.987 5.71 0 11.42 2.548 15.43 6.636 4.09 4.326 5.788 9.577 5.786 15.44l-.312 3.316"/></svg>