<svg width="248" height="41" viewBox="0 0 248 41" xmlns="http://www.w3.org/2000/svg"><title>Logo</title><desc>Created with Sketch.</desc><g id="Logo" fill="#fff"><path d="M6.607 12.4l-4.335.146.355-7.995-2.495.11.036-3.357 8.187-.31.355 3.32-2.74.083.637 8.005zM9.603 12.456l-.346-10.86 4.362-.547-.02 4.338c.91-.552 1.712-.828 2.405-.828.266 0 .52.043.756.128.717.254 1.245.88 1.585 1.874.267.776.4 1.698.4 2.765V9.6c-.017 1.055-.15 1.99-.4 2.8l-3.724-.035c.007-.17.058-.57.155-1.2.116-.723.188-1.268.22-1.638.023-.255.035-.485.035-.69 0-.917-.22-1.375-.664-1.375-.286 0-.528.113-.73.337-.2.223-.3.493-.3.808l.092 3.74-3.825.108zM23.062 9.6c.103.15.264.28.482.39.316.164.705.246 1.166.246.012 0 .022-.003.028-.01.473 0 1.144-.175 2.012-.526l1.193 1.91c-1.1.6-2.234.9-3.406.9-.4 0-.808-.036-1.22-.11-1.275-.217-2.27-.775-2.987-1.673-.59-.727-.884-1.546-.884-2.456 0-.247.022-.502.064-.763.213-1.23.835-2.186 1.867-2.865.765-.522 1.6-.783 2.504-.783.293 0 .59.027.894.08 1.02.178 1.86.6 2.522 1.266.704.716 1.09 1.855 1.157 3.42l-5.39.973zm2.05-2.666c-.074-.28-.228-.488-.465-.628-.152-.084-.325-.127-.52-.127-.127 0-.263.017-.41.053-.194.06-.37.19-.532.387-.16.197-.25.426-.27.687l2.196-.373zM224.45 5.044l.373 12.216-4.656.186.51-12.294 3.773-.108zM226.356 17.25l-.256-9.203 4.185-.294V8.94c.916-.61 1.784-.913 2.603-.913.17 0 .337.013.5.04.89.144 1.618.634 2.18 1.47.557.89.862 1.976.914 3.258.007.13.01.262.01.393 0 1.478-.236 2.813-.707 4.003l-4.018-.04c.007-.18.063-.617.168-1.303.124-1.106.203-1.858.235-2.256.026-.268.04-.513.04-.736 0-.987-.24-1.48-.718-1.48-.307 0-.57.12-.785.362-.216.242-.324.533-.324.873l.098 4.522-4.124.118zM242.464 7.9c1.388 0 2.57.458 3.546 1.373l-2.7 2.355c-.29-.26-.56-.392-.817-.392-.215.007-.412.06-.59.157-.385.235-.585.61-.598 1.128.007.316.13.626.374.933.162.203.37.35.617.44.178.054.347.08.51.08.466 0 .907-.242 1.327-.726l2.426 2.17c-.955 1.22-2.32 1.833-4.095 1.833-1.408 0-2.583-.412-3.527-1.236-.975-.85-1.463-1.953-1.463-3.307 0-1.367.488-2.51 1.463-3.434.962-.915 2.138-1.373 3.526-1.373z" id="Shape"/><path d="M103.933 9.174c-1.547-.704-3.216-1.056-5.008-1.056-3.247 0-6.004 1.08-8.27 3.236C88.37 13.22 87.23 15.6 87.23 18.49c0 2.22.76 4.1 2.276 5.646 1.454 1.147 3.392 2.05 5.812 2.707-1.456.643-2.933 1.507-4.434 2.593l4.388 2.525c.766-.535 1.454-.802 2.067-.802.26 0 .497.045.712.138.612.23.92.65.92 1.262 0 .06-.01.13-.024.206-.077.75-.552 1.254-1.425 1.515-.337.106-.705.16-1.103.16-.872 0-1.9-.238-3.078-.712l-4.916 3.557c4.518 1.668 8.446 2.502 11.785 2.502.583 0 1.142-.023 1.678-.07 3.124-.306 5.33-1.377 6.616-3.212.704-.995 1.057-2.058 1.057-3.19 0-.765-.168-1.568-.505-2.41-.827-2.08-2.428-3.632-4.8-4.657 1.944-.536 3.475-1.47 4.593-2.8 1.195-1.407 1.792-3.06 1.792-4.956 0-3.014-1.21-5.454-3.63-7.32l2.114-3.053-4.595-1.906-.597 2.96zm-7.122 6.012c.583-.657 1.288-.987 2.115-.987.827 0 1.54.33 2.137.986.58.658.872 1.454.872 2.387 0 .918-.29 1.706-.872 2.363-.598.658-1.31.987-2.137.987s-1.532-.33-2.114-.987c-.596-.657-.895-1.445-.895-2.363 0-.933.3-1.73.896-2.387z" id="Path"/><path d="M76.555 9.174c-1.547-.704-3.216-1.056-5.008-1.056-3.247 0-6.004 1.08-8.27 3.236-2.283 1.866-3.423 4.245-3.423 7.137 0 2.22.758 4.1 2.274 5.646 1.455 1.147 3.392 2.05 5.812 2.707-1.455.643-2.933 1.507-4.434 2.593l4.388 2.525c.766-.535 1.455-.802 2.068-.802.26 0 .497.045.712.138.612.23.92.65.92 1.262 0 .06-.01.13-.024.206-.077.75-.552 1.254-1.424 1.515-.338.106-.705.16-1.103.16-.873 0-1.9-.238-3.08-.712l-4.915 3.557c4.518 1.668 8.446 2.502 11.785 2.502.582 0 1.14-.023 1.677-.07 3.124-.306 5.33-1.377 6.616-3.212.705-.995 1.057-2.058 1.057-3.19 0-.765-.17-1.568-.506-2.41-.827-2.08-2.427-3.632-4.8-4.657 1.944-.536 3.476-1.47 4.594-2.8 1.195-1.407 1.792-3.06 1.792-4.956 0-3.014-1.21-5.454-3.63-7.32l2.114-3.053-4.595-1.906-.595 2.96zm-7.12 6.012c.58-.657 1.285-.987 2.112-.987.827 0 1.54.33 2.137.986.582.658.873 1.454.873 2.387 0 .918-.29 1.706-.873 2.363-.598.658-1.31.987-2.137.987s-1.532-.33-2.113-.987c-.598-.657-.896-1.445-.896-2.363 0-.933.298-1.73.896-2.387z" id="Path-Copy-2"/><path d="M127.512.77l-10.135 31.136 8.92 2.55 3.098-12.103 6.022 9.702 5.625-9.702 4.262 11.187 8.87-1.04L142.85.77l-7.607 13.018-7.73-13.02zM171.577 11.016c-1.206-.38-2.462-.57-3.766-.57-3.22 0-5.947 1.056-8.177 3.17-2.263 1.98-3.395 4.8-3.395 8.464 0 3.778 1.132 6.575 3.395 8.39 2.18 1.914 4.907 2.872 8.178 2.872 1.817-.034 3.213-.504 4.19-1.41l.197 1.533 10.382-.57-2.85-23.538-8.078.57-.075.965v.124zm-2.8 6.88c.908 0 1.685.364 2.33 1.09.644.71.966 1.742.966 3.094 0 1.336-.322 2.368-.967 3.094-.644.71-1.42 1.064-2.33 1.064-.908 0-1.684-.355-2.328-1.064-.645-.726-.967-1.758-.967-3.094 0-1.352.323-2.384.968-3.094.644-.726 1.42-1.09 2.33-1.09z" id="Path"/><path d="M199.385 32.92l-.247-11.41c0-.857.272-1.592.817-2.203.545-.61 1.206-.915 1.983-.915 1.205 0 1.81 1.246 1.81 3.737 0 .56-.035 1.18-.1 1.855-.084 1.008-.282 2.905-.596 5.694-.264 1.73-.405 2.83-.42 3.29l10.134.1c1.19-3.004 1.784-6.37 1.784-10.1 0-.33-.008-.66-.024-.99-.133-3.233-.9-5.973-2.305-8.218-1.42-2.11-3.253-3.35-5.5-3.712-.413-.066-.834-.1-1.263-.1-2.066 0-4.255.768-6.567 2.303V9.258L188.334 10l.644 23.218 10.407-.297z" id="Path-Copy-3"/><path d="M36.426 29.46l19.412-.528-.528-8.835H45.5l-.115-2.57h7.627l-.16-6.334-7.513.184-.07-2.686L54.6 8.51l-.345-8.26-17.827.872v28.34z" id="Path-Copy"/></g></svg>