<?xml version="1.0" encoding="utf-8"?>
<!-- Generator: Adobe Illustrator 16.0.0, SVG Export Plug-In . SVG Version: 6.00 Build 0)  -->
<!DOCTYPE svg PUBLIC "-//W3C//DTD SVG 1.1//EN" "http://www.w3.org/Graphics/SVG/1.1/DTD/svg11.dtd">
<svg version="1.1" id="Layer_1" xmlns="http://www.w3.org/2000/svg" xmlns:xlink="http://www.w3.org/1999/xlink" x="0px" y="0px"
	 width="326.591px" height="326.592px" viewBox="0 0 326.591 326.592" enable-background="new 0 0 326.591 326.592"
	 xml:space="preserve">
<path d="M148.732,256.894c-4.06,6.861-7.056,12.933-9.826,18.576c-8.802,17.938-15.755,32.106-47.813,48.974
	c-9.012,4.74-14.784,0.453-16.848-1.61c-3.861-3.86-5.455-9.918-7.143-16.33c-1.606-6.102-3.428-13.02-6.924-16.516
	c-4.183-4.182-7.264-4.685-11.931-5.443c-5.579-0.908-12.522-2.039-20.125-9.642c-3.021-3.021-5.969-5.077-8.571-6.891
	c-2.141-1.493-4.164-2.902-5.867-4.606c-7.351-7.351-4.351-15.788-0.916-22.318c20.6-39.159,27.15-45.464,48.857-66.352
	c2.802-2.697,5.812-5.595,9.116-8.815c3.456,3.734,7.307,7.084,11.663,9.576c-3.807,3.723-7.224,7.013-10.378,10.047
	c-20.896,20.108-26.512,25.513-45.982,62.526c-1.443,2.742-1.779,4.104-1.856,4.624c0.029,0.031,0.063,0.066,0.103,0.105
	c0.765,0.765,2.19,1.758,3.839,2.908c2.958,2.062,6.639,4.628,10.599,8.588c4.182,4.183,7.264,4.685,11.931,5.443
	c5.579,0.908,12.523,2.04,20.126,9.644c6.363,6.362,8.835,15.755,10.823,23.303c0.704,2.673,1.695,6.439,2.599,8.433
	c27.646-14.563,32.762-24.991,41.234-42.255c3.375-6.878,7.304-14.865,13.248-24.295
	C142.605,248.151,145.601,252.581,148.732,256.894z M114.946,224.937c-4.235,6.973-7.805,14.993-11.292,22.859
	c-4.804,10.833-9.771,22.035-15.087,26.348c-3.217,2.61-3.708,7.334-1.1,10.55c0.168,0.206,0.343,0.401,0.527,0.585
	c2.683,2.682,7.013,2.956,10.023,0.515c8.116-6.586,13.572-18.891,19.348-31.918c2.503-5.645,5.055-11.367,7.776-16.501
	C122.023,233.015,118.26,229.153,114.946,224.937z M93.304,200.498c-1.86-2.375-4.298-5.234-5.537-8.31
	c-6.067,8.081-10.709,18.549-15.227,28.737c-4.803,10.833-9.77,22.035-15.086,26.348c-3.216,2.61-3.708,7.334-1.099,10.55
	c0.167,0.207,0.343,0.401,0.527,0.585c2.683,2.682,7.012,2.956,10.023,0.515c8.116-6.586,13.572-18.891,19.348-31.917
	c3.416-7.704,6.912-15.583,10.824-21.864C95.807,203.63,94.55,202.09,93.304,200.498z M215.761,95.405
	c8.561-11.04,16.451-23.433,24.186-38.238c1.918-3.671,0.495-8.2-3.175-10.12c-3.672-1.918-8.202-0.497-10.12,3.175
	c-6.64,12.71-13.318,23.476-20.484,33.1C209.335,87.354,212.555,91.37,215.761,95.405z M312.908,63.186
	c-1.704-1.703-3.726-3.113-5.868-4.606c-2.601-1.813-5.55-3.869-8.569-6.89c-7.604-7.603-14.547-8.733-20.126-9.642
	c-4.666-0.76-7.748-1.262-11.931-5.444c-3.496-3.495-5.317-10.413-6.924-16.516c-1.688-6.412-3.282-12.469-7.144-16.33
	c-2.063-2.062-7.835-6.351-16.848-1.609c-29.342,15.438-36.49,30.847-44.058,47.16c-3.16,6.812-6.405,13.765-11.455,21.331
	c1.276,5.049,4.229,10.697,8.139,12.335c0.412,0.172,0.778,0.384,1.108,0.621c7.634-10.365,11.907-19.551,15.815-27.975
	c7.295-15.726,12.566-27.092,37.338-40.146c0.902,1.994,1.894,5.759,2.598,8.432c1.987,7.548,4.46,16.941,10.822,23.304
	c7.604,7.604,14.548,8.734,20.127,9.643c4.666,0.76,7.748,1.262,11.93,5.443c3.96,3.96,7.641,6.525,10.599,8.588
	c1.65,1.15,3.075,2.144,3.84,2.908c0.039,0.039,0.073,0.075,0.103,0.106c-0.078,0.52-0.414,1.882-1.856,4.624
	c-19.471,37.014-25.087,42.418-45.982,62.526c-3.329,3.203-6.936,6.673-10.996,10.649c4.897,1.8,9.441,4.457,13.683,7.609
	c2.757-2.678,5.313-5.14,7.714-7.451c21.707-20.888,28.259-27.192,48.856-66.352C317.257,78.975,320.258,70.536,312.908,63.186z
	 M267.884,73.916c-3.671-1.917-8.202-0.496-10.12,3.176c-8.234,15.762-16.531,28.532-25.74,39.845
	c0.194,0.28,0.396,0.555,0.589,0.835c2.342,3.403,6.039,7.337,8.552,11.563c10.817-12.791,20.471-27.257,29.896-45.298
	C272.977,80.366,271.558,75.836,267.884,73.916z M268.011,307.041c1.813-2.602,3.869-5.551,6.89-8.57
	c7.604-7.604,8.734-14.548,9.643-20.127c0.759-4.667,1.262-7.748,5.443-11.931c3.496-3.496,10.414-5.317,16.516-6.924
	c6.412-1.688,12.47-3.282,16.33-7.144c2.063-2.063,6.351-7.835,1.61-16.848c-16.867-32.059-31.035-39.011-48.974-47.813
	c-10.428-5.117-22.246-10.916-37.959-22.987c-21.982-16.89-28.307-28.33-35.629-41.576c-6.396-11.572-13.646-24.688-31.635-42.677
	c-7.466-7.466-13.27-13.498-18.39-18.818c-20.888-21.707-27.192-28.259-66.352-48.856c-6.53-3.436-14.968-6.437-22.319,0.914
	c-1.704,1.704-3.113,3.726-4.607,5.868c-1.813,2.601-3.869,5.55-6.889,8.569c-7.603,7.604-8.734,14.547-9.642,20.126
	c-0.76,4.666-1.262,7.748-5.444,11.931c-3.495,3.496-10.413,5.317-16.516,6.924c-6.412,1.688-12.469,3.282-16.33,7.144
	c-2.063,2.063-6.351,7.835-1.609,16.848c15.437,29.342,30.846,36.49,47.16,44.058c11.93,5.534,24.267,11.257,39.624,26.614
	c18.389,18.388,25.329,29.326,32.676,40.906c7.461,11.758,15.176,23.916,34.735,43.477c7.467,7.466,13.27,13.496,18.391,18.818
	c20.888,21.707,27.191,28.259,66.352,48.858c6.53,3.434,14.968,6.434,22.318-0.916C265.108,311.205,266.518,309.182,268.011,307.041
	z M248.069,300.547c-37.014-19.471-42.418-25.087-62.526-45.982c-5.167-5.37-11.024-11.456-18.592-19.024
	c-18.388-18.389-25.328-29.326-32.676-40.906c-7.461-11.758-15.176-23.916-34.736-43.475
	c-17.238-17.238-31.413-23.813-43.918-29.615c-15.725-7.295-27.091-12.566-40.146-37.338c1.994-0.902,5.759-1.894,8.432-2.598
	c7.548-1.987,16.941-4.46,23.304-10.822c7.604-7.604,8.734-14.548,9.642-20.127c0.76-4.666,1.262-7.748,5.444-11.93
	c3.959-3.96,6.525-7.641,8.588-10.599c1.15-1.65,2.144-3.075,2.908-3.84c0.039-0.039,0.075-0.073,0.106-0.103
	c0.52,0.078,1.882,0.414,4.624,1.856c37.014,19.471,42.418,25.086,62.526,45.982c5.167,5.37,11.024,11.457,18.591,19.024
	c16.492,16.492,22.909,28.1,29.114,39.325c7.795,14.103,15.157,27.423,39.619,46.217c16.897,12.982,29.979,19.4,40.489,24.559
	c17.264,8.472,27.691,13.588,42.255,41.233c-1.993,0.903-5.76,1.896-8.433,2.599c-7.548,1.987-16.94,4.46-23.303,10.823
	c-7.604,7.603-8.735,14.547-9.644,20.126c-0.759,4.667-1.261,7.748-5.443,11.931c-3.96,3.959-6.526,7.641-8.588,10.6
	c-1.151,1.648-2.144,3.074-2.909,3.838c-0.039,0.039-0.074,0.074-0.105,0.104C252.172,302.326,250.811,301.99,248.069,300.547z
	 M258.408,269.709c-0.184,0.185-0.378,0.359-0.585,0.527c-3.217,2.608-7.939,2.117-10.55-1.1
	c-4.312-5.316-15.515-10.282-26.349-15.086c-12.562-5.57-25.553-11.33-33.967-19.718c-16.517-15.952-31.935-33.307-45.829-51.583
	c-0.029-0.037-0.058-0.075-0.085-0.113C112.806,144,92.013,121.771,50.221,99.94c-3.671-1.918-5.093-6.448-3.175-10.12
	c1.92-3.67,6.449-5.093,10.12-3.175c44.144,23.061,66.955,47.423,95.945,87.083c13.434,17.665,28.342,34.439,44.31,49.857
	c0.032,0.031,0.062,0.062,0.094,0.093c6.439,6.439,18.157,11.635,29.489,16.659c13.027,5.776,25.332,11.232,31.918,19.349
	C261.364,262.697,261.089,267.026,258.408,269.709z M285.278,238.597c-0.184,0.184-0.379,0.359-0.585,0.527
	c-3.216,2.608-7.939,2.117-10.55-1.1c-4.312-5.316-15.515-10.283-26.348-15.087c-12.562-5.569-25.551-11.328-33.967-19.715
	c-16.517-15.954-31.937-33.308-45.831-51.585c-0.028-0.038-0.057-0.075-0.085-0.113c-28.236-38.637-49.03-60.866-90.821-82.697
	c-3.671-1.918-5.093-6.449-3.175-10.12c1.92-3.674,6.45-5.093,10.121-3.176c44.144,23.061,66.955,47.423,95.944,87.083
	c13.435,17.665,28.342,34.439,44.311,49.858c0.031,0.03,0.062,0.061,0.094,0.092c6.439,6.439,18.158,11.635,29.489,16.66
	c13.027,5.776,25.332,11.232,31.918,19.348C288.234,231.584,287.959,235.914,285.278,238.597z"/>
</svg>
