<?xml version="1.0" encoding="utf-8"?>
<!-- Generator: Adobe Illustrator 16.0.0, SVG Export Plug-In . SVG Version: 6.00 Build 0)  -->
<!DOCTYPE svg PUBLIC "-//W3C//DTD SVG 1.1//EN" "http://www.w3.org/Graphics/SVG/1.1/DTD/svg11.dtd">
<svg version="1.1" id="Layer_1" xmlns="http://www.w3.org/2000/svg" xmlns:xlink="http://www.w3.org/1999/xlink" x="0px" y="0px"
	 width="579.789px" height="644.211px" viewBox="0 73.895 579.789 644.211" enable-background="new 0 73.895 579.789 644.211"
	 xml:space="preserve">
<path d="M515.368,170.526h-28.989v112.737H383.306V170.526H196.484v112.737H93.411V170.526h-28.99
	C28.989,170.526,0,199.516,0,234.947v418.737c0,35.432,28.989,64.421,64.421,64.421h450.947c35.432,0,64.421-28.989,64.421-64.421
	V234.947C579.789,196.295,550.8,170.526,515.368,170.526z M515.368,653.685H64.421V338.021h450.947V653.685z M115.958,225.284
	v-122.4c0-16.105,12.884-28.99,28.989-28.99c16.105,0,28.99,12.884,28.99,28.99v122.4c0,16.105-12.884,28.989-28.99,28.989
	C128.842,254.273,115.958,241.39,115.958,225.284z M409.073,225.284v-122.4c0-16.105,12.885-28.99,28.99-28.99
	c16.104,0,28.989,12.884,28.989,28.99v122.4c0,16.105-12.885,28.989-28.989,28.989C421.958,254.273,409.073,241.39,409.073,225.284z
	"/>
</svg>
