<?xml version="1.0" encoding="utf-8"?>
<!-- Generator: Adobe Illustrator 16.0.0, SVG Export Plug-In . SVG Version: 6.00 Build 0)  -->
<!DOCTYPE svg PUBLIC "-//W3C//DTD SVG 1.1//EN" "http://www.w3.org/Graphics/SVG/1.1/DTD/svg11.dtd">
<svg version="1.1" id="Layer_1" xmlns="http://www.w3.org/2000/svg" xmlns:xlink="http://www.w3.org/1999/xlink" x="0px" y="0px"
	 width="714.9px" height="573px" viewBox="-51.499 37.499 714.9 573" enable-background="new -51.499 37.499 714.9 573"
	 xml:space="preserve">
<g>
	<g>
		<path d="M306.031,610.493c-0.424,0-0.849-0.002-1.274-0.007c-0.364,0.004-0.727,0.005-1.092,0.005
			c-34.188-0.001-66.248-13.23-90.272-37.252l-0.113-0.114L28.292,386.668c-38.587-38.638-59.836-89.978-59.836-144.577
			c0-54.646,21.285-106.026,59.935-144.676c38.634-38.634,90.008-59.911,144.66-59.911c49.298,0,95.932,17.315,132.951,49.063
			c37.019-31.748,83.653-49.063,132.951-49.063c54.65,0,106.025,21.277,144.659,59.911c79.783,79.783,79.783,209.6,0,289.383
			l-0.072,0.072L396.145,573.309C372.136,597.271,340.117,610.493,306.031,610.493z M304.817,530.48l1.214,0.013
			c12.746,0,24.695-4.92,33.645-13.852l187.429-186.473c48.528-48.597,48.508-127.613-0.062-176.184
			c-23.524-23.524-54.809-36.479-88.091-36.479c-32.121,0-62.379,12.065-85.598,34.053c-14.501,20.548-30.049,30.554-47.431,30.558
			h-0.132c-17.38-0.051-32.859-10.081-47.215-30.625c-23.209-21.943-53.44-33.986-85.526-33.986
			c-33.282,0-64.567,12.956-88.091,36.479c-48.583,48.583-48.583,127.632,0,176.214l0.112,0.112l184.943,186.41
			c8.91,8.88,20.858,13.77,33.654,13.77L304.817,530.48z"/>
	</g>
</g>
</svg>
