<?xml version="1.0" encoding="utf-8"?>
<!-- Generator: Adobe Illustrator 16.0.0, SVG Export Plug-In . SVG Version: 6.00 Build 0)  -->
<!DOCTYPE svg PUBLIC "-//W3C//DTD SVG 1.1//EN" "http://www.w3.org/Graphics/SVG/1.1/DTD/svg11.dtd">
<svg version="1.1" id="Layer_1" xmlns="http://www.w3.org/2000/svg" xmlns:xlink="http://www.w3.org/1999/xlink" x="0px" y="0px"
	 width="326.59px" height="326.592px" viewBox="0 0 326.59 326.592" enable-background="new 0 0 326.59 326.592"
	 xml:space="preserve">
<g>
	<path d="M163.294,326.194c-38.757,0-70.968-12.065-93.151-34.893c-22.092-22.732-33.77-55.708-33.77-95.362
		c0-40.863,12.188-88.887,31.809-125.331c24.376-45.276,58.154-70.211,95.112-70.211c36.959,0,70.738,24.935,95.113,70.211
		c19.62,36.444,31.809,84.468,31.809,125.331c0,39.654-11.677,72.63-33.769,95.362C234.264,314.129,202.052,326.194,163.294,326.194
		z M163.294,24.397c-62.827,0-102.921,101.599-102.921,171.542c0,67.526,37.514,106.255,102.921,106.255
		c65.408,0,102.922-38.729,102.922-106.255C266.216,125.996,226.123,24.397,163.294,24.397z"/>
</g>
</svg>
