<?xml version="1.0" encoding="utf-8"?>
<!-- Generator: Adobe Illustrator 16.0.0, SVG Export Plug-In . SVG Version: 6.00 Build 0)  -->
<!DOCTYPE svg PUBLIC "-//W3C//DTD SVG 1.1//EN" "http://www.w3.org/Graphics/SVG/1.1/DTD/svg11.dtd">
<svg version="1.1" id="Layer_1" xmlns="http://www.w3.org/2000/svg" xmlns:xlink="http://www.w3.org/1999/xlink" x="0px" y="0px"
	 width="768px" height="768px" viewBox="0 0 768 768" enable-background="new 0 0 768 768" xml:space="preserve">
<path d="M555.839,571.755c-1.499,0.049-3,0.082-4.503,0.082c-3.546,0-7.082-0.139-10.6-0.408c-3.454,0.261-6.922,0.408-10.402,0.408
	c-9.748,0-19.417-1.039-28.854-3.032c-9.565,24.322-22.845,45.368-39.577,62.643c-38.302,39.542-93.78,59.592-164.894,59.592
	c-71.113,0-126.59-20.05-164.891-59.592c-18.717-19.323-33.129-43.354-42.835-71.426c-10.033-29.016-15.12-62.537-15.12-99.634
	c0-82.018,24.23-179.245,63.236-253.741c25.359-48.433,79.817-129.685,159.61-129.685c44.936,0,81.825,25.772,110.019,56.935
	c23.144-23.119,53.886-37.435,86.281-40.484c-55.011-70.569-122.957-108.613-196.3-108.613
	c-93.418,0-178.091,61.712-238.421,173.768C11.347,246.312-18,361.964-18,460.388c0,97.577,29.087,179.082,84.116,235.702
	c55.378,56.988,135.22,87.111,230.893,87.111c95.676,0,175.52-30.122,230.897-87.11c33.635-34.608,57.554-78.53,71.083-129.724
	c-12.489,3.587-25.499,5.47-38.652,5.47C558.835,571.837,557.336,571.804,555.839,571.755z"/>
<path d="M706.763,164.803H494.458c-27.147,0-49.154,22.008-49.154,49.155c0,27.147,22.007,49.155,49.154,49.155h81.568
	L388.225,450.915c-19.196,19.195-19.196,50.319,0,69.515c9.598,9.598,22.178,14.397,34.758,14.397s25.159-4.8,34.757-14.397
	l199.868-199.868v93.634c0,27.147,22.008,49.154,49.155,49.154s49.155-22.007,49.155-49.154V213.958
	C755.918,186.811,733.91,164.803,706.763,164.803z"/>
</svg>
