<?xml version="1.0" encoding="utf-8"?>
<!-- Generator: Adobe Illustrator 16.0.0, SVG Export Plug-In . SVG Version: 6.00 Build 0)  -->
<!DOCTYPE svg PUBLIC "-//W3C//DTD SVG 1.1//EN" "http://www.w3.org/Graphics/SVG/1.1/DTD/svg11.dtd">
<svg version="1.1" id="Layer_1" xmlns="http://www.w3.org/2000/svg" xmlns:xlink="http://www.w3.org/1999/xlink" x="0px" y="0px"
	 width="714.902px" height="572.996px" viewBox="-27 35.937 714.902 572.996" enable-background="new -27 35.937 714.902 572.996"
	 xml:space="preserve">
<g>
	<path d="M610.291,608.933c-22.092,0-40-17.908-40-40V399.629c0-15.509,8.827-28.956,21.73-35.593L552.923,258.72l-149.466-64.527
		l-149.482,64.528l-39.098,105.315c12.903,6.637,21.73,20.084,21.73,35.593v169.304c0,22.092-17.909,40-40,40s-40-17.908-40-40
		V439.558c-12.188-0.728-23.43-6.995-30.451-17.091c-7.477-10.752-9.218-24.482-4.66-36.76l63.43-170.856
		c3.8-10.237,11.621-18.475,21.646-22.803l181.033-78.147c10.117-4.369,21.59-4.368,31.707,0l181.015,78.147
		c10.024,4.328,17.845,12.565,21.645,22.802l63.43,170.856c4.558,12.277,2.817,26.008-4.659,36.76
		c-7.021,10.096-18.264,16.363-30.451,17.091v129.375C650.291,591.025,632.383,608.933,610.291,608.933z"/>
</g>
<g>
	<path d="M78.282,608.933H13c-22.091,0-40-17.908-40-40V177.939c0-78.299,63.702-142,142.001-142.002
		c45.642,0,88.792,22.161,115.426,59.281c12.879,17.949,8.769,42.94-9.18,55.819c-17.948,12.878-42.939,8.769-55.819-9.18
		c-11.646-16.23-30.497-25.92-50.426-25.92C80.814,115.938,53,143.751,53,177.939v350.994h25.282c22.091,0,40,17.908,40,40
		S100.374,608.933,78.282,608.933z"/>
</g>
</svg>
