<?xml version="1.0" encoding="utf-8"?>
<!-- Generator: Adobe Illustrator 16.0.0, SVG Export Plug-In . SVG Version: 6.00 Build 0)  -->
<!DOCTYPE svg PUBLIC "-//W3C//DTD SVG 1.1//EN" "http://www.w3.org/Graphics/SVG/1.1/DTD/svg11.dtd">
<svg version="1.1" id="Layer_1" xmlns:sketch="http://www.bohemiancoding.com/sketch/ns"
	 xmlns="http://www.w3.org/2000/svg" xmlns:xlink="http://www.w3.org/1999/xlink" x="0px" y="0px" width="612px" height="611.963px"
	 viewBox="0 90.019 612 611.963" enable-background="new 0 90.019 612 611.963" xml:space="preserve">
<title>Slice 1</title>
<description>Created with Sketch (http://www.bohemiancoding.com/sketch)</description>
<g>
	<path d="M306,90.019c168.74,0,306,137.259,306,305.981c0,168.723-137.26,305.981-306,305.981C137.271,701.981,0,564.723,0,396
		C0,227.278,137.271,90.019,306,90.019z M389.85,275.949l-83.849,83.848l-83.848-83.857c-9.994-9.994-26.201-10.003-36.204,0
		c-9.994,9.994-9.994,26.209,0,36.204l83.848,83.857l-83.857,83.848c-9.994,10.003-9.994,26.21,0,36.204
		c10.012,10.012,26.209,10.003,36.212,0.009l83.848-83.857l83.849,83.849c9.993,9.993,26.209,10.003,36.203,0.009
		c10.012-10.012,9.994-26.219,0-36.213l-83.848-83.848l83.848-83.849c9.994-9.985,10.012-26.201,0-36.204
		C416.059,265.946,399.843,265.955,389.85,275.949z"/>
</g>
</svg>
