<?xml version="1.0" encoding="utf-8"?>
<!-- Generator: Adobe Illustrator 16.0.0, SVG Export Plug-In . SVG Version: 6.00 Build 0)  -->
<!DOCTYPE svg PUBLIC "-//W3C//DTD SVG 1.1//EN" "http://www.w3.org/Graphics/SVG/1.1/DTD/svg11.dtd">
<svg version="1.1" id="Layer_1" xmlns="http://www.w3.org/2000/svg" xmlns:xlink="http://www.w3.org/1999/xlink" x="0px" y="0px"
	 width="714.9px" height="573px" viewBox="-51.451 37.499 714.9 573" enable-background="new -51.451 37.499 714.9 573"
	 xml:space="preserve">
<g>
	<path d="M305.996,603.621c-0.001,0,0,0-0.002,0c-11.611-0.001-22.648-5.047-30.246-13.826
		c-27.32-31.574-79.72-94.771-123.704-163.275C107.327,356.872,85.59,303.967,85.59,264.782
		c0-121.532,98.874-220.406,220.406-220.406c121.536,0,220.413,98.874,220.413,220.406c0,39.187-21.737,92.092-66.452,161.739
		c-43.999,68.529-96.397,131.713-123.716,163.276C328.644,598.576,317.605,603.621,305.996,603.621z M305.996,124.376
		c-77.42,0-140.406,62.986-140.406,140.406c0,8.155,3.878,40.801,53.773,118.515c28.405,44.241,60.764,86.373,86.636,118.117
		c25.87-31.736,58.227-73.862,86.639-118.115c49.894-77.712,53.771-110.361,53.771-118.517
		C446.409,187.362,383.42,124.376,305.996,124.376z"/>
</g>
</svg>
