<?xml version="1.0" encoding="UTF-8" standalone="no"?>
<svg width="248px" height="41px" viewBox="0 0 248 41" version="1.1" xmlns="http://www.w3.org/2000/svg" xmlns:xlink="http://www.w3.org/1999/xlink" xmlns:sketch="http://www.bohemiancoding.com/sketch/ns">
    <!-- Generator: Sketch 3.3.3 (12081) - http://www.bohemiancoding.com/sketch -->
    <title>Logo</title>
    <desc>Created with Sketch.</desc>
    <defs></defs>
    <g id="Page-1" stroke="none" stroke-width="1" fill="none" fill-rule="evenodd" sketch:type="MSPage">
        <g id="Desktop" sketch:type="MSArtboardGroup" transform="translate(-389.000000, -20.000000)" fill="#FFFFFF">
            <g id="Top-Bar" sketch:type="MSLayerGroup" transform="translate(-12.000000, 0.000000)">
                <g id="Logo" transform="translate(401.000000, 20.000000)" sketch:type="MSShapeGroup">
                    <path d="M6.60662252,12.4008163 L2.27194589,12.5461224 L2.62703959,4.55061224 L0.131985346,4.66 L0.168352825,1.30326531 L8.35512188,0.993877551 L8.71021558,4.31428571 L5.96917007,4.39591837 L6.60662252,12.4008163 L6.60662252,12.4008163 Z" id="Shape"></path>
                    <path d="M9.60264901,12.4555102 L9.25654502,1.59469388 L13.6185994,1.04897959 L13.60062,5.3877551 C14.5114415,4.83632653 15.3123432,4.56040816 16.0045512,4.56040816 C16.2713823,4.56040816 16.5239115,4.60285714 16.7605044,4.6877551 C17.4768212,4.94244898 18.0051712,5.56734694 18.3451458,6.56163265 C18.6119769,7.33795918 18.7455967,8.25959184 18.7455967,9.32693878 L18.7455967,9.59959184 C18.7276173,10.655102 18.5935888,11.5889796 18.3451458,12.4012245 L14.6205439,12.364898 C14.6266732,12.1955102 14.6781598,11.795102 14.7754121,11.1644898 C14.8906439,10.442449 14.9633789,9.89714286 14.9940256,9.52693878 C15.0181344,9.2722449 15.0303931,9.04204082 15.0303931,8.8355102 C15.0303931,7.92040816 14.8089193,7.46244898 14.3655629,7.46244898 C14.0803438,7.46244898 13.8376215,7.57469388 13.6369875,7.79877551 C13.436762,8.02326531 13.3366493,8.29306122 13.3366493,8.60816327 L13.4277723,12.3465306 L9.60264901,12.4555102 L9.60264901,12.4555102 Z" id="Shape"></path>
                    <path d="M23.0618853,9.59918367 C23.1648584,9.75102041 23.325856,9.88122449 23.5444695,9.99061224 C23.8599267,10.1538776 24.2485275,10.2363265 24.7102719,10.2363265 C24.722122,10.2363265 24.7315204,10.2334694 24.7376497,10.2273469 C25.2112442,10.2273469 25.8817951,10.0514286 26.7501198,9.69959184 L27.9428914,11.6102041 C26.8441031,12.2106122 25.7085388,12.5106122 24.5370156,12.5106122 C24.1365647,12.5106122 23.7291673,12.4742857 23.3168663,12.4012245 C22.0419614,12.1828571 21.0461463,11.6253061 20.3298295,10.7273469 C19.7405946,9.99959184 19.4463858,9.18122449 19.4463858,8.27142857 C19.4463858,8.02285714 19.4676342,7.76816327 19.510131,7.50734694 C19.7226152,6.27632653 20.3445399,5.32122449 21.3767226,4.64163265 C22.1416655,4.12040816 22.976483,3.85918367 23.8811751,3.85918367 C24.1725236,3.85918367 24.4700014,3.88653061 24.7736086,3.94122449 C25.7935325,4.11755102 26.6344794,4.53877551 27.2960406,5.20571429 C28.0000986,5.92163265 28.3858391,7.06122449 28.4528533,8.62612245 L23.0618853,9.59918367 L23.0618853,9.59918367 Z M25.1111315,6.93387755 C25.0383965,6.65510204 24.8835283,6.44612245 24.6469353,6.30612245 C24.4949274,6.22163265 24.3220798,6.17877551 24.127575,6.17877551 C24.0000845,6.17877551 23.8636043,6.19673469 23.7177258,6.23346939 C23.5232211,6.29387755 23.3458785,6.42326531 23.1848809,6.62 C23.0238833,6.81673469 22.9343948,7.04612245 22.9164154,7.30693878 L25.1111315,6.93387755 L25.1111315,6.93387755 Z" id="Shape"></path>
                    <path d="M224.449866,5.04408163 L224.823348,17.2595918 L220.167085,17.4461224 L220.677864,5.1522449 L224.449866,5.04408163 L224.449866,5.04408163 Z" id="Shape"></path>
                    <path d="M226.355686,17.2497959 L226.100296,8.04693878 L230.284599,7.75265306 L230.284599,8.93959184 C231.201141,8.33142857 232.069057,8.02734694 232.88753,8.02734694 C233.057926,8.02734694 233.224644,8.04040816 233.388502,8.06693878 C234.278892,8.21102041 235.005833,8.70122449 235.568916,9.53836735 C236.125461,10.4277551 236.429886,11.5134694 236.48219,12.795102 C236.488728,12.9261224 236.491997,13.0571429 236.491997,13.1877551 C236.491997,14.6661224 236.256221,16.0008163 235.78467,17.1910204 L231.767493,17.1514286 C231.774031,16.9689796 231.829604,16.5334694 231.93462,15.8469388 C232.058842,14.7412245 232.137706,13.9889796 232.170396,13.5906122 C232.196139,13.322449 232.209624,13.0767347 232.209624,12.8542857 C232.209624,11.8669388 231.970579,11.3730612 231.49249,11.3730612 C231.184796,11.3730612 230.922869,11.4942857 230.706707,11.7359184 C230.490954,11.9783673 230.382669,12.2689796 230.382669,12.6089796 L230.480738,17.1322449 L226.355686,17.2497959 L226.355686,17.2497959 Z" id="Shape"></path>
                    <path d="M242.464436,7.89959184 C243.852121,7.89959184 245.034268,8.35755102 246.010061,9.27306122 L243.308652,11.6281633 C243.020572,11.3665306 242.749246,11.2355102 242.493448,11.2355102 C242.277695,11.2428571 242.081147,11.295102 241.904213,11.3926531 C241.517655,11.6281633 241.317839,12.0044898 241.305171,12.5212245 C241.311709,12.8355102 241.435931,13.1461224 241.678653,13.4534694 C241.842102,13.6563265 242.048866,13.8032653 242.297309,13.8942857 C242.474651,13.9473469 242.64423,13.9730612 242.808088,13.9730612 C243.272693,13.9730612 243.714415,13.7310204 244.134071,13.2469388 L246.560476,15.4155102 C245.604706,16.6383673 244.239087,17.2497959 242.464844,17.2497959 C241.056728,17.2497959 239.881527,16.8379592 238.938425,16.0138776 C237.962632,15.1640816 237.475144,14.0612245 237.475144,12.7073469 C237.475144,11.3404082 237.962632,10.1955102 238.938425,9.27306122 C239.900324,8.35755102 241.075933,7.89959184 242.464436,7.89959184 L242.464436,7.89959184 Z" id="Shape"></path>
                    <path d="M103.932943,9.17387755 C102.385895,8.47020408 100.716669,8.11836735 98.9248556,8.11836735 C95.6775257,8.11836735 92.9209525,9.19714286 90.6543187,11.3538776 C88.3721572,13.2204082 87.2312808,15.5991837 87.2312808,18.4906122 C87.2312808,20.7089796 87.9892772,22.5902041 89.5056785,24.1355102 C90.9603776,25.2828571 92.897661,26.1857143 95.3179372,26.8432653 C93.8624207,27.4857143 92.3848387,28.3502041 90.8839651,29.4363265 L95.2717627,31.9612245 C96.0375229,31.4253061 96.7264619,31.157551 97.3393969,31.157551 C97.59969,31.157551 97.8371002,31.2032653 98.0516274,31.2955102 C98.6641539,31.524898 98.9706214,31.9453061 98.9706214,32.557551 C98.9706214,32.6183673 98.9624489,32.6869388 98.9477385,32.7640816 C98.8709173,33.5134694 98.3960969,34.0179592 97.5232774,34.2787755 C97.1861632,34.3857143 96.8184021,34.4395918 96.420403,34.4395918 C95.5475835,34.4395918 94.5211216,34.2020408 93.3418346,33.7281633 L88.4256869,37.2853061 C92.9438354,38.9526531 96.8719318,39.7865306 100.210793,39.7865306 C100.792673,39.7865306 101.35167,39.7636735 101.887784,39.717551 C105.012118,39.4114286 107.217458,38.3404082 108.503804,36.504898 C109.208271,35.5102041 109.560504,34.4473469 109.560504,33.3155102 C109.560504,32.5502041 109.391743,31.7469388 109.055037,30.9061224 C108.227984,28.8257143 106.627406,27.2730612 104.253713,26.2477551 C106.19876,25.7122449 107.73028,24.7791837 108.848274,23.4485714 C110.043089,22.0412245 110.640087,20.3889796 110.640087,18.4918367 C110.640087,15.4779592 109.430154,13.0379592 107.010286,11.1710204 L109.123686,8.11918367 L104.529125,6.21428571 L103.932943,9.17387755 Z M96.8114555,15.1857143 C97.3933352,14.5285714 98.0978019,14.1987755 98.9248556,14.1987755 C99.7519093,14.1987755 100.46414,14.5285714 101.061547,15.1857143 C101.643427,15.8436735 101.934367,16.6395918 101.934367,17.5726531 C101.934367,18.4906122 101.643427,19.2787755 101.061547,19.9363265 C100.46414,20.5938776 99.7519093,20.9228571 98.9248556,20.9228571 C98.0978019,20.9228571 97.3929266,20.5938776 96.8114555,19.9363265 C96.2140482,19.2787755 95.9153445,18.4906122 95.9153445,17.5726531 C95.9153445,16.64 96.2140482,15.8436735 96.8114555,15.1857143 Z" id="Path"></path>
                    <path d="M76.5551782,9.17387755 C75.0081302,8.47020408 73.3389038,8.11836735 71.5470903,8.11836735 C68.2997605,8.11836735 65.5431873,9.19714286 63.2765535,11.3538776 C60.994392,13.2204082 59.8535156,15.5991837 59.8535156,18.4906122 C59.8535156,20.7089796 60.6115119,22.5902041 62.1279132,24.1355102 C63.5826124,25.2828571 65.5198957,26.1857143 67.9401719,26.8432653 C66.4846555,27.4857143 65.0070734,28.3502041 63.5061998,29.4363265 L67.8939975,31.9612245 C68.6597576,31.4253061 69.3486966,31.157551 69.9616317,31.157551 C70.2219248,31.157551 70.4593349,31.2032653 70.6738622,31.2955102 C71.2863886,31.524898 71.5928561,31.9453061 71.5928561,32.557551 C71.5928561,32.6183673 71.5846837,32.6869388 71.5699732,32.7640816 C71.493152,33.5134694 71.0183317,34.0179592 70.1455122,34.2787755 C69.8083979,34.3857143 69.4406369,34.4395918 69.0426377,34.4395918 C68.1698182,34.4395918 67.1433563,34.2020408 65.9640693,33.7281633 L61.0479217,37.2853061 C65.5660702,38.9526531 69.4941665,39.7865306 72.833028,39.7865306 C73.4149077,39.7865306 73.9739045,39.7636735 74.5100183,39.717551 C77.6343525,39.4114286 79.8396928,38.3404082 81.1260392,36.504898 C81.8305058,35.5102041 82.1827392,34.4473469 82.1827392,33.3155102 C82.1827392,32.5502041 82.0139777,31.7469388 81.6772721,30.9061224 C80.8502184,28.8257143 79.2496407,27.2730612 76.8759476,26.2477551 C78.8209948,25.7122449 80.3525151,24.7791837 81.4705087,23.4485714 C82.6653234,22.0412245 83.2623221,20.3889796 83.2623221,18.4918367 C83.2623221,15.4779592 82.0523883,13.0379592 79.6325208,11.1710204 L81.7459208,8.11918367 L77.1513597,6.21428571 L76.5551782,9.17387755 Z M69.4336903,15.1857143 C70.01557,14.5285714 70.7200366,14.1987755 71.5470903,14.1987755 C72.374144,14.1987755 73.0863745,14.5285714 73.6837819,15.1857143 C74.2656615,15.8436735 74.5566014,16.6395918 74.5566014,17.5726531 C74.5566014,18.4906122 74.2656615,19.2787755 73.6837819,19.9363265 C73.0863745,20.5938776 72.374144,20.9228571 71.5470903,20.9228571 C70.7200366,20.9228571 70.0151613,20.5938776 69.4336903,19.9363265 C68.8362829,19.2787755 68.5375793,18.4906122 68.5375793,17.5726531 C68.5375793,16.64 68.8362829,15.8436735 69.4336903,15.1857143 Z" id="Path-Copy-2"></path>
                    <path d="M127.511737,0.769387755 L117.377061,31.9057143 L126.297717,34.455102 L129.395082,22.3526531 L135.416556,32.0546939 L141.041665,22.3526531 L145.303607,33.54 L154.174412,32.5 L142.850641,0.769387755 L135.2433,13.7881633 L127.511737,0.769387755 L127.511737,0.769387755 Z" id="Path"></path>
                    <path d="M171.576863,11.0155102 C170.371016,10.6363265 169.115316,10.4461224 167.810582,10.4461224 C164.589404,10.4461224 161.863478,11.5020408 159.633211,13.6146939 C157.369846,15.595102 156.238368,18.4163265 156.238368,22.0795918 C156.238368,25.8579592 157.369846,28.655102 159.633211,30.4706122 C161.814034,32.3840816 164.539552,33.3416327 167.810582,33.3416327 C169.627321,33.3081633 171.023179,32.8383673 171.998563,31.9306122 L172.196745,33.464898 L182.579456,32.8955102 L179.729308,9.35714286 L171.651642,9.92653061 L171.577272,10.8918367 L171.577272,11.0155102 L171.576863,11.0155102 Z M168.776976,17.8971429 C169.685346,17.8971429 170.462139,18.2604082 171.106129,18.9861224 C171.750528,19.6959184 172.072932,20.7277551 172.072932,22.08 C172.072932,23.4163265 171.750528,24.4481633 171.106129,25.1738776 C170.462139,25.8832653 169.685346,26.2379592 168.776976,26.2379592 C167.868198,26.2379592 167.091813,25.8832653 166.447823,25.1738776 C165.803424,24.4481633 165.481429,23.4163265 165.481429,22.08 C165.481429,20.7277551 165.803424,19.6959184 166.447823,18.9861224 C167.091813,18.26 167.867789,17.8971429 168.776976,17.8971429 Z" id="Path"></path>
                    <path d="M199.385318,32.9208163 L199.137692,21.5097959 C199.137692,20.6526531 199.410244,19.9179592 199.955347,19.3073469 C200.500451,18.697551 201.161195,18.3922449 201.937579,18.3922449 C203.143427,18.3922449 203.746555,19.6383673 203.746555,22.1289796 C203.746555,22.6902041 203.713048,23.3093878 203.647259,23.9853061 C203.564309,24.9926531 203.366127,26.8897959 203.052304,29.6787755 C202.787924,31.4110204 202.647358,32.5089796 202.631422,32.9702041 L212.766098,33.0689796 C213.955192,30.0661224 214.550148,26.7 214.550148,22.9706122 C214.550148,22.6404082 214.541567,22.3110204 214.525631,21.9808163 C214.393237,18.7465306 213.625025,16.0069388 212.220995,13.762449 C210.800211,11.6510204 208.966718,10.4130612 206.720107,10.0502041 C206.306989,9.9844898 205.885698,9.95142857 205.456644,9.95142857 C203.391461,9.95142857 201.202466,10.7183673 198.890066,12.2534694 L198.890066,9.25836735 L188.334099,10.0008163 L188.978498,33.217551 L199.385318,32.9208163 L199.385318,32.9208163 Z" id="Path-Copy-3"></path>
                    <path d="M36.4255037,29.4591837 L55.8379738,28.9318367 L55.3096238,20.0967347 L45.5002114,20.0967347 L45.3853882,17.5269388 L53.0123432,17.5269388 L52.8513456,11.1930612 L45.3392138,11.3767347 L45.270565,8.69142857 L54.5978019,8.50816327 L54.2533324,0.247346939 L36.426321,1.11959184 L36.426321,29.4591837 L36.4255037,29.4591837 Z" id="Path-Copy"></path>
                </g>
            </g>
        </g>
    </g>
</svg>