<?xml version="1.0" encoding="utf-8"?>
<!-- Generator: Adobe Illustrator 16.0.0, SVG Export Plug-In . SVG Version: 6.00 Build 0)  -->
<!DOCTYPE svg PUBLIC "-//W3C//DTD SVG 1.1//EN" "http://www.w3.org/Graphics/SVG/1.1/DTD/svg11.dtd">
<svg version="1.1" id="Layer_1" xmlns="http://www.w3.org/2000/svg" xmlns:xlink="http://www.w3.org/1999/xlink" x="0px" y="0px"
	 width="758.107px" height="256.899px" viewBox="37.323 40.102 758.107 256.899"
	 enable-background="new 37.323 40.102 758.107 256.899" xml:space="preserve">
<path fill="#FFFFFF" d="M337.296,181.171c-20.559,0-38.062-5.482-55.067-17.253c-21.469-13.403-30.024-15.938-53.703-15.938
	c-6.125,0-13.277,0.185-21.315,0.403c-16.922,0.466-37.983,1.044-58.211,1.044c-26.987,0-48.717-0.987-68.384-3.108
	c-0.041-0.004-0.082-0.009-0.122-0.015c-11.872-1.609-20.463-3.31-26.264-5.195c-2.957-0.962-10.811-3.517-10.509-9.646
	c0.237-4.803,3.762-10.468,42.839-16.932c21.863-3.616,46.293-5.979,59.126-6.443c8.55-0.492,18.961-0.596,31.932-0.596
	c2.77,0,5.598,0.004,8.47,0.009c2.96,0.005,5.966,0.009,9.005,0.009c34.326,0,72.006-0.692,94.631-8.145
	c-4.917-3.822-5.821-7.899-5.466-11.06c0.902-8.044,11.324-14.821,25.936-16.865c1.908-0.302,4.234-0.462,6.836-0.462
	c13.682,0,32.999,4.329,42.772,7.271c30.414,6.739,60.564,9.878,94.873,9.877c21.488,0,42.448-1.157,64.641-2.384
	c23.767-1.312,48.343-2.67,75.293-2.67c3.315,0,6.676,0.021,10.062,0.062c6.724,0.169,13.607,0.172,20.895,0.174
	c18.759,0.008,38.154,0.016,55.723,2.883c16.549,2.341,22.387,4.229,24.888,8.075c1.941,2.984,1.091,5.977,0.471,8.157
	c-0.737,2.597-1.321,4.648,1.069,8.301c5.165,7.153,24.297,7.866,41.184,8.497c22.343,0.834,45.443,1.695,45.027,18.351
	c-0.34,13.629-22.681,13.684-31.239,13.684c-0.033,0-0.067,0-0.104,0c-13.552,0-29.446-1.648-43.469-3.104
	c-9.051-0.938-16.866-1.75-21.936-1.876c-0.103-0.003-0.206-0.009-0.309-0.02c-1.625-0.152-3.312-0.317-5.045-0.488
	c-8.562-0.842-18.264-1.794-26.896-1.794c-5.52,0-10.075,0.4-13.596,1.195c0.311,2.83,0.561,7.837-4.229,10.324
	c-0.121,0.062-0.246,0.122-0.375,0.174c-19.718,8.04-42.77,11.785-72.545,11.785c-17.688,0-36.097-1.296-53.896-2.549
	c-17.714-1.246-36.032-2.535-53.542-2.535c-7.795,0-14.866,0.246-21.618,0.753c-18.771,1.531-36.132,5.562-52.921,9.458
	C373.182,176.999,355.211,181.171,337.296,181.171z"/>
<path d="M337.296,182.671c-20.882,0-38.651-5.565-55.92-17.52c-21.106-13.176-29.513-15.672-52.85-15.672
	c-6.024,0-12.905,0.175-21.274,0.403c-16.972,0.467-38.025,1.044-58.252,1.044c-27.04,0-48.82-0.99-68.544-3.117l-0.18-0.022
	c-11.946-1.619-20.624-3.338-26.509-5.253c-3.256-1.059-11.902-3.872-11.543-11.146c0.278-5.635,3.911-11.691,44.092-18.339
	c21.933-3.628,46.442-5.996,59.316-6.462c8.574-0.495,18.992-0.597,31.986-0.597c2.771,0,5.599,0.004,8.472,0.009
	c34.608,0.062,75.688,0.057,100.652-7.278c-3.772-3.85-4.289-7.791-3.975-10.584c0.98-8.735,11.918-16.044,27.217-18.184
	c1.99-0.314,4.368-0.477,7.044-0.477c13.797,0,33.339,4.371,43.15,7.318c30.287,6.707,60.316,9.831,94.495,9.83
	c21.47,0,42.398-1.156,64.557-2.381c26.728-1.477,54.496-3.001,85.459-2.608c6.765,0.169,13.618,0.171,20.875,0.173
	c18.821,0.008,38.277,0.016,55.964,2.901c17.268,2.442,23.085,4.403,25.903,8.738c2.313,3.559,1.315,7.066,0.654,9.387
	c-0.706,2.488-1.133,3.99,0.883,7.067c4.697,6.504,24.26,7.233,39.979,7.82c23.075,0.86,46.93,1.751,46.477,19.887
	c-0.377,15.146-23.888,15.146-32.738,15.146h-0.104c-13.629,0-29.563-1.652-43.623-3.111c-9.068-0.94-16.824-1.745-21.817-1.869
	c-0.143-0.004-0.277-0.012-0.414-0.025c-1.625-0.152-3.314-0.317-5.05-0.49c-8.53-0.838-18.191-1.786-26.747-1.786
	c-4.742,0-8.765,0.301-11.981,0.896c0.171,2.829-0.139,7.853-5.151,10.455c-0.169,0.087-0.335,0.165-0.504,0.233
	c-19.9,8.113-43.132,11.895-73.107,11.895c-17.736,0-36.167-1.297-53.988-2.552c-17.717-1.246-36-2.532-53.45-2.532
	c-7.76,0-14.794,0.245-21.506,0.749c-18.656,1.521-35.96,5.538-52.694,9.423C373.438,178.48,355.387,182.671,337.296,182.671z
	 M228.526,146.48c24.06,0,32.719,2.567,54.498,16.166c16.803,11.628,34.03,17.024,54.272,17.024c17.748,0,35.635-4.152,54.573-8.551
	c16.839-3.909,34.252-7.951,53.138-9.492c6.797-0.51,13.905-0.758,21.74-0.758c17.556,0,35.893,1.29,53.626,2.537
	c17.806,1.254,36.182,2.547,53.812,2.547c29.574,0,52.446-3.709,71.979-11.674c0.091-0.037,0.175-0.078,0.258-0.12
	c3.659-1.9,3.784-5.528,3.422-8.825l-0.146-1.332l1.307-0.295c3.623-0.817,8.309-1.232,13.926-1.232c8.701,0,18.44,0.957,27.033,1.8
	c1.739,0.171,3.424,0.336,5.047,0.49c0.071,0.007,0.144,0.01,0.212,0.012c5.104,0.127,12.915,0.937,21.958,1.875
	c14.075,1.46,29.929,3.104,43.401,3.104h0.104c8.051,0,29.436,0,29.739-12.221c0.379-15.173-21.972-16.007-43.585-16.813
	c-18.07-0.675-36.75-1.371-42.343-9.118c-2.806-4.279-2.073-6.857-1.298-9.586c0.604-2.119,1.286-4.519-0.284-6.933
	c-2.188-3.364-7.979-5.165-23.84-7.407c-17.479-2.854-36.812-2.86-55.508-2.868c-7.281-0.002-14.153-0.004-20.937-0.173
	c-3.363-0.042-6.716-0.063-10.025-0.063c-26.903,0-51.454,1.356-75.196,2.667c-22.215,1.228-43.186,2.387-64.736,2.387
	c-34.424,0.001-64.673-3.148-95.198-9.913l-0.107-0.027c-9.625-2.897-28.843-7.208-42.341-7.208c-2.483,0-4.767,0.152-6.603,0.442
	c-13.946,1.952-23.853,8.199-24.678,15.552c-0.405,3.602,1.243,6.867,4.896,9.708l2.223,1.729l-2.674,0.881
	c-25.093,8.265-68.089,8.271-104.108,8.211c-2.872-0.005-5.698-0.009-8.467-0.009c-12.942,0-23.311,0.101-31.846,0.593
	c-12.812,0.463-37.159,2.818-58.968,6.427c-41.155,6.808-41.446,12.695-41.585,15.524c-0.246,4.983,6.815,7.28,9.473,8.146
	c5.715,1.857,14.22,3.538,26.003,5.136c19.696,2.125,41.375,3.11,68.304,3.11c20.186,0,41.216-0.578,58.114-1.043
	C215.562,146.655,222.464,146.48,228.526,146.48z"/>
<path fill="#FFC60B" d="M342.461,112.309c0,0,19.912,51.507,10.409,140.95c-8.104,76.278,60.646,37.173,34.3,0
	c-26.346-37.172-4.433-125.547,77.437-124.744L342.461,112.309z M550.534,83.608c-17.191-25.025-54.33-42.732-97.664-43.481
	c-44.378-0.769-82.876,16.466-100.376,41.859c-6.27,9.095-9.845,19.235-10.031,29.971c-0.005,0.318,0.001,0.634,0.002,0.95
	c20.387,9.253,60.817,15.635,107.393,15.775c49.234,0.148,91.652-6.718,110.796-16.716
	C560.078,101.898,556.512,92.311,550.534,83.608z"/>
<path fill="#FFFFFF" d="M436.095,122.499c0,0-1.463,0.15-4.021,0.296c-1.278,0.069-2.831,0.174-4.611,0.229
	c-1.784,0.048-3.799,0.103-5.998,0.106c-2.198,0.013-4.576-0.019-7.092-0.087c-2.514-0.089-5.169-0.172-7.909-0.36
	c-2.734-0.223-5.576-0.353-8.441-0.681c-1.436-0.153-2.886-0.28-4.333-0.46c-1.449-0.188-2.903-0.375-4.357-0.562
	c-2.904-0.407-5.805-0.862-8.648-1.38c-2.847-0.5-5.627-1.108-8.313-1.719c-2.694-0.564-5.265-1.3-7.7-1.965
	c-1.212-0.358-2.391-0.709-3.532-1.047c-1.137-0.349-2.219-0.753-3.264-1.104c-2.098-0.679-3.969-1.479-5.632-2.144
	c-1.659-0.682-3.062-1.39-4.229-1.923c-1.148-0.58-2.023-1.094-2.631-1.416c-0.599-0.336-0.918-0.517-0.918-0.517
	s1.424,0.396,3.858,1.128c1.229,0.319,2.726,0.709,4.439,1.154c1.729,0.392,3.654,0.884,5.785,1.322
	c2.117,0.479,4.437,0.896,6.867,1.398c1.216,0.249,2.483,0.442,3.767,0.677c1.286,0.22,2.593,0.488,3.935,0.694
	c1.338,0.223,2.697,0.446,4.075,0.676c1.383,0.195,2.778,0.408,4.186,0.64c2.818,0.413,5.68,0.854,8.551,1.233
	c2.868,0.407,5.739,0.785,8.571,1.145c2.833,0.36,5.62,0.716,8.317,1.061c5.41,0.646,10.462,1.247,14.792,1.765
	c2.167,0.229,4.153,0.485,5.919,0.715c1.769,0.194,3.312,0.399,4.582,0.562C434.645,122.275,436.095,122.499,436.095,122.499z"/>
<path fill="#FFFFFF" d="M360.554,215.918c0,0-9.681,63.5,1.914,74.354C369.57,296.921,360.554,215.918,360.554,215.918z"/>
<path display="none" d="M128.331,185.044l49.137-2.361v0.395l8.264,8.209l1.068,25.58l-5.622,0.112l1.181,1.181l0.394,16.305
	l5.566,5.564l1.574,26.874l-52.96,1.405l-8.264-8.266h-0.337L128.331,185.044L128.331,185.044z M231.756,196.288l17.541,7.252
	l-0.169,0.226l8.377,8.32l-5.678,8.208l0.45,0.394c-0.038-0.036-0.066-0.057-0.084-0.057c-0.02,0-0.048-0.018-0.084-0.056
	l0.787,0.729c2.361,2.36,4.113,4.977,5.257,7.843c1.143,2.868,1.714,6.062,1.714,9.586c0,5.322-1.668,9.934-5.004,13.83
	c-0.975,1.125-2.015,2.118-3.12,2.979c-1.106,0.862-2.315,1.667-3.626,2.418l2.867,2.868c2.061,2.062,3.654,4.479,4.779,7.252
	l0.056,0.057c0.937,2.322,1.405,4.629,1.405,6.914c0,3.337-1.031,6.429-3.092,9.276l0.056,0.058
	c-3.636,5.173-9.689,8.171-18.16,8.994c-1.312,0.113-2.755,0.169-4.329,0.169c-8.471,0-19.94-2.68-34.407-8.038l-8.152-8.153
	c-0.112-0.073-0.225-0.12-0.337-0.141c-0.112-0.019-0.207-0.048-0.281-0.085l15.63-11.243l-0.169-0.11l-7.871-7.871l-0.899-0.508
	c1.274-0.898,2.474-1.751,3.598-2.559c1.125-0.805,2.136-1.508,3.036-2.106l-5.622-5.68c-0.15-0.112-0.3-0.232-0.45-0.365
	c-0.15-0.131-0.301-0.252-0.45-0.364c-4.423-4.534-6.634-9.875-6.634-16.021c0-3.823,0.852-7.411,2.558-10.768
	c1.705-3.354,3.982-6.307,6.831-8.854c3.036-2.812,6.39-4.947,10.063-6.41c3.673-1.461,7.665-2.191,11.976-2.191
	c1.836,0,3.588,0.123,5.256,0.366c1.667,0.243,3.307,0.628,4.919,1.15L231.756,196.288z M303.731,196.288l17.541,7.252l-0.169,0.226
	l8.378,8.32l-5.679,8.208l0.45,0.394c-0.038-0.036-0.066-0.057-0.084-0.057c-0.02,0-0.048-0.018-0.084-0.056l0.787,0.729
	c2.361,2.36,4.112,4.977,5.257,7.843c1.143,2.868,1.714,6.062,1.714,9.586c0,5.322-1.668,9.934-5.003,13.83
	c-0.975,1.125-2.016,2.118-3.12,2.979c-1.104,0.862-2.313,1.667-3.626,2.418l2.867,2.868c2.061,2.062,3.654,4.479,4.779,7.252
	l0.056,0.057c0.938,2.322,1.405,4.629,1.405,6.914c0,3.337-1.031,6.429-3.093,9.276l0.057,0.058
	c-3.636,5.173-9.689,8.171-18.16,8.994c-1.312,0.113-2.754,0.169-4.329,0.169c-8.471,0-19.94-2.68-34.407-8.038l-8.152-8.153
	c-0.112-0.073-0.225-0.12-0.337-0.141c-0.112-0.019-0.207-0.048-0.281-0.085l15.629-11.243l-0.169-0.11l-7.871-7.871l-0.9-0.508
	c1.274-0.898,2.474-1.751,3.598-2.559c1.125-0.805,2.137-1.508,3.036-2.106l-5.622-5.68c-0.15-0.112-0.3-0.232-0.45-0.365
	c-0.15-0.131-0.3-0.252-0.45-0.364c-4.423-4.534-6.634-9.875-6.634-16.021c0-3.823,0.852-7.411,2.558-10.768
	c1.705-3.354,3.982-6.307,6.831-8.854c3.036-2.812,6.39-4.947,10.064-6.41c3.672-1.461,7.664-2.191,11.975-2.191
	c1.836,0,3.588,0.123,5.256,0.366c1.667,0.243,3.307,0.628,4.919,1.15L303.731,196.288z M435.809,180.577l8.552,8.55l12.25,20.679
	c1.455-2.466,2.939-5.003,4.457-7.61c1.516-2.605,3.03-5.215,4.549-7.821c1.515-2.606,3-5.154,4.457-7.642
	c1.455-2.485,2.85-4.86,4.184-7.125l0.303,0.85l8.732,8.73l30.987,86.961l-27.472,3.214l-8.975-8.977l-0.243,0.061l-3.396-8.854
	c-1.698,2.911-3.396,5.812-5.095,8.702c-1.695,2.891-3.214,5.527-4.548,7.913l-8.975-8.976c-0.041,0.081-0.062,0.131-0.062,0.15
	c0,0.021-0.02,0.071-0.06,0.152l-5.641-9.156c-0.932,3.68-1.891,7.376-2.881,11.099c-0.989,3.719-1.89,7.235-2.697,10.551
	l-27.531-7.821l-8.792-8.793l-0.546-0.183l27.834-85.688L435.809,180.577z M537.673,207.561c1.05,0,2.112,0.062,3.183,0.185
	c1.071,0.121,2.153,0.282,3.245,0.483l0.121-1.758l25.35-1.76l0.061,0.426l8.854,8.854l7.641,63.368l-31.23,1.699l-1.455-1.455
	c-0.971,0.32-2.012,0.562-3.122,0.728c-1.112,0.16-2.297,0.263-3.549,0.304c-8.691,0-15.988-2.587-21.892-7.763l0.121,0.121
	c-0.647-0.485-1.314-1.071-2-1.76l-7.217-7.216c-3.073-2.548-5.418-5.729-7.034-9.551c-1.618-3.821-2.426-8.278-2.426-13.372
	c0-4.77,0.828-9.096,2.484-12.978c1.657-3.882,3.942-7.217,6.854-10.008c2.991-2.746,6.337-4.858,10.036-6.336
	C529.396,208.301,533.387,207.561,537.673,207.561z M588.867,269.476h-0.364l-1.698-62.824l31.958-2.242v0.363l3.396,3.456
	c3.231-1.252,6.447-1.88,9.642-1.88c0.565,0,1.161,0.03,1.789,0.091c0.626,0.062,1.225,0.134,1.789,0.212
	c2.83,0.486,5.458,1.467,7.884,2.941c2.425,1.477,4.567,3.427,6.43,5.854l6.852,6.791c1.253,1.253,2.344,2.606,3.275,4.062
	c1.897,3.034,3.354,6.31,4.364,9.825c1.012,3.518,1.599,7.379,1.761,11.582c0.04,0.365,0.061,0.812,0.061,1.335
	c0,0.524,0,0.972,0,1.333c0,9.543-1.758,18.739-5.276,27.592l-29.773-0.241l-2.062-2.062c0,0.321,0.012,0.637,0.03,0.94
	c0.021,0.303,0.031,0.614,0.031,0.938l-31.17,0.851L588.867,269.476z"/>
<path fill="#FFFFFF" d="M53.168,215.382l-10.608,0.356l0.869-19.59l-6.106,0.269l0.089-8.225l20.035-0.758l0.869,8.135l-6.708,0.2
	L53.168,215.382z M60.5,215.516l-0.847-26.608l10.675-1.338l-0.044,10.63c2.229-1.352,4.189-2.027,5.883-2.027
	c0.653,0,1.271,0.104,1.85,0.312c1.753,0.624,3.046,2.155,3.878,4.592c0.653,1.901,0.98,4.159,0.98,6.774v0.668
	c-0.044,2.586-0.372,4.874-0.98,6.863l-9.115-0.089c0.015-0.415,0.141-1.396,0.379-2.94c0.282-1.77,0.46-3.104,0.535-4.013
	c0.059-0.624,0.089-1.188,0.089-1.693c0-2.241-0.542-3.363-1.627-3.363c-0.698,0-1.292,0.274-1.783,0.823
	c-0.49,0.551-0.735,1.211-0.735,1.982l0.223,9.159L60.5,215.516z M93.438,208.518c0.252,0.372,0.646,0.69,1.181,0.959
	c0.772,0.399,1.723,0.603,2.853,0.603c0.029,0,0.052-0.007,0.067-0.021c1.159,0,2.8-0.432,4.925-1.293l2.919,4.681
	c-2.689,1.472-5.468,2.206-8.335,2.206c-0.98,0-1.977-0.089-2.986-0.269c-3.12-0.534-5.557-1.9-7.31-4.101
	c-1.442-1.783-2.162-3.788-2.162-6.018c0-0.608,0.052-1.232,0.156-1.872c0.52-3.017,2.042-5.355,4.568-7.021
	c1.872-1.277,3.915-1.917,6.129-1.917c0.713,0,1.441,0.066,2.184,0.201c2.496,0.432,4.554,1.464,6.173,3.098
	c1.723,1.754,2.667,4.546,2.831,8.38L93.438,208.518z M98.453,201.989c-0.178-0.684-0.557-1.195-1.136-1.538
	c-0.372-0.207-0.795-0.312-1.271-0.312c-0.312,0-0.646,0.044-1.003,0.134c-0.476,0.147-0.91,0.465-1.304,0.947
	c-0.394,0.481-0.613,1.044-0.657,1.683L98.453,201.989z M681.283,197.358l0.914,29.929l-11.396,0.457l1.25-30.12L681.283,197.358z
	 M685.947,227.261l-0.625-22.547l10.24-0.721v2.907c2.241-1.489,4.365-2.234,6.368-2.234c0.417,0,0.825,0.032,1.228,0.098
	c2.179,0.354,3.958,1.554,5.336,3.604c1.362,2.179,2.105,4.839,2.234,7.979c0.017,0.32,0.023,0.643,0.023,0.962
	c0,3.622-0.577,6.893-1.73,9.809l-9.83-0.098c0.016-0.446,0.15-1.515,0.407-3.195c0.306-2.709,0.497-4.553,0.577-5.528
	c0.063-0.656,0.098-1.259,0.098-1.804c0-2.419-0.586-3.629-1.757-3.629c-0.753,0-1.394,0.297-1.923,0.889
	c-0.526,0.595-0.793,1.307-0.793,2.14l0.24,11.082L685.947,227.261z M725.369,204.354c3.396,0,6.289,1.122,8.677,3.364l-6.611,5.771
	c-0.703-0.642-1.367-0.963-1.993-0.963c-0.528,0.019-1.011,0.146-1.442,0.386c-0.946,0.577-1.437,1.499-1.466,2.765
	c0.016,0.771,0.318,1.531,0.914,2.284c0.398,0.497,0.904,0.856,1.514,1.08c0.434,0.13,0.849,0.192,1.25,0.192
	c1.137,0,2.218-0.593,3.245-1.778l5.938,5.312c-2.339,2.996-5.681,4.494-10.021,4.494c-3.446,0-6.322-1.01-8.63-3.028
	c-2.39-2.082-3.581-4.783-3.581-8.102c0-3.349,1.191-6.153,3.581-8.414C719.094,205.476,721.971,204.354,725.369,204.354z"/>
<path fill="#FFFFFF" d="M131.142,257.175l47.507-1.292l-1.293-21.646H153.35l-0.281-6.296h18.665l-0.394-15.519l-18.384,0.45
	l-0.168-6.579l22.826-0.449l-0.843-20.238l-43.627,2.138v69.432L131.142,257.175L131.142,257.175z M232.374,207.476
	c-3.786-1.725-7.871-2.586-12.256-2.586c-7.947,0-14.693,2.644-20.24,7.927c-5.585,4.573-8.377,10.4-8.377,17.484
	c0,5.436,1.855,10.045,5.566,13.83c3.56,2.812,8.301,5.023,14.224,6.635c-3.561,1.573-7.178,3.691-10.851,6.354l10.738,6.187
	c1.874-1.312,3.56-1.97,5.06-1.97c0.637,0,1.217,0.112,1.743,0.338c1.499,0.562,2.249,1.593,2.249,3.093
	c0,0.148-0.02,0.316-0.056,0.506c-0.188,1.836-1.35,3.072-3.486,3.711c-0.825,0.263-1.725,0.395-2.699,0.395
	c-2.136,0-4.648-0.582-7.534-1.743l-12.031,8.716c11.057,4.085,20.67,6.128,28.841,6.128c1.424,0,2.792-0.057,4.104-0.169
	c7.646-0.75,13.043-3.374,16.191-7.871c1.724-2.438,2.586-5.041,2.586-7.813c0-1.875-0.413-3.843-1.237-5.902
	c-2.024-5.098-5.941-8.901-11.75-11.413c4.76-1.312,8.508-3.599,11.244-6.857c2.924-3.448,4.385-7.496,4.385-12.145
	c0-7.385-2.961-13.362-8.883-17.937l5.172-7.478l-11.244-4.667L232.374,207.476z M214.946,222.205
	c1.423-1.61,3.148-2.418,5.172-2.418c2.024,0,3.767,0.808,5.229,2.418c1.423,1.611,2.136,3.562,2.136,5.848
	c0,2.249-0.713,4.181-2.136,5.791c-1.462,1.611-3.205,2.417-5.229,2.417c-2.024,0-3.749-0.806-5.172-2.417
	c-1.462-1.61-2.193-3.542-2.193-5.791C212.753,225.768,213.484,223.817,214.946,222.205z M304.349,207.476
	c-3.786-1.725-7.871-2.586-12.256-2.586c-7.947,0-14.693,2.644-20.24,7.927c-5.585,4.573-8.377,10.4-8.377,17.484
	c0,5.436,1.855,10.045,5.566,13.83c3.56,2.812,8.301,5.023,14.224,6.635c-3.562,1.573-7.178,3.691-10.851,6.354l10.738,6.187
	c1.874-1.312,3.56-1.97,5.06-1.97c0.637,0,1.218,0.112,1.743,0.338c1.499,0.562,2.249,1.593,2.249,3.093
	c0,0.148-0.02,0.316-0.056,0.506c-0.188,1.836-1.35,3.072-3.486,3.711c-0.825,0.263-1.725,0.395-2.699,0.395
	c-2.136,0-4.648-0.582-7.534-1.743l-12.031,8.716c11.057,4.085,20.67,6.128,28.841,6.128c1.424,0,2.792-0.057,4.104-0.169
	c7.646-0.75,13.043-3.374,16.191-7.871c1.724-2.438,2.586-5.041,2.586-7.813c0-1.875-0.413-3.843-1.237-5.902
	c-2.022-5.098-5.939-8.901-11.75-11.413c4.76-1.312,8.508-3.599,11.244-6.857c2.924-3.448,4.385-7.496,4.385-12.145
	c0-7.385-2.961-13.362-8.883-17.937l5.172-7.478l-11.244-4.667L304.349,207.476z M286.921,222.205
	c1.424-1.61,3.148-2.418,5.172-2.418c2.024,0,3.767,0.808,5.229,2.418c1.424,1.611,2.136,3.562,2.136,5.848
	c0,2.249-0.712,4.181-2.136,5.791c-1.462,1.611-3.205,2.417-5.229,2.417c-2.024,0-3.749-0.806-5.172-2.417
	c-1.462-1.61-2.193-3.542-2.193-5.791C284.728,225.768,285.459,223.817,286.921,222.205z M436.052,186.885l-24.802,76.284
	l21.831,6.246l7.58-29.65l14.734,23.771l13.768-23.771l10.43,27.408l21.709-2.548l-27.712-77.74l-18.617,31.896L436.052,186.885z
	 M546.89,211.989c-2.949-0.93-6.022-1.396-9.217-1.396c-7.883,0-14.554,2.588-20.012,7.764c-5.539,4.853-8.31,11.765-8.31,20.738
	c0,9.258,2.771,16.11,8.31,20.559c5.337,4.688,12.007,7.034,20.012,7.034c4.446-0.082,7.862-1.232,10.249-3.457l0.485,3.76
	l25.409-1.396l-6.977-57.669l-19.768,1.396l-0.184,2.365L546.89,211.989L546.89,211.989z M540.038,228.848
	c2.223,0,4.124,0.891,5.7,2.668c1.577,1.738,2.366,4.268,2.366,7.58c0,3.273-0.789,5.802-2.366,7.579
	c-1.576,1.738-3.479,2.607-5.7,2.607c-2.224,0-4.124-0.869-5.7-2.607c-1.577-1.777-2.365-4.306-2.365-7.579
	c0-3.312,0.788-5.842,2.365-7.58C535.914,229.737,537.812,228.848,540.038,228.848z M616.944,265.656l-0.606-27.957
	c0-2.101,0.667-3.9,2.001-5.396c1.334-1.493,2.951-2.241,4.851-2.241c2.951,0,4.429,3.054,4.429,9.154
	c0,1.375-0.082,2.893-0.243,4.549c-0.203,2.468-0.688,7.115-1.456,13.948c-0.646,4.244-0.991,6.935-1.03,8.063l24.803,0.242
	c2.909-7.356,4.365-15.604,4.365-24.741c0-0.81-0.021-1.615-0.06-2.425c-0.324-7.925-2.204-14.637-5.642-20.136
	c-3.477-5.173-7.964-8.206-13.462-9.095c-1.011-0.161-2.042-0.242-3.092-0.242c-5.054,0-10.411,1.879-16.068,5.641v-7.338
	l-25.833,1.818l1.575,56.881L616.944,265.656z"/>
</svg>
