<?xml version="1.0" encoding="utf-8"?>
<!-- Generator: Adobe Illustrator 16.0.0, SVG Export Plug-In . SVG Version: 6.00 Build 0)  -->
<!DOCTYPE svg PUBLIC "-//W3C//DTD SVG 1.1//EN" "http://www.w3.org/Graphics/SVG/1.1/DTD/svg11.dtd">
<svg version="1.1" id="Layer_1" xmlns="http://www.w3.org/2000/svg" xmlns:xlink="http://www.w3.org/1999/xlink" x="0px" y="0px"
	 width="546.48px" height="792px" viewBox="28.8 0 546.48 792" enable-background="new 28.8 0 546.48 792" xml:space="preserve">
<path d="M563.4,198c-3.961-11.88-7.92-23.76-11.881-31.68C496.08,43.56,389.16,0,298.08,0C179.28,0,44.64,79.2,28.8,245.52v55.44
	c7.92,79.2,71.28,162.36,118.8,241.56L302.04,792c31.68-55.44,63.36-110.88,95.04-162.36c7.92-15.84,19.8-31.68,27.72-47.52
	c3.96-7.92,15.84-19.8,19.8-27.72C496.08,463.32,575.28,372.24,575.28,281.16v-35.64C575.28,233.64,563.4,198,563.4,198z
	 M302.04,368.28c-35.64,0-75.24-19.8-95.04-67.32c-3.96-7.92-3.96-23.76-3.96-23.76v-23.76c0-63.36,51.48-91.08,99-91.08
	c55.44,0,99,43.56,99,102.96C405,320.76,357.48,368.28,302.04,368.28L302.04,368.28z"/>
</svg>
