<svg xmlns="http://www.w3.org/2000/svg" width="110.724" height="110.14" viewBox="-1.863 0.344 110.724 110.14">
<path id="Rays" d="M53.5,13.028c-1.104,0-2-0.896-2-2V2.344c0-1.104,0.896-2,2-2s2,0.896,2,2v8.684
	C55.5,12.132,54.604,13.028,53.5,13.028z M36.021,16.743c1.009-0.449,1.463-1.631,1.014-2.641l-3.531-7.933
	c-0.45-1.009-1.631-1.464-2.641-1.014C29.854,5.605,29.4,6.787,29.85,7.796l3.531,7.933c0.332,0.745,1.062,1.187,1.828,1.187
	C35.481,16.917,35.757,16.861,36.021,16.743z M21.565,27.246c0.739-0.821,0.673-2.085-0.148-2.825l-6.453-5.811
	c-0.82-0.738-2.085-0.672-2.825,0.148c-0.739,0.821-0.673,2.085,0.148,2.825l6.453,5.811c0.382,0.344,0.861,0.514,1.338,0.514
	C20.625,27.908,21.17,27.685,21.565,27.246z M12.631,42.721c0.341-1.051-0.234-2.179-1.284-2.521l-8.259-2.684
	c-1.05-0.338-2.179,0.234-2.521,1.284c-0.341,1.051,0.234,2.179,1.284,2.521l8.259,2.684c0.206,0.066,0.414,0.099,0.619,0.099
	C11.572,44.104,12.356,43.565,12.631,42.721z M0.347,63.598l8.636-0.907c1.099-0.115,1.896-1.1,1.78-2.198s-1.104-1.888-2.198-1.78
	l-8.636,0.907c-1.099,0.115-1.896,1.1-1.78,2.198c0.108,1.027,0.976,1.791,1.987,1.791C0.205,63.608,0.276,63.604,0.347,63.598z
	 M8.032,84.561l7.52-4.342c0.957-0.553,1.284-1.776,0.732-2.732s-1.776-1.283-2.732-0.732l-7.52,4.342
	c-0.957,0.553-1.284,1.776-0.732,2.732c0.371,0.642,1.042,1,1.734,1C7.374,84.828,7.717,84.742,8.032,84.561z M23.579,100.585
	l5.104-7.025c0.649-0.894,0.451-2.145-0.442-2.794c-0.893-0.648-2.144-0.45-2.794,0.442l-5.104,7.025
	c-0.649,0.894-0.451,2.145,0.442,2.794c0.355,0.258,0.767,0.382,1.174,0.382C22.578,101.409,23.188,101.123,23.579,100.585z
	 M44.3,108.9l1.806-8.494c0.23-1.081-0.46-2.143-1.54-2.372c-1.08-0.232-2.143,0.459-2.372,1.54l-1.806,8.494
	c-0.23,1.081,0.46,2.143,1.54,2.372c0.14,0.03,0.28,0.044,0.418,0.044C43.27,110.484,44.1,109.841,44.3,108.9z M65.071,110.44
	c1.08-0.229,1.77-1.291,1.54-2.372l-1.806-8.494c-0.229-1.081-1.291-1.776-2.372-1.54c-1.08,0.229-1.77,1.291-1.54,2.372
	l1.806,8.494c0.199,0.94,1.03,1.584,1.954,1.584C64.791,110.484,64.931,110.471,65.071,110.44z M86.214,101.027
	c0.894-0.649,1.092-1.9,0.442-2.794l-5.104-7.024c-0.649-0.893-1.897-1.093-2.794-0.442c-0.894,0.649-1.092,1.9-0.442,2.794
	l5.104,7.024c0.392,0.538,1.001,0.824,1.62,0.824C85.447,101.409,85.858,101.285,86.214,101.027z M101.699,83.828
	c0.552-0.957,0.224-2.18-0.732-2.732l-7.52-4.34c-0.96-0.553-2.18-0.224-2.732,0.732c-0.552,0.957-0.224,2.18,0.732,2.732l7.52,4.34
	c0.315,0.182,0.659,0.268,0.998,0.268C100.656,84.828,101.328,84.47,101.699,83.828z M108.851,61.818
	c0.115-1.099-0.682-2.083-1.78-2.198l-8.635-0.906c-1.112-0.11-2.082,0.682-2.198,1.78c-0.115,1.099,0.682,2.083,1.78,2.198
	l8.635,0.906c0.071,0.007,0.142,0.011,0.211,0.011C107.874,63.609,108.742,62.846,108.851,61.818z M96.891,44.007l8.257-2.685
	c1.051-0.342,1.625-1.471,1.284-2.521c-0.342-1.05-1.468-1.625-2.521-1.284l-8.257,2.685c-1.051,0.342-1.625,1.471-1.284,2.521
	c0.275,0.846,1.059,1.383,1.902,1.383C96.477,44.105,96.686,44.073,96.891,44.007z M88.262,27.395l6.451-5.81
	c0.82-0.739,0.887-2.004,0.147-2.825c-0.74-0.82-2.002-0.888-2.825-0.148l-6.451,5.81c-0.82,0.739-0.887,2.004-0.147,2.825
	c0.396,0.438,0.939,0.662,1.487,0.662C87.4,27.908,87.879,27.739,88.262,27.395z M73.621,15.729l3.529-7.932
	c0.449-1.009-0.005-2.191-1.014-2.64c-1.011-0.449-2.192,0.005-2.641,1.014l-3.529,7.932c-0.449,1.009,0.005,2.191,1.014,2.64
	c0.265,0.118,0.541,0.173,0.812,0.173C72.559,16.916,73.29,16.474,73.621,15.729z"/>
<path id="Body" d="M53.5,22.059c18.715,0,33.942,15.226,33.942,33.941c0,18.716-15.227,33.941-33.942,33.941
	c-18.715,0-33.94-15.226-33.94-33.941C19.559,37.285,34.785,22.059,53.5,22.059 M53.5,18.059c-20.954,0-37.94,16.986-37.94,37.941
	S32.546,93.941,53.5,93.941c20.956,0,37.942-16.986,37.942-37.941S74.455,18.059,53.5,18.059L53.5,18.059z"/>
<path id="Eyes" d="M34.542 38.477c1.61 0 2.917 1.69 2.917 3.78s-1.308 3.78-2.918 3.78-2.917-1.693-2.917-3.78 1.307-3.78 2.917-3.78zm14.583 0c1.61 0 2.917 1.69 2.917 3.78s-1.306 3.78-2.917 3.78-2.917-1.693-2.917-3.78 1.306-3.78 2.917-3.78z"/>
</svg>
