<?xml version="1.0" encoding="UTF-8" standalone="no"?>
<svg width="14px" height="12px" viewBox="0 0 14 12" version="1.1" xmlns="http://www.w3.org/2000/svg" xmlns:xlink="http://www.w3.org/1999/xlink" xmlns:sketch="http://www.bohemiancoding.com/sketch/ns">
    <!-- Generator: Sketch 3.3.3 (12081) - http://www.bohemiancoding.com/sketch -->
    <title>Shape</title>
    <desc>Created with Sketch.</desc>
    <defs></defs>
    <g id="Page-1" stroke="none" stroke-width="1" fill="none" fill-rule="evenodd" sketch:type="MSPage">
        <g id="Desktop" sketch:type="MSArtboardGroup" transform="translate(-518.000000, -1773.000000)" fill="#FFFFFF">
            <g id="Social-Copy" sketch:type="MSLayerGroup" transform="translate(-1.000000, 1638.000000)">
                <g id="Group-Copy-2" transform="translate(177.000000, 18.000000)" sketch:type="MSShapeGroup">
                    <g id="Twitter-Copy-2" transform="translate(339.000000, 113.000000)">
                        <path d="M16.9689242,5.70657085 C16.4597433,5.93239281 15.9120602,6.08510383 15.3375553,6.15388868 C15.9237406,5.80217747 16.3740867,5.24584215 16.5864978,4.58265237 C16.0375168,4.90797443 15.429701,5.14461161 14.7829504,5.27179869 C14.2646847,4.71978946 13.5266535,4.375 12.7098875,4.375 C11.1412469,4.375 9.86980869,5.64643818 9.86980869,7.21507883 C9.86980869,7.43787252 9.89490002,7.65460969 9.94335224,7.86226206 C7.58303692,7.74372717 5.49007402,6.61288694 4.08928571,4.89456355 C3.84486157,5.31419439 3.70469621,5.80174486 3.70469621,6.32260623 C3.70469621,7.30808979 4.20609017,8.1772015 4.96834743,8.68681504 C4.50286003,8.67210633 4.0650596,8.54448664 3.68176793,8.33164295 C3.68133532,8.3433234 3.68133532,8.35543645 3.68133532,8.36754951 C3.68133532,9.7436791 4.66032974,10.8913911 5.95945491,11.1522544 C5.72108729,11.2171457 5.470174,11.2517545 5.21104115,11.2517545 C5.02804749,11.2517545 4.85024515,11.2340175 4.67676889,11.2007066 C5.0379975,12.3289512 6.0870746,13.1500433 7.32996058,13.1729715 C6.35788791,13.9347962 5.13317151,14.3886032 3.80246587,14.3886032 C3.57318304,14.3886032 3.34736108,14.3751923 3.125,14.3488031 C4.38172948,15.1547539 5.87466353,15.625 7.47877812,15.625 C12.7029658,15.625 15.5594838,11.2971784 15.5594838,7.54386176 C15.5594838,7.42056816 15.5568881,7.29813978 15.5512642,7.17657662 C16.1063017,6.77598058 16.5877956,6.27588445 16.9684916,5.70657085 L16.9689242,5.70657085 Z" id="Shape"></path>
                    </g>
                </g>
            </g>
        </g>
    </g>
</svg>