<?xml version="1.0" encoding="utf-8"?>
<!-- Generator: Adobe Illustrator 17.1.0, SVG Export Plug-In . SVG Version: 6.00 Build 0)  -->
<!DOCTYPE svg PUBLIC "-//W3C//DTD SVG 1.1//EN" "http://www.w3.org/Graphics/SVG/1.1/DTD/svg11.dtd">
<svg version="1.1" id="Layer_1" xmlns:sketch="http://www.bohemiancoding.com/sketch/ns"
	 xmlns="http://www.w3.org/2000/svg" xmlns:xlink="http://www.w3.org/1999/xlink" x="0px" y="0px" viewBox="0 0 22 22"
	 enable-background="new 0 0 22 22" xml:space="preserve">
<path id="Shape" fill="#FFFFFF" d="M18.3,0H3.7C1.6,0,0,1.6,0,3.7v14.7c0,2,1.6,3.7,3.7,3.7h14.7c2,0,3.7-1.6,3.7-3.7V3.7
	C22,1.6,20.4,0,18.3,0L18.3,0z M7,9.6H15c0.1,0.4,0.2,0.9,0.2,1.4c0,2.3-1.9,4.2-4.2,4.2S6.8,13.3,6.8,11C6.8,10.5,6.9,10.1,7,9.6
	L7,9.6z M19.2,9.6v8.2c0,0.8-0.6,1.4-1.4,1.4H4.1c-0.8,0-1.4-0.6-1.4-1.4V9.6h2.2c-0.1,0.4-0.2,0.9-0.2,1.4c0,3.4,2.8,6.3,6.3,6.3
	s6.3-2.8,6.3-6.3c0-0.5-0.1-0.9-0.2-1.4L19.2,9.6L19.2,9.6z M19.2,4.8c0,0.4-0.3,0.7-0.7,0.7h-1.4c-0.4,0-0.7-0.3-0.7-0.7V3.4
	c0-0.4,0.3-0.7,0.7-0.7h1.4c0.4,0,0.7,0.3,0.7,0.7V4.8L19.2,4.8z"/>
</svg>
