<?xml version="1.0" encoding="UTF-8" standalone="no"?>
<svg width="185px" height="30px" viewBox="0 0 185 30" version="1.1" xmlns="http://www.w3.org/2000/svg" xmlns:xlink="http://www.w3.org/1999/xlink" xmlns:sketch="http://www.bohemiancoding.com/sketch/ns">
    <!-- Generator: Sketch 3.3.2 (12043) - http://www.bohemiancoding.com/sketch -->
    <title>Logo</title>
    <desc>Created with Sketch.</desc>
    <defs></defs>
    <g id="Page-1" stroke="none" stroke-width="1" fill="none" fill-rule="evenodd" sketch:type="MSPage">
        <g id="iPhone-5/5S/5C" sketch:type="MSArtboardGroup" transform="translate(-67.000000, -20.000000)" fill="#FFFFFF">
            <g id="Top-Bar" sketch:type="MSLayerGroup" transform="translate(-59.000000, -124.000000)">
                <g id="Logo" transform="translate(126.000000, 144.000000)" sketch:type="MSShapeGroup">
                    <path d="M4.95496689,9.30061224 L1.70395942,9.40959184 L1.9702797,3.41295918 L0.0989890094,3.495 L0.126264619,0.97744898 L6.26634141,0.745408163 L6.53266169,3.23571429 L4.47687755,3.29693878 L4.95496689,9.30061224 L4.95496689,9.30061224 Z" id="Shape"></path>
                    <path d="M7.20198675,9.34163265 L6.94240876,1.19602041 L10.2139496,0.786734694 L10.200465,4.04081633 C10.8835811,3.6272449 11.4842574,3.42030612 12.0034134,3.42030612 C12.2035367,3.42030612 12.3929336,3.45214286 12.5703783,3.51581633 C13.1076159,3.70683673 13.5038784,4.1755102 13.7588594,4.92122449 C13.9589827,5.50346939 14.0591975,6.19469388 14.0591975,6.99520408 L14.0591975,7.19969388 C14.045713,7.99132653 13.9451916,8.69173469 13.7588594,9.30091837 L10.9654079,9.27367347 C10.9700049,9.14663265 11.0086198,8.84632653 11.0815591,8.37336735 C11.167983,7.83183673 11.2225342,7.42285714 11.2455192,7.14520408 C11.2636008,6.95418367 11.2727948,6.78153061 11.2727948,6.62663265 C11.2727948,5.94030612 11.1066894,5.59683673 10.7741722,5.59683673 C10.5602579,5.59683673 10.3782161,5.68102041 10.2277406,5.84908163 C10.0775715,6.01744898 10.002487,6.21979592 10.002487,6.45612245 L10.0708292,9.25989796 L7.20198675,9.34163265 L7.20198675,9.34163265 Z" id="Shape"></path>
                    <path d="M17.296414,7.19938776 C17.3736438,7.31326531 17.494392,7.41091837 17.6583521,7.49295918 C17.894945,7.61540816 18.1863957,7.6772449 18.532704,7.6772449 C18.5415915,7.6772449 18.5486403,7.67510204 18.5532373,7.6705102 C18.9084331,7.6705102 19.4113463,7.53857143 20.0625898,7.27469388 L20.9571685,8.70765306 C20.1330774,9.15795918 19.2814041,9.38295918 18.4027617,9.38295918 C18.1024236,9.38295918 17.7968754,9.35571429 17.4876497,9.30091837 C16.531471,9.13714286 15.7846097,8.71897959 15.2473721,8.0455102 C14.805446,7.49969388 14.5847893,6.88591837 14.5847893,6.20357143 C14.5847893,6.01714286 14.6007257,5.82612245 14.6325983,5.6305102 C14.7919614,4.7072449 15.258405,3.99091837 16.0325419,3.48122449 C16.6062491,3.09030612 17.2323623,2.89438776 17.9108814,2.89438776 C18.1293927,2.89438776 18.3525011,2.91489796 18.5802064,2.95591837 C19.3451494,3.08816327 19.9758595,3.40408163 20.4720304,3.90428571 C21.000074,4.44122449 21.2893793,5.29591837 21.33964,6.46959184 L17.296414,7.19938776 L17.296414,7.19938776 Z M18.8333486,5.20040816 C18.7787974,4.99132653 18.6626462,4.83459184 18.4852015,4.72959184 C18.3711956,4.66622449 18.2415598,4.63408163 18.0956813,4.63408163 C18.0000634,4.63408163 17.8977033,4.64755102 17.7882943,4.67510204 C17.6424158,4.72040816 17.5094089,4.81744898 17.3886607,4.965 C17.2679125,5.11255102 17.2007961,5.28459184 17.1873115,5.48020408 L18.8333486,5.20040816 L18.8333486,5.20040816 Z" id="Shape"></path>
                    <path d="M168.3374,3.78306122 L168.617511,12.9446939 L165.125314,13.0845918 L165.508398,3.86418367 L168.3374,3.78306122 L168.3374,3.78306122 Z" id="Shape"></path>
                    <path d="M169.766764,12.9373469 L169.575222,6.03520408 L172.713449,5.8144898 L172.713449,6.70469388 C173.400856,6.24857143 174.051793,6.0205102 174.665647,6.0205102 C174.793444,6.0205102 174.918483,6.03030612 175.041377,6.05020408 C175.709169,6.15826531 176.254375,6.52591837 176.676687,7.15377551 C177.094096,7.82081633 177.322414,8.63510204 177.361642,9.59632653 C177.366546,9.69459184 177.368997,9.79285714 177.368997,9.89081633 C177.368997,10.9995918 177.192166,12.0006122 176.838502,12.8932653 L173.82562,12.8635714 C173.830523,12.7267347 173.872203,12.400102 173.950965,11.8852041 C174.044131,11.0559184 174.10328,10.4917347 174.127797,10.1929592 C174.147104,9.99183673 174.157218,9.80755102 174.157218,9.64071429 C174.157218,8.90020408 173.977934,8.52979592 173.619367,8.52979592 C173.388597,8.52979592 173.192152,8.62071429 173.03003,8.80193878 C172.868215,8.98377551 172.787002,9.20173469 172.787002,9.45673469 L172.860554,12.8491837 L169.766764,12.9373469 L169.766764,12.9373469 Z" id="Shape"></path>
                    <path d="M181.848327,5.92469388 C182.88909,5.92469388 183.775701,6.26816327 184.507545,6.95479592 L182.481489,8.72112245 C182.265429,8.52489796 182.061935,8.42663265 181.870086,8.42663265 C181.708271,8.43214286 181.56086,8.47132653 181.42816,8.5444898 C181.138242,8.72112245 180.988379,9.00336735 180.978878,9.39091837 C180.983782,9.62663265 181.076948,9.85959184 181.25899,10.090102 C181.381577,10.2422449 181.536649,10.352449 181.722982,10.4207143 C181.855988,10.4605102 181.983172,10.4797959 182.106066,10.4797959 C182.45452,10.4797959 182.785811,10.2982653 183.100553,9.93520408 L184.920357,11.5616327 C184.20353,12.4787755 183.179315,12.9373469 181.848633,12.9373469 C180.792546,12.9373469 179.911146,12.6284694 179.203819,12.0104082 C178.471974,11.3730612 178.106358,10.5459184 178.106358,9.5305102 C178.106358,8.50530612 178.471974,7.64663265 179.203819,6.95479592 C179.925243,6.26816327 180.80695,5.92469388 181.848327,5.92469388 L181.848327,5.92469388 Z" id="Shape"></path>
                    <path d="M77.9497076,6.88040816 C76.7894216,6.35265306 75.5375018,6.08877551 74.1936417,6.08877551 C71.7581443,6.08877551 69.6907144,6.89785714 67.990739,8.51540816 C66.2791179,9.91530612 65.4234606,11.6993878 65.4234606,13.8679592 C65.4234606,15.5317347 65.9919579,16.9426531 67.1292588,18.1016327 C68.2202832,18.9621429 69.6732457,19.6392857 71.4884529,20.132449 C70.3968156,20.6142857 69.288629,21.2626531 68.1629738,22.0772449 L71.453822,23.9709184 C72.0281422,23.5689796 72.5448464,23.3681633 73.0045477,23.3681633 C73.1997675,23.3681633 73.3778251,23.402449 73.5387206,23.4716327 C73.9981154,23.6436735 74.227966,23.9589796 74.227966,24.4181633 C74.227966,24.4637755 74.2218367,24.5152041 74.2108039,24.5730612 C74.153188,25.135102 73.7970727,25.5134694 73.1424581,25.7090816 C72.8896224,25.7892857 72.6138016,25.8296939 72.3153022,25.8296939 C71.6606876,25.8296939 70.8908412,25.6515306 70.0063759,25.2961224 L66.3192652,27.9639796 C69.7078766,29.2144898 72.6539489,29.839898 75.158095,29.839898 C75.5945047,29.839898 76.0137523,29.8227551 76.4158377,29.7881633 C78.7590883,29.5585714 80.4130936,28.7553061 81.3778533,27.3786735 C81.9062033,26.6326531 82.1703783,25.8355102 82.1703783,24.9866327 C82.1703783,24.4126531 82.0438072,23.8102041 81.791278,23.1795918 C81.1709877,21.6192857 79.9705545,20.4547959 78.1902846,19.6858163 C79.64907,19.2841837 80.7977103,18.5843878 81.6362054,17.5864286 C82.5323165,16.5309184 82.9800655,15.2917347 82.9800655,13.8688776 C82.9800655,11.6084694 82.0726152,9.77846939 80.2577145,8.37826531 L81.8427645,6.08938776 L78.3968437,4.66071429 L77.9497076,6.88040816 Z M72.6085917,11.3892857 C73.0450014,10.8964286 73.5733514,10.6490816 74.1936417,10.6490816 C74.8139319,10.6490816 75.3481048,10.8964286 75.7961603,11.3892857 C76.2325701,11.8827551 76.450775,12.4796939 76.450775,13.1794898 C76.450775,13.8679592 76.2325701,14.4590816 75.7961603,14.9522449 C75.3481048,15.4454082 74.8139319,15.6921429 74.1936417,15.6921429 C73.5733514,15.6921429 73.0446949,15.4454082 72.6085917,14.9522449 C72.1605361,14.4590816 71.9365084,13.8679592 71.9365084,13.1794898 C71.9365084,12.48 72.1605361,11.8827551 72.6085917,11.3892857 Z" id="Path"></path>
                    <path d="M57.4163837,6.88040816 C56.2560976,6.35265306 55.0041778,6.08877551 53.6603177,6.08877551 C51.2248203,6.08877551 49.1573904,6.89785714 47.4574151,8.51540816 C45.745794,9.91530612 44.8901367,11.6993878 44.8901367,13.8679592 C44.8901367,15.5317347 45.4586339,16.9426531 46.5959349,18.1016327 C47.6869593,18.9621429 49.1399218,19.6392857 50.9551289,20.132449 C49.8634916,20.6142857 48.7553051,21.2626531 47.6296499,22.0772449 L50.9204981,23.9709184 C51.4948182,23.5689796 52.0115225,23.3681633 52.4712238,23.3681633 C52.6664436,23.3681633 52.8445012,23.402449 53.0053966,23.4716327 C53.4647915,23.6436735 53.6946421,23.9589796 53.6946421,24.4181633 C53.6946421,24.4637755 53.6885128,24.5152041 53.6774799,24.5730612 C53.619864,25.135102 53.2637488,25.5134694 52.6091341,25.7090816 C52.3562984,25.7892857 52.0804777,25.8296939 51.7819783,25.8296939 C51.1273637,25.8296939 50.3575173,25.6515306 49.473052,25.2961224 L45.7859412,27.9639796 C49.1745526,29.2144898 52.1206249,29.839898 54.624771,29.839898 C55.0611808,29.839898 55.4804284,29.8227551 55.8825137,29.7881633 C58.2257644,29.5585714 59.8797696,28.7553061 60.8445294,27.3786735 C61.3728794,26.6326531 61.6370544,25.8355102 61.6370544,24.9866327 C61.6370544,24.4126531 61.5104833,23.8102041 61.2579541,23.1795918 C60.6376638,21.6192857 59.4372305,20.4547959 57.6569607,19.6858163 C59.1157461,19.2841837 60.2643864,18.5843878 61.1028815,17.5864286 C61.9989925,16.5309184 62.4467416,15.2917347 62.4467416,13.8688776 C62.4467416,11.6084694 61.5392912,9.77846939 59.7243906,8.37826531 L61.3094406,6.08938776 L57.8635198,4.66071429 L57.4163837,6.88040816 Z M52.0752677,11.3892857 C52.5116775,10.8964286 53.0400275,10.6490816 53.6603177,10.6490816 C54.280608,10.6490816 54.8147809,10.8964286 55.2628364,11.3892857 C55.6992462,11.8827551 55.917451,12.4796939 55.917451,13.1794898 C55.917451,13.8679592 55.6992462,14.4590816 55.2628364,14.9522449 C54.8147809,15.4454082 54.280608,15.6921429 53.6603177,15.6921429 C53.0400275,15.6921429 52.511371,15.4454082 52.0752677,14.9522449 C51.6272122,14.4590816 51.4031844,13.8679592 51.4031844,13.1794898 C51.4031844,12.48 51.6272122,11.8827551 52.0752677,11.3892857 Z" id="Path-Copy-2"></path>
                    <path d="M95.633803,0.577040816 L88.0327955,23.9292857 L94.723288,25.8413265 L97.0463118,16.7644898 L101.562417,24.0410204 L105.781249,16.7644898 L108.977705,25.155 L115.630809,24.375 L107.137981,0.577040816 L101.432475,10.3411224 L95.633803,0.577040816 L95.633803,0.577040816 Z" id="Path"></path>
                    <path d="M128.682648,8.26163265 C127.778262,7.9772449 126.836487,7.83459184 125.857936,7.83459184 C123.442053,7.83459184 121.397608,8.62653061 119.724908,10.2110204 C118.027385,11.6963265 117.178776,13.8122449 117.178776,16.5596939 C117.178776,19.3934694 118.027385,21.4913265 119.724908,22.8529592 C121.360526,24.2880612 123.404664,25.0062245 125.857936,25.0062245 C127.220491,24.9811224 128.267384,24.6287755 128.998922,23.9479592 L129.147559,25.0986735 L136.934592,24.6716327 L134.796981,7.01785714 L128.738731,7.44489796 L128.682954,8.16887755 L128.682954,8.26163265 L128.682648,8.26163265 Z M126.582732,13.4228571 C127.264009,13.4228571 127.846604,13.6953061 128.329597,14.2395918 C128.812896,14.7719388 129.054699,15.5458163 129.054699,16.56 C129.054699,17.5622449 128.812896,18.3361224 128.329597,18.8804082 C127.846604,19.412449 127.264009,19.6784694 126.582732,19.6784694 C125.901148,19.6784694 125.31886,19.412449 124.835867,18.8804082 C124.352568,18.3361224 124.111072,17.5622449 124.111072,16.56 C124.111072,15.5458163 124.352568,14.7719388 124.835867,14.2395918 C125.31886,13.695 125.900842,13.4228571 126.582732,13.4228571 Z" id="Path"></path>
                    <path d="M149.538988,24.6906122 L149.353269,16.1323469 C149.353269,15.4894898 149.557683,14.9384694 149.96651,14.4805102 C150.375338,14.0231633 150.870896,13.7941837 151.453184,13.7941837 C152.35757,13.7941837 152.809916,14.7287755 152.809916,16.5967347 C152.809916,17.0176531 152.784786,17.4820408 152.735445,17.9889796 C152.673232,18.7444898 152.524595,20.1673469 152.289228,22.2590816 C152.090943,23.5582653 151.985519,24.3817347 151.973566,24.7276531 L159.574574,24.8017347 C160.466394,22.5495918 160.912611,20.025 160.912611,17.2279592 C160.912611,16.9803061 160.906175,16.7332653 160.894223,16.4856122 C160.794927,14.059898 160.218768,12.0052041 159.165746,10.3218367 C158.100159,8.73826531 156.725039,7.80979592 155.04008,7.53765306 C154.730242,7.48836735 154.414274,7.46357143 154.092483,7.46357143 C152.543596,7.46357143 150.901849,8.03877551 149.16755,9.19010204 L149.16755,6.94377551 L141.250574,7.50061224 L141.733873,24.9131633 L149.538988,24.6906122 L149.538988,24.6906122 Z" id="Path-Copy-3"></path>
                    <path d="M27.3191278,22.0943878 L41.8784803,21.6988776 L41.4822178,15.072551 L34.1251585,15.072551 L34.0390411,13.1452041 L39.7592574,13.1452041 L39.6385092,8.39479592 L34.0044103,8.53255102 L33.9529238,6.51857143 L40.9483514,6.38112245 L40.6899993,0.185510204 L27.3197407,0.839693878 L27.3197407,22.0943878 L27.3191278,22.0943878 Z" id="Path-Copy"></path>
                </g>
            </g>
        </g>
    </g>
</svg>