<svg xmlns="http://www.w3.org/2000/svg" width="225.77" height="69.67" viewBox="0 0 225.766 69.666" style="enable-background:new 0 0 225.766 69.666"><path d="m101.17 19.589h-11.03l-8.02 12.378-7.95-12.378h-11.485l13.635 19.641-14.88 21.603h11.24l9.282-14.192 9.138 14.192h11.55l-14.95-21.693z"/><path d="m225.77 40.541c0-5.857-1.697-11.1-5.787-15.422-4.01-4.088-9.717-6.635-15.426-6.635-12.266 0-21.443 9.796-21.443 21.986 0 12.11 9.639 21.519 21.674 21.519 8.561 0 16.197-5.324 19.441-13.19h-9.799c-2.314 3.395-5.861 4.936-9.951 4.936-5.861 0-11.1-4.163-12.34-9.873h33.32l.309-3.321m-33.709-3.931c1.158-5.398 6.475-9.717 12.04-9.717 6.09 0 11.336 3.779 12.955 9.717h-24.992"/><path d="m140.25 19.45v41.525h10.38l-.01-41.517z"/><path d="m174.44 7.116h-10.33v12.159h-7.35v8.398h1.98v.011h.49l.31.013h4.52v17.673h.01v15.463h10.39l-.01-33.14 7.56-.007v-8.415h-7.57z"/><path d="m130.13 39.515c-1.266-.929-2.672-1.674-4.219-2.236-1.548-.562-3.08-1.013-4.599-1.351-2.869-.675-5.05-1.335-6.54-1.982-1.491-.646-2.236-1.758-2.236-3.333 0-1.575.675-2.701 2.025-3.375s2.84-1.012 4.473-1.012c1.856 0 3.571.436 5.147 1.308 1.574.873 2.812 1.898 3.712 3.08l5.549-4.913c-1.632-2.08-2.829-3.514-5.591-5.103-2.567-1.478-5.64-1.966-8.564-1.966-2.025 0-3.995.253-5.907.759-1.913.506-3.628 1.28-5.147 2.321-1.519 1.042-2.743 2.377-3.671 4.01-.928 1.632-1.392 3.573-1.392 5.823 0 1.913.337 3.516 1.013 4.809.675 1.295 1.574 2.378 2.7 3.249 1.125.873 2.405 1.575 3.839 2.109 1.435.535 2.912.971 4.43 1.308 3.093.732 5.413 1.464 6.962 2.194 1.546.731 2.32 1.94 2.32 3.628 0 .901-.198 1.66-.591 2.279-.395.619-.915 1.111-1.562 1.477-.646.366-1.35.633-2.109.802-.759.168-1.505.253-2.236.253-2.193 0-4.191-.478-5.991-1.435-1.801-.956-3.263-2.165-4.388-3.628l-5.872 5.252c1.764 2.579 4.529 5.099 7.512 6.251 2.981 1.152 5.165 1.407 8.316 1.407 2.194 0 4.317-.24 6.371-.717 2.054-.478 3.853-1.252 5.4-2.321 1.547-1.067 2.785-2.46 3.713-4.177.929-1.715 1.393-3.811 1.393-6.286 0-1.969-.395-3.642-1.181-5.02-.787-1.38-1.814-2.534-3.079-3.461"/><circle cx="145.44" cy="6.236" r="6.236"/><path d="m32.936 26.15c-5.56-.001-10.885 4.32-12.04 9.723l25 .007c-1.622-5.941-6.869-9.728-12.961-9.73"/><path d="m33.3 9.204c-16.696-.005-30.24 13.525-30.24 30.22-.001 5.04 1.251 9.791 3.431 13.97l-5.94 10.442c0 0-1.141 1.954-.145 3.151 1.01 1.213 3.01.45 3.01.45l11.767-3.838c5.05 3.788 11.3 6.06 18.1 6.06 16.696.004 30.23-13.525 30.24-30.22.006-16.698-13.526-30.23-30.22-30.24m21 33.927l-33.34-.01c1.233 5.713 6.478 9.884 12.346 9.886 4.089 0 7.64-1.545 9.957-4.938l9.799.002c-3.243 7.873-10.885 13.194-19.45 13.192-12.04-.003-21.683-9.422-21.68-21.538.003-12.191 9.189-21.991 21.461-21.987 5.71.001 11.421 2.548 15.431 6.636 4.09 4.327 5.787 9.578 5.785 15.44l-.312 3.317"/></svg> 