<?xml version="1.0" encoding="utf-8"?>
<!-- Generator: Adobe Illustrator 17.1.0, SVG Export Plug-In . SVG Version: 6.00 Build 0)  -->
<!DOCTYPE svg PUBLIC "-//W3C//DTD SVG 1.1//EN" "http://www.w3.org/Graphics/SVG/1.1/DTD/svg11.dtd">
<svg version="1.1" id="Layer_1" xmlns:sketch="http://www.bohemiancoding.com/sketch/ns"
	 xmlns="http://www.w3.org/2000/svg" xmlns:xlink="http://www.w3.org/1999/xlink" x="0px" y="0px" viewBox="0 0 14 20"
	 enable-background="new 0 0 14 20" xml:space="preserve">
<path id="Shape" sketch:type="MSShapeGroup" fill="#003DA5" d="M13.5,5c-0.1-0.3-0.2-0.6-0.3-0.8C11.8,1.1,9.1,0,6.8,0
	C3.8,0,0.4,2,0,6.2v0.9c0,0,0,0.4,0,0.5c0.2,2,1.8,4.1,3,6.1c1.3,2.1,2.6,4.2,3.9,6.3c0.8-1.4,1.6-2.8,2.4-4.1
	c0.2-0.4,0.5-0.8,0.7-1.2c0.1-0.2,0.4-0.5,0.5-0.7c1.3-2.3,3.3-4.6,3.3-6.9V6.2C13.8,5.9,13.5,5,13.5,5L13.5,5z M6.9,9.3
	C6,9.3,5,8.8,4.5,7.6C4.4,7.4,4.4,7,4.4,7V6.4c0-1.6,1.3-2.3,2.5-2.3c1.4,0,2.5,1.1,2.5,2.6C9.5,8.1,8.3,9.3,6.9,9.3L6.9,9.3z"/>
</svg>
