<?xml version="1.0" encoding="utf-8"?>
<!-- Generator: Adobe Illustrator 17.1.0, SVG Export Plug-In . SVG Version: 6.00 Build 0)  -->
<!DOCTYPE svg PUBLIC "-//W3C//DTD SVG 1.1//EN" "http://www.w3.org/Graphics/SVG/1.1/DTD/svg11.dtd">
<svg version="1.1" id="Layer_1" xmlns:sketch="http://www.bohemiancoding.com/sketch/ns"
	 xmlns="http://www.w3.org/2000/svg" xmlns:xlink="http://www.w3.org/1999/xlink" x="0px" y="0px" viewBox="0 0 19 20"
	 enable-background="new 0 0 19 20" xml:space="preserve">
<path id="Shape" sketch:type="MSShapeGroup" fill="#003DA5" d="M16,3h-0.9v3.5h-3.2V3H6.1v3.5H2.9V3H2C0.9,3,0,3.9,0,5v13
	c0,1.1,0.9,2,2,2h14c1.1,0,2-0.9,2-2V5C18,3.8,17.1,3,16,3L16,3z M16,18H2V8.2h14V18L16,18z M3.6,4.7V0.9C3.6,0.4,4,0,4.5,0
	s0.9,0.4,0.9,0.9v3.8c0,0.5-0.4,0.9-0.9,0.9S3.6,5.2,3.6,4.7L3.6,4.7z M12.7,4.7V0.9c0-0.5,0.4-0.9,0.9-0.9c0.5,0,0.9,0.4,0.9,0.9
	v3.8c0,0.5-0.4,0.9-0.9,0.9C13.1,5.6,12.7,5.2,12.7,4.7L12.7,4.7z"/>
</svg>
