<svg xmlns="http://www.w3.org/2000/svg"><symbol viewBox="0 0 13 13" id="arrow-right"><title>Triangle 1</title><path d="M0 13V0l13 6.5L0 13z" fill="#041E41" fill-rule="evenodd"/></symbol><symbol viewBox="0 73.895 579.789 644.211" id="calendar-icon"><title>calendar-icon</title><path d="M515.368 170.526h-28.99v112.737H383.307V170.526H196.484v112.737H93.41V170.526H64.42c-35.43 0-64.42 28.99-64.42 64.42v418.738c0 35.432 28.99 64.42 64.42 64.42H515.37c35.432 0 64.42-28.988 64.42-64.42V234.947c0-38.652-28.988-64.42-64.42-64.42zm0 483.16H64.42V338.02H515.37v315.665zm-399.41-428.402v-122.4c0-16.105 12.884-28.99 28.99-28.99 16.104 0 28.99 12.884 28.99 28.99v122.4c0 16.105-12.885 28.99-28.99 28.99-16.106 0-28.99-12.884-28.99-28.99zm293.115 0v-122.4c0-16.105 12.885-28.99 28.99-28.99 16.104 0 28.99 12.884 28.99 28.99v122.4c0 16.105-12.886 28.99-28.99 28.99-16.105 0-28.99-12.884-28.99-28.99z"/></symbol><symbol viewBox="0 128 768 768" id="external"><title>external</title><path d="M640 768H128V257.906L256 256V128H0v768h768V576H640v192zM384 128l128 128-192 192 128 128 192-192 128 128V128H384z"/></symbol><symbol viewBox="0 0 11 20" id="facebook-icon"><title>facebook-icon</title><path fill="#FFF" d="M6.9 0C4.8 0 3.1 1.7 3.1 3.8v2.3H0v3.1h3.1V20h3.1V9.2h3.5l.8-3.1H6.2V3.8c0-.4.3-.8.8-.8h3.8V0H6.9z"/></symbol><symbol viewBox="0 0 22 22" id="instagram-icon"><title>instagram-icon</title><path fill="#FFF" d="M18.3 0H3.7C1.6 0 0 1.6 0 3.7v14.7c0 2 1.6 3.7 3.7 3.7h14.7c2 0 3.7-1.6 3.7-3.7V3.7C22 1.6 20.4 0 18.3 0zM7 9.6h8c.1.4.2.9.2 1.4 0 2.3-1.9 4.2-4.2 4.2S6.8 13.3 6.8 11c0-.5.1-.9.2-1.4zm12.2 0v8.2c0 .8-.6 1.4-1.4 1.4H4.1c-.8 0-1.4-.6-1.4-1.4V9.6h2.2c-.1.4-.2.9-.2 1.4 0 3.4 2.8 6.3 6.3 6.3s6.3-2.8 6.3-6.3c0-.5-.1-.9-.2-1.4h2.1zm0-4.8c0 .4-.3.7-.7.7h-1.4c-.4 0-.7-.3-.7-.7V3.4c0-.4.3-.7.7-.7h1.4c.4 0 .7.3.7.7v1.4z"/></symbol><symbol viewBox="0 0 248 41" id="logo-main"><title>Logo</title><g fill="#FFF" fill-rule="evenodd"><path d="M6.607 12.4l-4.335.146.355-7.995-2.495.11.036-3.357 8.187-.31.355 3.32-2.74.083.637 8.005zM9.603 12.456l-.346-10.86 4.362-.547-.02 4.338c.91-.552 1.712-.828 2.405-.828.266 0 .52.043.756.128.717.254 1.245.88 1.585 1.874.267.776.4 1.698.4 2.765V9.6c-.017 1.055-.15 1.99-.4 2.8l-3.724-.035c.007-.17.058-.57.155-1.2.116-.723.188-1.268.22-1.638.023-.255.035-.485.035-.69 0-.917-.22-1.375-.664-1.375-.286 0-.528.113-.73.337-.2.223-.3.493-.3.808l.092 3.74-3.825.108zM23.062 9.6c.103.15.264.28.482.39.316.164.705.246 1.166.246.012 0 .022-.003.028-.01.473 0 1.144-.175 2.012-.526l1.193 1.91c-1.1.6-2.234.9-3.406.9-.4 0-.808-.036-1.22-.11-1.275-.217-2.27-.775-2.987-1.673-.59-.727-.884-1.546-.884-2.456 0-.247.022-.502.064-.763.213-1.23.835-2.186 1.867-2.865.765-.522 1.6-.783 2.504-.783.293 0 .59.027.894.08 1.02.178 1.86.6 2.522 1.266.704.716 1.09 1.855 1.157 3.42l-5.39.973zm2.05-2.666c-.074-.28-.228-.488-.465-.628-.152-.084-.325-.127-.52-.127-.127 0-.263.017-.41.053-.194.06-.37.19-.532.387-.16.197-.25.426-.27.687l2.196-.373zM224.45 5.044l.373 12.216-4.656.186.51-12.294 3.773-.108zM226.356 17.25l-.256-9.203 4.185-.294V8.94c.916-.61 1.784-.913 2.603-.913.17 0 .337.013.5.04.89.144 1.618.634 2.18 1.47.557.89.862 1.976.914 3.258.007.13.01.262.01.393 0 1.478-.236 2.813-.707 4.003l-4.018-.04c.007-.18.063-.617.168-1.303.124-1.106.203-1.858.235-2.256.026-.268.04-.513.04-.736 0-.987-.24-1.48-.718-1.48-.307 0-.57.12-.785.362-.216.242-.324.533-.324.873l.098 4.522-4.124.118zM242.464 7.9c1.388 0 2.57.458 3.546 1.373l-2.7 2.355c-.29-.26-.56-.392-.817-.392-.215.007-.412.06-.59.157-.385.235-.585.61-.598 1.128.007.316.13.626.374.933.162.203.37.35.617.44.178.054.347.08.51.08.466 0 .907-.242 1.327-.726l2.426 2.17c-.955 1.22-2.32 1.833-4.095 1.833-1.408 0-2.583-.412-3.527-1.236-.975-.85-1.463-1.953-1.463-3.307 0-1.367.488-2.51 1.463-3.434.962-.915 2.138-1.373 3.526-1.373zM103.933 9.174c-1.547-.704-3.216-1.056-5.008-1.056-3.247 0-6.004 1.08-8.27 3.236C88.37 13.22 87.23 15.6 87.23 18.49c0 2.22.76 4.1 2.276 5.646 1.454 1.147 3.392 2.05 5.812 2.707-1.456.643-2.933 1.507-4.434 2.593l4.388 2.525c.766-.535 1.454-.802 2.067-.802.26 0 .497.045.712.138.612.23.92.65.92 1.262 0 .06-.01.13-.024.206-.077.75-.552 1.254-1.425 1.515-.337.106-.705.16-1.103.16-.872 0-1.9-.238-3.078-.712l-4.916 3.557c4.518 1.668 8.446 2.502 11.785 2.502.583 0 1.142-.023 1.678-.07 3.124-.306 5.33-1.377 6.616-3.212.704-.995 1.057-2.058 1.057-3.19 0-.765-.168-1.568-.505-2.41-.827-2.08-2.428-3.632-4.8-4.657 1.944-.536 3.475-1.47 4.593-2.8 1.195-1.407 1.792-3.06 1.792-4.956 0-3.014-1.21-5.454-3.63-7.32l2.114-3.053-4.595-1.906-.597 2.96zm-7.122 6.012c.583-.657 1.288-.987 2.115-.987.827 0 1.54.33 2.137.986.58.658.872 1.454.872 2.387 0 .918-.29 1.706-.872 2.363-.598.658-1.31.987-2.137.987s-1.532-.33-2.114-.987c-.596-.657-.895-1.445-.895-2.363 0-.933.3-1.73.896-2.387zM76.555 9.174c-1.547-.704-3.216-1.056-5.008-1.056-3.247 0-6.004 1.08-8.27 3.236-2.283 1.866-3.423 4.245-3.423 7.137 0 2.22.758 4.1 2.274 5.646 1.455 1.147 3.392 2.05 5.812 2.707-1.455.643-2.933 1.507-4.434 2.593l4.388 2.525c.766-.535 1.455-.802 2.068-.802.26 0 .497.045.712.138.612.23.92.65.92 1.262 0 .06-.01.13-.024.206-.077.75-.552 1.254-1.424 1.515-.338.106-.705.16-1.103.16-.873 0-1.9-.238-3.08-.712l-4.915 3.557c4.518 1.668 8.446 2.502 11.785 2.502.582 0 1.14-.023 1.677-.07 3.124-.306 5.33-1.377 6.616-3.212.705-.995 1.057-2.058 1.057-3.19 0-.765-.17-1.568-.506-2.41-.827-2.08-2.427-3.632-4.8-4.657 1.944-.536 3.476-1.47 4.594-2.8 1.195-1.407 1.792-3.06 1.792-4.956 0-3.014-1.21-5.454-3.63-7.32l2.114-3.053-4.595-1.906-.595 2.96zm-7.12 6.012c.58-.657 1.285-.987 2.112-.987.827 0 1.54.33 2.137.986.582.658.873 1.454.873 2.387 0 .918-.29 1.706-.873 2.363-.598.658-1.31.987-2.137.987s-1.532-.33-2.113-.987c-.598-.657-.896-1.445-.896-2.363 0-.933.298-1.73.896-2.387zM127.512.77l-10.135 31.136 8.92 2.55 3.098-12.103 6.022 9.702 5.625-9.702 4.262 11.187 8.87-1.04L142.85.77l-7.607 13.018-7.73-13.02zM171.577 11.016c-1.206-.38-2.462-.57-3.766-.57-3.22 0-5.947 1.056-8.177 3.17-2.263 1.98-3.395 4.8-3.395 8.464 0 3.778 1.132 6.575 3.395 8.39 2.18 1.914 4.907 2.872 8.178 2.872 1.817-.034 3.213-.504 4.19-1.41l.197 1.533 10.382-.57-2.85-23.538-8.078.57-.075.965v.124zm-2.8 6.88c.908 0 1.685.364 2.33 1.09.644.71.966 1.742.966 3.094 0 1.336-.322 2.368-.967 3.094-.644.71-1.42 1.064-2.33 1.064-.908 0-1.684-.355-2.328-1.064-.645-.726-.967-1.758-.967-3.094 0-1.352.323-2.384.968-3.094.644-.726 1.42-1.09 2.33-1.09zM199.385 32.92l-.247-11.41c0-.857.272-1.592.817-2.203.545-.61 1.206-.915 1.983-.915 1.205 0 1.81 1.246 1.81 3.737 0 .56-.035 1.18-.1 1.855-.084 1.008-.282 2.905-.596 5.694-.264 1.73-.405 2.83-.42 3.29l10.134.1c1.19-3.004 1.784-6.37 1.784-10.1 0-.33-.008-.66-.024-.99-.133-3.233-.9-5.973-2.305-8.218-1.42-2.11-3.253-3.35-5.5-3.712-.413-.066-.834-.1-1.263-.1-2.066 0-4.255.768-6.567 2.303V9.258L188.334 10l.644 23.218 10.407-.297zM36.426 29.46l19.412-.528-.528-8.835H45.5l-.115-2.57h7.627l-.16-6.334-7.513.184-.07-2.686L54.6 8.51l-.345-8.26-17.827.872v28.34z"/></g></symbol><symbol viewBox="0 0 185 30" id="logo-type"><title>Logo</title><g fill="#FFF" fill-rule="evenodd"><path d="M4.955 9.3l-3.25.11.265-5.997-1.87.082L.125.977l6.14-.232.267 2.49-2.056.062.478 6.004zM7.202 9.342l-.26-8.146 3.272-.41-.014 3.255c.684-.413 1.284-.62 1.803-.62.2 0 .39.032.567.096.538.19.934.66 1.19 1.405.2.583.3 1.275.3 2.075V7.2c-.014.79-.115 1.492-.3 2.1l-2.795-.026c.005-.127.044-.428.117-.9.086-.542.14-.95.164-1.23.018-.19.027-.362.027-.517 0-.687-.166-1.03-.5-1.03-.213 0-.395.084-.545.252-.15.167-.226.37-.226.606l.07 2.804-2.87.082zM17.296 7.2c.078.113.198.21.362.293.237.122.528.184.875.184.01 0 .016-.002.02-.006.355 0 .858-.13 1.51-.395l.894 1.433c-.824.45-1.676.675-2.554.675-.3 0-.606-.027-.915-.082-.957-.163-1.703-.58-2.24-1.254-.443-.546-.663-1.16-.663-1.842 0-.187.016-.378.048-.573.16-.923.625-1.64 1.4-2.15.573-.39 1.2-.586 1.878-.586.22 0 .443.02.67.062.765.132 1.396.448 1.892.948.528.537.817 1.392.868 2.566l-4.044.73zm1.537-2c-.054-.21-.17-.365-.348-.47-.114-.064-.243-.096-.39-.096-.095 0-.197.014-.307.04-.146.046-.28.143-.4.29-.12.15-.187.32-.2.516l1.645-.28zM168.337 3.783l.28 9.162-3.492.14.383-9.22 2.83-.082zM169.767 12.937l-.192-6.902 3.138-.22v.89c.688-.456 1.34-.684 1.953-.684.127 0 .252.01.375.03.67.108 1.214.476 1.637 1.104.417.667.645 1.48.685 2.442.005.1.007.197.007.295 0 1.11-.178 2.11-.53 3.003l-3.014-.03c.005-.136.046-.463.125-.978.094-.83.153-1.393.178-1.692.02-.2.03-.385.03-.552 0-.74-.18-1.11-.54-1.11-.23 0-.426.09-.588.272-.162.182-.243.4-.243.655l.074 3.392-3.093.087zM181.848 5.925c1.04 0 1.928.343 2.66 1.03L182.48 8.72c-.215-.195-.418-.293-.61-.293-.162.005-.31.044-.442.117-.29.177-.44.46-.45.847.006.237.1.47.28.7.124.152.28.262.465.33.133.04.26.06.383.06.35 0 .68-.182.995-.545l1.82 1.627c-.716.917-1.74 1.375-3.07 1.375-1.057 0-1.94-.31-2.646-.927-.732-.637-1.098-1.464-1.098-2.48 0-1.025.366-1.883 1.098-2.575.72-.687 1.603-1.03 2.644-1.03zM77.95 6.88c-1.16-.527-2.412-.79-3.756-.79-2.436 0-4.503.808-6.203 2.425-1.71 1.4-2.567 3.184-2.567 5.353 0 1.664.57 3.075 1.706 4.234 1.09.86 2.543 1.537 4.358 2.03-1.09.482-2.2 1.13-3.325 1.945l3.29 1.894c.575-.4 1.092-.602 1.552-.602.195 0 .373.034.534.104.458.172.688.487.688.946 0 .046-.006.097-.017.155-.057.562-.413.94-1.068 1.136-.252.08-.528.12-.827.12-.654 0-1.424-.178-2.31-.534l-3.686 2.668c3.388 1.25 6.334 1.876 8.838 1.876.437 0 .856-.017 1.258-.052 2.343-.23 3.997-1.033 4.962-2.41.528-.745.792-1.542.792-2.39 0-.575-.126-1.178-.38-1.808-.62-1.56-1.82-2.725-3.6-3.494 1.46-.402 2.608-1.102 3.446-2.1.896-1.055 1.344-2.294 1.344-3.717 0-2.262-.907-4.092-2.722-5.492l1.585-2.29-3.446-1.427-.447 2.22zm-5.34 4.51c.435-.494.963-.74 1.584-.74.62 0 1.154.246 1.602.74.437.493.655 1.09.655 1.79 0 .688-.217 1.28-.654 1.772-.448.493-.982.74-1.602.74-.62 0-1.15-.247-1.585-.74-.45-.493-.673-1.084-.673-1.773 0-.7.224-1.297.672-1.79zM57.416 6.88c-1.16-.527-2.412-.79-3.756-.79-2.435 0-4.503.808-6.203 2.425-1.71 1.4-2.567 3.184-2.567 5.353 0 1.664.57 3.075 1.706 4.234 1.09.86 2.544 1.537 4.36 2.03-1.093.482-2.2 1.13-3.326 1.945l3.29 1.894c.575-.4 1.092-.602 1.55-.602.196 0 .375.034.535.104.46.172.69.487.69.946 0 .046-.006.097-.018.155-.057.562-.413.94-1.068 1.136-.254.08-.53.12-.828.12-.655 0-1.424-.178-2.31-.534l-3.686 2.668c3.39 1.25 6.335 1.876 8.84 1.876.435 0 .854-.017 1.257-.052 2.343-.23 3.997-1.033 4.962-2.41.528-.745.792-1.542.792-2.39 0-.575-.127-1.178-.38-1.808-.62-1.56-1.82-2.725-3.6-3.494 1.46-.402 2.607-1.102 3.446-2.1.896-1.055 1.344-2.294 1.344-3.717 0-2.262-.908-4.092-2.723-5.492l1.585-2.29-3.446-1.427-.448 2.22zm-5.34 4.51c.436-.494.964-.74 1.584-.74.62 0 1.155.246 1.603.74.436.493.654 1.09.654 1.79 0 .688-.218 1.28-.654 1.772-.448.493-.982.74-1.603.74-.62 0-1.15-.247-1.585-.74-.448-.493-.672-1.084-.672-1.773 0-.7.224-1.297.672-1.79zM95.634.577l-7.6 23.352 6.69 1.91 2.322-9.076 4.516 7.277 4.22-7.276 3.196 8.39 6.653-.78L107.14.578l-5.706 9.764L95.634.578zM128.683 8.262c-.905-.285-1.847-.427-2.825-.427-2.416 0-4.46.792-6.133 2.376-1.698 1.486-2.546 3.602-2.546 6.35 0 2.833.847 4.93 2.545 6.293 1.636 1.435 3.68 2.153 6.133 2.153 1.362-.025 2.41-.377 3.14-1.058l.15 1.15 7.787-.426-2.138-17.654-6.058.427-.057.724v.092zm-2.1 5.16c.68 0 1.264.273 1.747.818.483.532.725 1.306.725 2.32 0 1.002-.242 1.776-.725 2.32-.483.532-1.066.798-1.747.798-.682 0-1.264-.266-1.747-.798-.483-.544-.725-1.318-.725-2.32 0-1.014.243-1.788.726-2.32.483-.545 1.065-.817 1.747-.817zM149.54 24.69l-.187-8.558c0-.643.205-1.194.614-1.65.408-.46.904-.688 1.486-.688.905 0 1.357.935 1.357 2.803 0 .42-.025.885-.075 1.392-.062.754-.21 2.177-.446 4.27-.2 1.298-.304 2.122-.316 2.468l7.6.074c.892-2.252 1.34-4.777 1.34-7.574 0-.248-.008-.495-.02-.742-.1-2.426-.675-4.48-1.728-6.164-1.066-1.584-2.44-2.512-4.126-2.784-.31-.05-.626-.074-.948-.074-1.548 0-3.19.575-4.924 1.726V6.944l-7.917.557.484 17.413 7.805-.222zM27.32 22.094l14.558-.395-.396-6.627h-7.357l-.086-1.928h5.72l-.12-4.75-5.636.138-.05-2.014 6.994-.14L40.69.187 27.32.84v21.254z"/></g></symbol><symbol viewBox="0 0 225.766 69.666" id="logo_exsite"><title>logo_exsite</title><path d="M101.17 19.59H90.14l-8.02 12.377-7.95-12.378H62.685L76.32 39.23 61.44 60.833h11.24l9.282-14.192L91.1 60.834h11.55L87.7 39.14zM225.77 40.54c0-5.856-1.697-11.1-5.787-15.42-4.01-4.09-9.717-6.636-15.426-6.636-12.266 0-21.443 9.796-21.443 21.986 0 12.11 9.64 21.52 21.674 21.52 8.56 0 16.197-5.325 19.44-13.19h-9.798c-2.314 3.394-5.86 4.935-9.95 4.935-5.862 0-11.1-4.163-12.34-9.873h33.32l.308-3.32m-33.71-3.932c1.16-5.398 6.476-9.717 12.04-9.717 6.09 0 11.337 3.78 12.956 9.717h-24.992"/><path d="M140.25 19.45v41.525h10.38l-.01-41.517zM174.44 7.116h-10.33v12.16h-7.35v8.397h1.98v.01h.49l.31.014h4.52V45.37h.01v15.463h10.39l-.01-33.14 7.56-.007V19.27h-7.57zM130.13 39.515c-1.266-.93-2.672-1.674-4.22-2.236-1.547-.563-3.08-1.014-4.598-1.352-2.87-.675-5.05-1.335-6.54-1.982-1.49-.646-2.236-1.758-2.236-3.333 0-1.575.675-2.7 2.025-3.375s2.84-1.012 4.474-1.012c1.856 0 3.57.436 5.147 1.308 1.575.873 2.813 1.898 3.713 3.08l5.55-4.913c-1.633-2.08-2.83-3.513-5.592-5.102-2.566-1.478-5.64-1.966-8.563-1.966-2.025 0-3.995.253-5.907.76-1.913.505-3.628 1.28-5.147 2.32-1.52 1.042-2.743 2.377-3.67 4.01-.93 1.632-1.393 3.573-1.393 5.823 0 1.913.337 3.516 1.013 4.81.675 1.294 1.574 2.377 2.7 3.248 1.125.873 2.405 1.575 3.84 2.11 1.434.534 2.91.97 4.43 1.307 3.092.732 5.412 1.464 6.96 2.194 1.547.73 2.32 1.94 2.32 3.628 0 .9-.197 1.66-.59 2.28-.395.618-.915 1.11-1.562 1.476-.645.366-1.35.633-2.108.802-.76.168-1.505.253-2.236.253-2.193 0-4.19-.478-5.99-1.435-1.802-.956-3.264-2.165-4.39-3.628l-5.87 5.252c1.763 2.58 4.528 5.1 7.51 6.25 2.982 1.153 5.166 1.408 8.317 1.408 2.194 0 4.317-.24 6.37-.717 2.055-.478 3.854-1.252 5.4-2.32 1.548-1.068 2.786-2.46 3.714-4.178.93-1.715 1.393-3.81 1.393-6.286 0-1.97-.395-3.643-1.18-5.02-.788-1.38-1.815-2.535-3.08-3.462"/><circle cx="145.44" cy="6.236" r="6.236"/><path d="M32.936 26.15c-5.56 0-10.885 4.32-12.04 9.723l25 .007c-1.622-5.94-6.87-9.728-12.96-9.73M33.3 9.204C16.604 9.2 3.06 22.73 3.06 39.424c0 5.04 1.25 9.79 3.43 13.97L.55 63.836s-1.14 1.954-.144 3.15c1.01 1.214 3.01.45 3.01.45L15.183 63.6c5.05 3.787 11.3 6.06 18.1 6.06 16.696.003 30.23-13.526 30.24-30.22.006-16.7-13.526-30.23-30.22-30.24m21 33.926l-33.34-.01C22.196 48.83 27.44 53 33.31 53.002c4.088 0 7.64-1.545 9.956-4.938l9.8.002C49.82 55.94 42.18 61.26 33.615 61.258c-12.04-.003-21.684-9.422-21.68-21.538.002-12.19 9.188-21.99 21.46-21.987 5.71 0 11.42 2.548 15.43 6.636 4.09 4.326 5.788 9.577 5.786 15.44l-.312 3.316"/></symbol><symbol viewBox="28.8 0 546.48 792" id="maps-icon"><title>maps-icon</title><path d="M563.4 198c-3.96-11.88-7.92-23.76-11.88-31.68C496.08 43.56 389.16 0 298.08 0 179.28 0 44.64 79.2 28.8 245.52v55.44c7.92 79.2 71.28 162.36 118.8 241.56L302.04 792c31.68-55.44 63.36-110.88 95.04-162.36 7.92-15.84 19.8-31.68 27.72-47.52 3.96-7.92 15.84-19.8 19.8-27.72 51.48-91.08 130.68-182.16 130.68-273.24v-35.64c0-11.88-11.88-47.52-11.88-47.52zM302.04 368.28c-35.64 0-75.24-19.8-95.04-67.32-3.96-7.92-3.96-23.76-3.96-23.76v-23.76c0-63.36 51.48-91.08 99-91.08 55.44 0 99 43.56 99 102.96 3.96 55.44-43.56 102.96-99 102.96z"/></symbol><symbol viewBox="-1.863 0.344 110.724 110.14" id="sun-icon"><title>sun-icon</title><path d="M53.5 13.028c-1.104 0-2-.896-2-2V2.344c0-1.104.896-2 2-2s2 .896 2 2v8.684c0 1.104-.896 2-2 2zm-17.48 3.715c1.01-.45 1.464-1.63 1.015-2.64l-3.53-7.934c-.45-1.01-1.632-1.465-2.642-1.015-1.01.45-1.463 1.632-1.013 2.64l3.53 7.934c.333.744 1.063 1.186 1.83 1.186.27 0 .547-.055.81-.173zM21.566 27.246c.74-.82.673-2.085-.148-2.825l-6.453-5.81c-.82-.738-2.085-.672-2.825.148-.74.82-.674 2.085.147 2.825l6.453 5.81c.382.345.86.515 1.338.515.547 0 1.092-.223 1.487-.662zM12.63 42.72c.342-1.05-.233-2.178-1.283-2.52l-8.26-2.684C2.038 37.178.91 37.75.568 38.8c-.34 1.05.234 2.18 1.284 2.52l8.26 2.685c.206.066.414.1.62.1.842 0 1.626-.54 1.9-1.384zM.348 63.6l8.636-.907c1.1-.114 1.896-1.1 1.78-2.197s-1.104-1.888-2.198-1.78l-8.636.907c-1.1.115-1.897 1.1-1.78 2.198.107 1.027.975 1.79 1.986 1.79.07 0 .14-.004.21-.01zM8.032 84.56l7.52-4.34c.957-.554 1.284-1.777.732-2.733s-1.776-1.283-2.732-.732l-7.52 4.342c-.957.553-1.284 1.776-.732 2.732.37.64 1.042 1 1.734 1 .34-.002.683-.088.998-.27zm15.547 16.025l5.103-7.025c.65-.894.45-2.145-.442-2.794-.892-.648-2.143-.45-2.793.442l-5.104 7.025c-.65.894-.45 2.145.442 2.794.355.258.767.382 1.174.382.618 0 1.228-.287 1.62-.825zM44.3 108.9l1.806-8.494c.23-1.08-.46-2.143-1.54-2.372-1.08-.232-2.143.46-2.372 1.54l-1.806 8.494c-.23 1.08.46 2.143 1.54 2.372.14.03.28.044.418.044.924 0 1.754-.643 1.954-1.584zm20.77 1.54c1.08-.23 1.77-1.29 1.54-2.372l-1.805-8.494c-.23-1.08-1.29-1.776-2.372-1.54-1.08.23-1.77 1.29-1.54 2.372L62.7 108.9c.198.94 1.03 1.584 1.953 1.584.138 0 .278-.013.418-.044zm21.144-9.413c.894-.65 1.092-1.9.442-2.794l-5.104-7.024c-.65-.894-1.897-1.094-2.794-.443-.894.65-1.092 1.9-.442 2.794l5.104 7.025c.392.538 1 .824 1.62.824.407 0 .818-.125 1.174-.383zm15.485-17.2c.55-.956.223-2.18-.733-2.73l-7.52-4.34c-.96-.554-2.18-.225-2.732.73-.552.958-.224 2.18.732 2.733l7.52 4.34c.315.182.66.268.998.268.69 0 1.363-.358 1.734-1zm7.15-22.01c.116-1.098-.68-2.082-1.78-2.197l-8.634-.906c-1.112-.11-2.082.682-2.198 1.78-.115 1.1.682 2.083 1.78 2.198l8.635.906c.07.007.142.01.21.01 1.01 0 1.88-.762 1.988-1.79zm-11.96-17.81l8.258-2.685c1.05-.342 1.625-1.47 1.284-2.52-.342-1.05-1.468-1.626-2.52-1.285l-8.258 2.685c-1.05.342-1.625 1.47-1.284 2.52.275.847 1.06 1.384 1.902 1.384.205 0 .414-.033.62-.1zm-8.628-16.612l6.45-5.81c.82-.74.888-2.004.148-2.825-.74-.82-2.002-.888-2.825-.148l-6.45 5.81c-.82.74-.888 2.004-.148 2.825.396.438.94.662 1.487.662.476-.002.955-.17 1.338-.515zM73.622 15.73l3.528-7.933c.45-1.01-.005-2.19-1.014-2.64-1.01-.45-2.192.005-2.64 1.014l-3.53 7.933c-.45 1.01.005 2.19 1.014 2.64.265.118.54.173.812.173.767 0 1.498-.442 1.83-1.187zM53.5 22.06c18.715 0 33.942 15.225 33.942 33.94 0 18.716-15.227 33.94-33.942 33.94S19.56 74.716 19.56 56c0-18.715 15.225-33.94 33.94-33.94m0-4c-20.954 0-37.94 16.985-37.94 37.94S32.546 93.94 53.5 93.94c20.956 0 37.942-16.985 37.942-37.94S74.455 18.06 53.5 18.06z"/><path d="M34.542 38.477c1.61 0 2.917 1.69 2.917 3.78s-1.31 3.78-2.92 3.78-2.916-1.693-2.916-3.78 1.307-3.78 2.917-3.78zm14.583 0c1.61 0 2.917 1.69 2.917 3.78s-1.306 3.78-2.917 3.78-2.917-1.693-2.917-3.78 1.306-3.78 2.917-3.78z"/></symbol><symbol viewBox="0 0 14 12" id="twitter-icon"><title>Shape</title><path d="M13.97 1.707c-.51.225-1.058.378-1.632.447.586-.352 1.036-.908 1.248-1.57-.548.324-1.156.56-1.803.688C11.265.72 10.527.375 9.71.375c-1.57 0-2.84 1.27-2.84 2.84 0 .223.025.44.073.647C4.583 3.744 2.49 2.612 1.09.895c-.245.42-.385.907-.385 1.428 0 .985.5 1.854 1.263 2.364-.465-.015-.903-.143-1.286-.355v.036c0 1.376.978 2.523 2.277 2.784-.24.065-.49.1-.75.1-.182 0-.36-.018-.533-.05.36 1.127 1.41 1.948 2.653 1.97-.972.763-2.197 1.217-3.528 1.217-.23 0-.455-.015-.677-.04 1.257.805 2.75 1.275 4.354 1.275 5.223 0 8.08-4.328 8.08-8.08 0-.124-.003-.247-.01-.368.556-.4 1.038-.9 1.418-1.47z" fill="#FFF" fill-rule="evenodd"/></symbol></svg>