<svg xmlns="http://www.w3.org/2000/svg"><symbol viewBox="0 0 13 13" id="arrow-right"><title>Triangle 1</title><path d="M0 13V0l13 6.5L0 13z" fill="#041E41" fill-rule="evenodd"/></symbol><symbol viewBox="0 0 326.591 326.592" id="bacon-cross"><title>bacon-cross</title><path d="M148.732 256.894c-4.06 6.86-7.056 12.933-9.826 18.576-8.802 17.938-15.755 32.106-47.813 48.974-9.012 4.74-14.784.453-16.848-1.61-3.86-3.86-5.455-9.918-7.143-16.33-1.606-6.102-3.428-13.02-6.924-16.516-4.183-4.182-7.264-4.685-11.93-5.443-5.58-.908-12.523-2.04-20.126-9.642-3.02-3.02-5.97-5.077-8.57-6.89-2.142-1.494-4.165-2.903-5.868-4.607-7.35-7.35-4.35-15.788-.916-22.318 20.6-39.16 27.15-45.464 48.857-66.352 2.802-2.697 5.812-5.595 9.116-8.815 3.457 3.735 7.308 7.085 11.664 9.577-3.807 3.723-7.224 7.013-10.378 10.047-20.896 20.108-26.512 25.513-45.982 62.526-1.443 2.742-1.78 4.104-1.856 4.624.03.03.063.066.103.105.766.764 2.19 1.757 3.84 2.907 2.958 2.062 6.64 4.628 10.6 8.588 4.18 4.183 7.263 4.685 11.93 5.443 5.58.908 12.523 2.04 20.126 9.644 6.363 6.362 8.835 15.755 10.823 23.303.703 2.673 1.694 6.44 2.598 8.433 27.646-14.563 32.762-24.99 41.234-42.255 3.375-6.878 7.304-14.865 13.248-24.295 3.915 3.583 6.91 8.013 10.042 12.326zm-33.786-31.957c-4.235 6.973-7.805 14.993-11.292 22.86-4.804 10.832-9.77 22.034-15.087 26.347-3.217 2.61-3.708 7.334-1.1 10.55.168.206.343.4.527.585 2.683 2.68 7.013 2.955 10.023.514 8.116-6.586 13.572-18.89 19.348-31.918 2.503-5.645 5.055-11.367 7.776-16.5-3.117-4.36-6.88-8.223-10.194-12.44zm-21.642-24.44c-1.86-2.374-4.298-5.233-5.537-8.31-6.067 8.082-10.71 18.55-15.227 28.738-4.803 10.833-9.77 22.035-15.086 26.348-3.216 2.61-3.708 7.334-1.1 10.55.168.207.344.4.528.585 2.683 2.682 7.012 2.956 10.023.515 8.116-6.586 13.572-18.89 19.348-31.917 3.416-7.704 6.912-15.583 10.824-21.864-1.27-1.512-2.527-3.052-3.773-4.644zM215.76 95.406c8.562-11.04 16.452-23.433 24.187-38.238 1.918-3.67.495-8.2-3.175-10.12-3.672-1.918-8.202-.497-10.12 3.175-6.64 12.71-13.318 23.476-20.484 33.1 3.167 4.032 6.387 8.048 9.593 12.083zm97.148-32.22c-1.704-1.702-3.726-3.112-5.868-4.605-2.6-1.813-5.55-3.87-8.57-6.89-7.603-7.603-14.546-8.733-20.125-9.642-4.666-.76-7.748-1.262-11.93-5.444-3.497-3.495-5.318-10.413-6.925-16.516-1.688-6.412-3.282-12.47-7.144-16.33-2.063-2.062-7.835-6.35-16.848-1.61-29.342 15.44-36.49 30.848-44.058 47.16-3.16 6.813-6.405 13.766-11.455 21.332 1.276 5.05 4.23 10.697 8.14 12.335.41.172.777.384 1.107.62 7.634-10.364 11.907-19.55 15.815-27.974 7.295-15.725 12.566-27.09 37.338-40.145.902 1.994 1.894 5.76 2.598 8.432 1.987 7.548 4.46 16.94 10.822 23.304 7.604 7.605 14.548 8.735 20.127 9.644 4.666.76 7.748 1.262 11.93 5.443 3.96 3.96 7.64 6.525 10.6 8.588 1.65 1.15 3.074 2.144 3.84 2.908l.102.106c-.078.52-.414 1.88-1.856 4.623-19.47 37.014-25.087 42.418-45.982 62.526-3.33 3.202-6.936 6.672-10.996 10.648 4.897 1.8 9.44 4.457 13.683 7.61 2.757-2.68 5.313-5.14 7.714-7.452 21.707-20.888 28.26-27.192 48.856-66.352 3.434-6.53 6.435-14.968-.915-22.318zm-45.024 10.73c-3.67-1.916-8.202-.495-10.12 3.177-8.234 15.762-16.53 28.532-25.74 39.845.194.28.396.555.59.835 2.34 3.403 6.038 7.337 8.55 11.563 10.818-12.79 20.472-27.257 29.897-45.298 1.917-3.67.498-8.2-3.176-10.12zm.127 233.126c1.814-2.6 3.87-5.55 6.89-8.57 7.605-7.603 8.735-14.547 9.644-20.126.76-4.667 1.262-7.748 5.443-11.93 3.496-3.497 10.414-5.318 16.516-6.925 6.412-1.69 12.47-3.283 16.33-7.145 2.063-2.063 6.35-7.835 1.61-16.848-16.867-32.06-31.035-39.01-48.974-47.813-10.43-5.117-22.247-10.916-37.96-22.987-21.982-16.89-28.307-28.33-35.63-41.576-6.395-11.57-13.645-24.687-31.634-42.676-7.466-7.466-13.27-13.498-18.39-18.818-20.888-21.707-27.192-28.26-66.352-48.856-6.53-3.436-14.968-6.437-22.32.914-1.703 1.704-3.112 3.726-4.606 5.868-1.813 2.6-3.87 5.55-6.89 8.57-7.602 7.603-8.733 14.546-9.64 20.125-.76 4.666-1.263 7.748-5.445 11.93-3.495 3.497-10.413 5.318-16.516 6.925-6.412 1.688-12.47 3.282-16.33 7.144-2.063 2.063-6.35 7.835-1.61 16.848 15.438 29.342 30.847 36.49 47.16 44.058 11.93 5.534 24.268 11.257 39.625 26.614 18.39 18.388 25.33 29.326 32.676 40.906 7.46 11.758 15.176 23.916 34.735 43.477 7.467 7.465 13.27 13.495 18.39 18.817 20.89 21.707 27.192 28.26 66.353 48.858 6.53 3.434 14.968 6.434 22.318-.916 1.704-1.705 3.114-3.728 4.607-5.87zm-19.94-6.493c-37.015-19.47-42.42-25.087-62.527-45.982-5.167-5.37-11.024-11.456-18.592-19.024-18.387-18.388-25.327-29.325-32.675-40.905-7.46-11.758-15.176-23.916-34.736-43.475-17.24-17.238-31.414-23.813-43.92-29.615-15.724-7.295-27.09-12.566-40.145-37.338 1.994-.902 5.76-1.894 8.432-2.598 7.548-1.988 16.94-4.46 23.304-10.823 7.605-7.604 8.735-14.548 9.643-20.127.76-4.666 1.262-7.748 5.444-11.93 3.96-3.96 6.525-7.64 8.588-10.6 1.15-1.65 2.144-3.074 2.908-3.84l.106-.102c.52.078 1.88.414 4.623 1.856 37.014 19.47 42.418 25.086 62.526 45.982 5.166 5.37 11.023 11.457 18.59 19.024 16.492 16.492 22.91 28.1 29.114 39.325 7.795 14.103 15.157 27.423 39.62 46.217 16.896 12.982 29.978 19.4 40.488 24.56 17.264 8.47 27.69 13.587 42.255 41.232-1.993.903-5.76 1.896-8.433 2.6-7.548 1.986-16.94 4.46-23.303 10.822-7.603 7.603-8.734 14.547-9.643 20.126-.76 4.667-1.26 7.748-5.443 11.93-3.96 3.96-6.526 7.642-8.588 10.6-1.15 1.65-2.144 3.075-2.91 3.84l-.104.103c-.52-.08-1.88-.415-4.623-1.858zm10.338-30.838c-.184.184-.378.358-.585.526-3.217 2.608-7.94 2.117-10.55-1.1-4.312-5.316-15.515-10.282-26.35-15.086-12.56-5.57-25.552-11.33-33.966-19.718-16.517-15.952-31.935-33.307-45.83-51.583l-.084-.114C112.806 144 92.013 121.77 50.22 99.94c-3.67-1.918-5.092-6.448-3.174-10.12 1.92-3.67 6.45-5.093 10.12-3.175 44.144 23.06 66.955 47.423 95.945 87.083 13.435 17.665 28.343 34.44 44.31 49.857.033.03.063.062.095.093 6.44 6.44 18.157 11.635 29.49 16.66 13.026 5.775 25.33 11.23 31.917 19.348 2.442 3.01 2.167 7.34-.514 10.023zm26.87-31.113c-.184.184-.38.36-.585.527-3.216 2.608-7.94 2.117-10.55-1.1-4.312-5.316-15.515-10.283-26.348-15.087-12.562-5.57-25.55-11.328-33.967-19.715-16.517-15.954-31.937-33.308-45.83-51.585l-.086-.113c-28.236-38.637-49.03-60.866-90.82-82.697-3.672-1.918-5.094-6.45-3.176-10.12 1.92-3.674 6.45-5.093 10.12-3.176 44.145 23.062 66.956 47.424 95.945 87.084 13.436 17.665 28.343 34.44 44.312 49.858l.094.092c6.44 6.44 18.158 11.635 29.49 16.66 13.026 5.776 25.33 11.232 31.917 19.348 2.44 3.012 2.166 7.342-.515 10.025z"/></symbol><symbol viewBox="0 73.895 579.789 644.211" id="calendar-icon"><title>calendar-icon</title><path d="M515.368 170.526h-28.99v112.737H383.307V170.526H196.484v112.737H93.41V170.526H64.42c-35.43 0-64.42 28.99-64.42 64.42v418.738c0 35.432 28.99 64.42 64.42 64.42H515.37c35.432 0 64.42-28.988 64.42-64.42V234.947c0-38.652-28.988-64.42-64.42-64.42zm0 483.16H64.42V338.02H515.37v315.665zm-399.41-428.402v-122.4c0-16.105 12.884-28.99 28.99-28.99 16.104 0 28.99 12.884 28.99 28.99v122.4c0 16.105-12.885 28.99-28.99 28.99-16.106 0-28.99-12.884-28.99-28.99zm293.115 0v-122.4c0-16.105 12.885-28.99 28.99-28.99 16.104 0 28.99 12.884 28.99 28.99v122.4c0 16.105-12.886 28.99-28.99 28.99-16.105 0-28.99-12.884-28.99-28.99z"/></symbol><symbol viewBox="-51.499 37.499 714.9 573" id="care-icon"><title>care-icon</title><path d="M306.03 610.493c-.423 0-.848-.002-1.273-.007-.364.004-.727.005-1.092.005-34.188 0-66.248-13.23-90.272-37.25l-.113-.115L28.292 386.668C-10.295 348.03-31.544 296.69-31.544 242.09c0-54.645 21.285-106.025 59.935-144.675 38.635-38.634 90.01-59.91 144.66-59.91 49.3 0 95.933 17.314 132.952 49.062 37.02-31.748 83.653-49.063 132.95-49.063 54.65 0 106.026 21.277 144.66 59.91 79.783 79.784 79.783 209.6 0 289.384l-.072.072-187.395 186.44c-24.01 23.96-56.028 37.183-90.114 37.183zm-1.213-80.013l1.214.013c12.747 0 24.696-4.92 33.646-13.852l187.43-186.472c48.527-48.597 48.507-127.613-.063-176.184-23.524-23.524-54.81-36.48-88.09-36.48-32.122 0-62.38 12.066-85.6 34.054-14.5 20.548-30.048 30.554-47.43 30.558h-.132c-17.38-.05-32.858-10.08-47.214-30.625-23.21-21.942-53.44-33.985-85.526-33.985-33.282 0-64.567 12.956-88.09 36.48-48.584 48.582-48.584 127.63 0 176.213l.11.112 184.944 186.41c8.91 8.88 20.858 13.77 33.654 13.77l1.15-.01z"/></symbol><symbol viewBox="0 0 326.59 326.592" id="egg-cross"><title>egg-cross</title><path d="M163.294 326.194c-38.757 0-70.968-12.065-93.15-34.893-22.093-22.73-33.77-55.707-33.77-95.36 0-40.864 12.187-88.888 31.808-125.332C92.558 25.332 126.336.398 163.294.398c36.96 0 70.738 24.934 95.113 70.21 19.62 36.444 31.81 84.468 31.81 125.33 0 39.655-11.678 72.63-33.77 95.363-22.183 22.83-54.395 34.894-93.153 34.894zm0-301.797c-62.827 0-102.92 101.6-102.92 171.542 0 67.525 37.513 106.254 102.92 106.254 65.408 0 102.922-38.73 102.922-106.255 0-69.944-40.093-171.543-102.922-171.543z"/></symbol><symbol viewBox="0 0 768 768" id="external"><title>external</title><path d="M555.84 571.755c-1.5.05-3 .082-4.504.082-3.546 0-7.082-.14-10.6-.408-3.454.26-6.922.407-10.402.407-9.748 0-19.417-1.04-28.854-3.032-9.565 24.322-22.845 45.368-39.577 62.643-38.302 39.542-93.78 59.592-164.894 59.592s-126.59-20.05-164.892-59.592c-18.717-19.323-33.13-43.354-42.835-71.426-10.033-29.016-15.12-62.537-15.12-99.634 0-82.018 24.23-179.245 63.236-253.74C162.757 158.213 217.215 76.96 297.01 76.96c44.935 0 81.824 25.772 110.018 56.935 23.144-23.12 53.886-37.435 86.28-40.484C438.3 22.843 370.353-15.2 297.01-15.2c-93.417 0-178.09 61.712-238.42 173.768C11.348 246.312-18 361.964-18 460.388c0 97.577 29.087 179.082 84.116 235.702 55.378 56.988 135.22 87.11 230.893 87.11 95.675 0 175.52-30.12 230.896-87.11 33.635-34.607 57.554-78.53 71.083-129.723-12.49 3.587-25.5 5.47-38.653 5.47-1.502 0-3-.033-4.498-.082z"/><path d="M706.763 164.803H494.458c-27.147 0-49.154 22.008-49.154 49.155 0 27.147 22.007 49.155 49.154 49.155h81.568l-187.8 187.802c-19.197 19.195-19.197 50.32 0 69.515 9.597 9.598 22.177 14.397 34.757 14.397s25.16-4.8 34.757-14.397l199.868-199.868v93.634c0 27.147 22.008 49.154 49.155 49.154s49.155-22.007 49.155-49.154V213.958c0-27.147-22.008-49.155-49.155-49.155z"/></symbol><symbol viewBox="0 0 11 20" id="facebook-icon"><title>facebook-icon</title><path fill="#FFF" d="M6.9 0C4.8 0 3.1 1.7 3.1 3.8v2.3H0v3.1h3.1V20h3.1V9.2h3.5l.8-3.1H6.2V3.8c0-.4.3-.8.8-.8h3.8V0H6.9z"/></symbol><symbol viewBox="-27 35.937 714.902 572.996" id="farm-icon"><title>farm-icon</title><path d="M610.29 608.933c-22.09 0-40-17.908-40-40V399.63c0-15.51 8.828-28.957 21.73-35.594L552.924 258.72l-149.466-64.527-149.482 64.528-39.098 105.316c12.903 6.637 21.73 20.084 21.73 35.593v169.303c0 22.092-17.91 40-40 40s-40-17.908-40-40V439.558c-12.188-.728-23.43-6.995-30.45-17.09-7.478-10.753-9.22-24.483-4.66-36.76l63.43-170.857c3.8-10.236 11.62-18.474 21.645-22.802L387.605 113.9c10.117-4.368 21.59-4.367 31.707 0l181.015 78.148c10.024 4.328 17.845 12.565 21.645 22.802l63.43 170.856c4.558 12.277 2.817 26.008-4.66 36.76-7.02 10.096-18.263 16.363-30.45 17.09v129.376c0 22.093-17.91 40-40 40z"/><path d="M78.282 608.933H13c-22.09 0-40-17.908-40-40V177.94c0-78.3 63.702-142 142-142.003 45.643 0 88.793 22.16 115.427 59.28 12.88 17.95 8.77 42.94-9.18 55.82-17.948 12.878-42.94 8.77-55.82-9.18-11.645-16.23-30.496-25.92-50.425-25.92C80.814 115.937 53 143.75 53 177.94v350.993h25.282c22.09 0 40 17.908 40 40s-17.908 40-40 40z"/></symbol><symbol viewBox="0 90.019 612 611.963" id="icon-close"><title>Slice 1</title><path d="M306 90.02c168.74 0 306 137.258 306 305.98 0 168.723-137.26 305.98-306 305.98C137.27 701.98 0 564.724 0 396 0 227.278 137.27 90.02 306 90.02zm83.85 185.93L306 359.796l-83.847-83.857c-9.994-9.994-26.2-10.003-36.204 0-9.995 9.994-9.995 26.21 0 36.204L269.796 396l-83.857 83.85c-9.994 10.002-9.994 26.21 0 36.203 10.012 10.012 26.21 10.003 36.212.01L306 432.204l83.85 83.85c9.992 9.992 26.208 10.002 36.202.008 10.012-10.012 9.994-26.22 0-36.213l-83.848-83.848 83.848-83.85c9.994-9.984 10.012-26.2 0-36.203-9.993-10.004-26.21-9.995-36.202 0z"/></symbol><symbol viewBox="0 0 22 22" id="instagram-icon"><title>instagram-icon</title><path fill="#FFF" d="M18.3 0H3.7C1.6 0 0 1.6 0 3.7v14.7c0 2 1.6 3.7 3.7 3.7h14.7c2 0 3.7-1.6 3.7-3.7V3.7C22 1.6 20.4 0 18.3 0zM7 9.6h8c.1.4.2.9.2 1.4 0 2.3-1.9 4.2-4.2 4.2S6.8 13.3 6.8 11c0-.5.1-.9.2-1.4zm12.2 0v8.2c0 .8-.6 1.4-1.4 1.4H4.1c-.8 0-1.4-.6-1.4-1.4V9.6h2.2c-.1.4-.2.9-.2 1.4 0 3.4 2.8 6.3 6.3 6.3s6.3-2.8 6.3-6.3c0-.5-.1-.9-.2-1.4h2.1zm0-4.8c0 .4-.3.7-.7.7h-1.4c-.4 0-.7-.3-.7-.7V3.4c0-.4.3-.7.7-.7h1.4c.4 0 .7.3.7.7v1.4z"/></symbol><symbol viewBox="-51.451 37.499 714.9 573" id="location-icon"><title>location-icon</title><path d="M305.996 603.62h-.002c-11.61 0-22.648-5.046-30.246-13.825-27.32-31.574-79.72-94.77-123.704-163.275-44.717-69.648-66.454-122.553-66.454-161.738 0-121.532 98.874-220.406 220.406-220.406 121.536 0 220.413 98.874 220.413 220.406 0 39.187-21.738 92.092-66.453 161.74-44 68.528-96.397 131.712-123.716 163.275-7.596 8.78-18.635 13.824-30.244 13.824zm0-479.244c-77.42 0-140.406 62.986-140.406 140.406 0 8.155 3.878 40.8 53.773 118.515 28.405 44.24 60.764 86.373 86.636 118.117 25.87-31.736 58.226-73.862 86.638-118.115 49.894-77.713 53.77-110.362 53.77-118.518 0-77.42-62.988-140.406-140.412-140.406z"/></symbol><symbol viewBox="37.323 40.102 758.107 256.899" id="logo-full"><title>logo-full</title><path fill="#FFF" d="M337.296 181.17c-20.56 0-38.062-5.48-55.067-17.252-21.47-13.403-30.025-15.938-53.704-15.938-6.125 0-13.277.185-21.315.403-16.92.466-37.982 1.044-58.21 1.044-26.987 0-48.717-.987-68.384-3.108l-.122-.016c-11.872-1.61-20.463-3.31-26.264-5.195-2.957-.963-10.81-3.518-10.51-9.647.238-4.803 3.763-10.468 42.84-16.932 21.863-3.615 46.293-5.978 59.126-6.442 8.55-.492 18.96-.596 31.932-.596 2.77 0 5.598.004 8.47.01 2.96.004 5.966.008 9.005.008 34.326 0 72.006-.692 94.63-8.145-4.916-3.822-5.82-7.9-5.465-11.06.902-8.044 11.324-14.82 25.936-16.865 1.908-.302 4.234-.462 6.836-.462 13.682 0 33 4.33 42.772 7.27 30.414 6.74 60.564 9.88 94.873 9.878 21.488 0 42.448-1.157 64.64-2.384 23.768-1.312 48.344-2.67 75.294-2.67 3.314 0 6.675.02 10.06.062 6.725.17 13.608.172 20.896.174 18.76.008 38.154.016 55.723 2.883 16.548 2.342 22.386 4.23 24.887 8.076 1.94 2.984 1.09 5.977.47 8.157-.736 2.597-1.32 4.648 1.07 8.3 5.165 7.154 24.297 7.867 41.184 8.498 22.344.835 45.444 1.696 45.028 18.352-.34 13.63-22.68 13.684-31.24 13.684h-.103c-13.552 0-29.446-1.648-43.47-3.104-9.05-.938-16.865-1.75-21.935-1.876-.103-.003-.206-.01-.31-.02-1.624-.152-3.31-.317-5.044-.488-8.562-.842-18.264-1.794-26.896-1.794-5.52 0-10.075.4-13.596 1.195.31 2.83.56 7.836-4.23 10.323-.12.062-.245.122-.374.174-19.718 8.04-42.77 11.785-72.545 11.785-17.688 0-36.097-1.296-53.896-2.55-17.715-1.245-36.033-2.534-53.543-2.534-7.795 0-14.866.246-21.618.753-18.772 1.532-36.133 5.563-52.922 9.46-19.026 4.42-36.997 8.59-54.912 8.59z"/><path d="M337.296 182.67c-20.882 0-38.65-5.564-55.92-17.52-21.106-13.175-29.513-15.67-52.85-15.67-6.024 0-12.905.174-21.274.402-16.972.467-38.025 1.044-58.252 1.044-27.04 0-48.82-.99-68.544-3.117l-.18-.023c-11.946-1.62-20.624-3.338-26.51-5.253-3.255-1.06-11.9-3.872-11.542-11.146.278-5.635 3.91-11.69 44.092-18.34 21.933-3.627 46.442-5.995 59.316-6.46 8.574-.496 18.992-.598 31.986-.598 2.77 0 5.6.004 8.472.01 34.608.06 75.688.056 100.652-7.28-3.772-3.85-4.29-7.79-3.975-10.583.98-8.735 11.918-16.044 27.217-18.184 1.99-.314 4.368-.477 7.044-.477 13.797 0 33.34 4.37 43.15 7.318 30.287 6.707 60.316 9.83 94.495 9.83 21.47 0 42.398-1.156 64.557-2.38 26.728-1.478 54.496-3.002 85.46-2.61 6.764.17 13.617.172 20.874.174 18.82.008 38.277.016 55.964 2.9 17.268 2.443 23.085 4.404 25.903 8.74 2.314 3.558 1.316 7.065.655 9.386-.706 2.488-1.133 3.99.883 7.067 4.697 6.505 24.26 7.234 39.98 7.82 23.074.86 46.93 1.752 46.476 19.888-.377 15.146-23.888 15.146-32.738 15.146h-.104c-13.63 0-29.563-1.652-43.623-3.11-9.07-.94-16.825-1.746-21.818-1.87-.143-.004-.277-.012-.414-.025-1.625-.153-3.314-.318-5.05-.49-8.53-.84-18.19-1.787-26.747-1.787-4.74 0-8.764.3-11.98.896.17 2.828-.14 7.852-5.15 10.454-.17.087-.336.165-.505.233-19.9 8.113-43.132 11.895-73.107 11.895-17.736 0-36.167-1.297-53.988-2.552-17.717-1.246-36-2.532-53.45-2.532-7.76 0-14.794.245-21.506.75-18.656 1.52-35.96 5.537-52.694 9.422-19.112 4.44-37.163 8.63-55.254 8.63zm-108.77-36.19c24.06 0 32.72 2.567 54.498 16.166 16.803 11.628 34.03 17.024 54.272 17.024 17.748 0 35.635-4.152 54.573-8.55 16.838-3.91 34.25-7.952 53.137-9.493 6.797-.51 13.905-.758 21.74-.758 17.556 0 35.893 1.29 53.626 2.536 17.806 1.254 36.182 2.547 53.812 2.547 29.574 0 52.446-3.71 71.98-11.674.09-.038.174-.08.257-.12 3.66-1.9 3.784-5.53 3.422-8.826l-.146-1.332 1.307-.295c3.623-.817 8.31-1.232 13.926-1.232 8.702 0 18.44.957 27.034 1.8 1.74.17 3.424.336 5.047.49.072.007.145.01.213.012 5.104.127 12.915.937 21.958 1.875 14.076 1.46 29.93 3.104 43.402 3.104h.104c8.05 0 29.436 0 29.74-12.22.378-15.174-21.973-16.008-43.586-16.814-18.07-.675-36.75-1.37-42.343-9.118-2.806-4.28-2.073-6.857-1.298-9.586.603-2.12 1.285-4.52-.285-6.933-2.188-3.364-7.98-5.165-23.84-7.407-17.48-2.854-36.812-2.86-55.508-2.868-7.28-.002-14.153-.004-20.937-.173-3.363-.042-6.716-.063-10.025-.063-26.903 0-51.454 1.356-75.196 2.667-22.216 1.23-43.187 2.388-64.737 2.388-34.424 0-64.673-3.148-95.198-9.913l-.107-.027c-9.625-2.897-28.843-7.208-42.34-7.208-2.484 0-4.768.152-6.604.442-13.946 1.952-23.853 8.2-24.678 15.552-.405 3.602 1.243 6.867 4.896 9.708l2.223 1.73-2.674.88c-25.092 8.265-68.088 8.27-104.107 8.21-2.872-.004-5.698-.008-8.467-.008-12.942 0-23.31.1-31.846.593-12.812.463-37.16 2.818-58.968 6.427-41.155 6.808-41.446 12.695-41.585 15.524-.246 4.983 6.815 7.28 9.473 8.146 5.715 1.857 14.22 3.538 26.003 5.136 19.696 2.125 41.375 3.11 68.304 3.11 20.186 0 41.216-.578 58.114-1.043 8.452-.232 15.354-.407 21.416-.407z"/><path fill="#FFC60B" d="M342.46 112.31s19.913 51.506 10.41 140.95c-8.104 76.277 60.646 37.172 34.3 0-26.346-37.173-4.433-125.548 77.437-124.745L342.46 112.31zm208.074-28.702c-17.19-25.025-54.33-42.732-97.664-43.48-44.378-.77-82.876 16.465-100.376 41.858-6.27 9.095-9.845 19.235-10.03 29.97-.006.32 0 .635 0 .95 20.388 9.254 60.818 15.636 107.394 15.776 49.234.148 91.652-6.718 110.796-16.716-.576-10.068-4.142-19.655-10.12-28.358z"/><path fill="#FFF" d="M436.095 122.5s-1.463.15-4.02.295c-1.28.07-2.832.174-4.612.23-1.784.047-3.8.102-5.998.105-2.198.013-4.576-.02-7.092-.087-2.514-.09-5.17-.172-7.91-.36-2.733-.223-5.575-.353-8.44-.68-1.436-.154-2.886-.28-4.333-.46-1.45-.19-2.903-.376-4.357-.563-2.904-.407-5.805-.862-8.648-1.38-2.847-.5-5.627-1.108-8.313-1.72-2.694-.563-5.265-1.3-7.7-1.964-1.212-.358-2.39-.71-3.532-1.047-1.137-.35-2.22-.754-3.264-1.105-2.098-.68-3.97-1.48-5.632-2.144-1.66-.68-3.062-1.39-4.23-1.922-1.147-.58-2.022-1.094-2.63-1.416-.6-.336-.918-.517-.918-.517s1.424.396 3.858 1.128c1.23.32 2.726.71 4.44 1.154 1.728.392 3.653.884 5.784 1.322 2.117.478 4.437.895 6.867 1.397 1.216.25 2.483.442 3.767.677 1.286.22 2.593.488 3.935.694 1.338.223 2.697.446 4.075.676 1.383.195 2.778.408 4.186.64 2.818.413 5.68.854 8.55 1.233 2.87.407 5.74.785 8.572 1.145 2.833.36 5.62.716 8.317 1.06 5.41.647 10.462 1.248 14.792 1.766 2.166.23 4.152.485 5.918.715 1.77.194 3.312.4 4.582.562 2.535.34 3.985.564 3.985.564zM360.554 215.918s-9.68 63.5 1.914 74.354c7.102 6.65-1.914-74.354-1.914-74.354zM53.168 215.382l-10.608.356.87-19.59-6.107.27.09-8.226 20.034-.758.87 8.135-6.71.2 1.56 19.612zm7.332.134l-.847-26.608 10.675-1.338-.044 10.63c2.23-1.352 4.19-2.027 5.883-2.027.653 0 1.27.104 1.85.312 1.753.624 3.046 2.155 3.878 4.592.653 1.9.98 4.16.98 6.774v.67c-.044 2.585-.372 4.873-.98 6.862l-9.115-.09c.015-.414.14-1.395.38-2.94.28-1.77.46-3.103.534-4.012.06-.624.09-1.188.09-1.693 0-2.24-.543-3.363-1.628-3.363-.698 0-1.292.274-1.783.823-.49.55-.735 1.21-.735 1.982l.223 9.158-9.36.268zm32.938-6.998c.252.372.646.69 1.18.96.773.398 1.724.602 2.854.602.03 0 .052-.007.067-.02 1.158 0 2.8-.433 4.924-1.294l2.92 4.68c-2.69 1.473-5.47 2.207-8.336 2.207-.98 0-1.977-.09-2.986-.27-3.12-.533-5.557-1.9-7.31-4.1-1.442-1.783-2.162-3.788-2.162-6.018 0-.608.052-1.232.156-1.872.52-3.017 2.042-5.355 4.568-7.02 1.872-1.278 3.915-1.918 6.13-1.918.712 0 1.44.066 2.183.2 2.496.433 4.554 1.465 6.173 3.1 1.723 1.753 2.667 4.545 2.83 8.38l-13.192 2.383zm5.015-6.53c-.178-.683-.557-1.194-1.136-1.537-.372-.206-.795-.31-1.27-.31-.313 0-.647.043-1.004.133-.476.147-.91.465-1.304.947-.395.48-.614 1.044-.658 1.683l5.37-.914zm582.83-4.63l.914 29.93-11.396.456 1.25-30.12 9.233-.266zm4.664 29.903l-.625-22.546 10.24-.72v2.906c2.24-1.49 4.365-2.234 6.368-2.234.417 0 .825.032 1.228.098 2.18.354 3.958 1.554 5.336 3.604 1.362 2.18 2.105 4.84 2.234 7.98.017.32.023.642.023.96 0 3.623-.576 6.894-1.73 9.81l-9.83-.098c.017-.446.15-1.515.408-3.195.306-2.71.497-4.553.577-5.528.063-.656.098-1.26.098-1.804 0-2.42-.586-3.63-1.757-3.63-.753 0-1.394.298-1.923.89-.526.595-.793 1.307-.793 2.14l.24 11.082-10.093.286zm39.422-22.906c3.395 0 6.288 1.122 8.676 3.364l-6.61 5.77c-.704-.64-1.368-.962-1.994-.962-.528.02-1.01.146-1.442.386-.946.577-1.437 1.5-1.466 2.765.016.77.318 1.53.914 2.284.398.498.904.857 1.514 1.08.434.13.85.193 1.25.193 1.137 0 2.218-.593 3.245-1.778l5.938 5.312c-2.34 2.996-5.68 4.494-10.02 4.494-3.447 0-6.323-1.01-8.63-3.027-2.39-2.082-3.582-4.783-3.582-8.102 0-3.348 1.19-6.152 3.58-8.413 2.35-2.24 5.228-3.363 8.626-3.363zM131.142 257.175l47.507-1.292-1.294-21.646H153.35l-.28-6.296h18.664l-.394-15.518-18.384.45-.168-6.58 22.826-.448-.843-20.238-43.626 2.138v69.432h-.002zm101.232-49.7c-3.786-1.724-7.87-2.585-12.256-2.585-7.947 0-14.693 2.644-20.24 7.927-5.585 4.573-8.377 10.4-8.377 17.484 0 5.437 1.856 10.046 5.567 13.83 3.56 2.813 8.3 5.024 14.224 6.636-3.56 1.573-7.177 3.69-10.85 6.354l10.738 6.187c1.874-1.312 3.56-1.97 5.06-1.97.637 0 1.217.112 1.743.338 1.5.562 2.25 1.593 2.25 3.093 0 .148-.02.316-.056.506-.188 1.836-1.35 3.072-3.486 3.71-.825.264-1.725.396-2.7.396-2.135 0-4.647-.582-7.533-1.743l-12.03 8.716c11.056 4.085 20.67 6.128 28.84 6.128 1.424 0 2.792-.056 4.104-.168 7.645-.75 13.042-3.374 16.19-7.87 1.724-2.44 2.586-5.042 2.586-7.814 0-1.875-.413-3.843-1.237-5.902-2.025-5.098-5.942-8.9-11.75-11.413 4.76-1.312 8.507-3.6 11.243-6.857 2.924-3.448 4.385-7.496 4.385-12.145 0-7.384-2.96-13.36-8.883-17.936l5.172-7.478-11.244-4.667-1.46 7.246zm-17.428 14.73c1.423-1.61 3.148-2.418 5.172-2.418 2.024 0 3.767.808 5.23 2.418 1.422 1.61 2.135 3.562 2.135 5.848 0 2.25-.713 4.18-2.136 5.79-1.462 1.612-3.205 2.418-5.23 2.418-2.023 0-3.748-.805-5.17-2.416-1.463-1.61-2.194-3.542-2.194-5.79 0-2.286.73-4.237 2.193-5.85zm89.403-14.73c-3.787-1.724-7.872-2.585-12.257-2.585-7.947 0-14.693 2.644-20.24 7.927-5.585 4.573-8.377 10.4-8.377 17.484 0 5.437 1.855 10.046 5.566 13.83 3.56 2.813 8.3 5.024 14.224 6.636-3.562 1.573-7.178 3.69-10.85 6.354l10.737 6.187c1.874-1.312 3.56-1.97 5.06-1.97.637 0 1.218.112 1.743.338 1.5.562 2.25 1.593 2.25 3.093 0 .148-.02.316-.057.506-.19 1.836-1.35 3.072-3.487 3.71-.825.264-1.725.396-2.7.396-2.135 0-4.647-.582-7.533-1.743l-12.03 8.716c11.056 4.085 20.67 6.128 28.84 6.128 1.424 0 2.792-.056 4.104-.168 7.646-.75 13.043-3.374 16.19-7.87 1.725-2.44 2.587-5.042 2.587-7.814 0-1.875-.412-3.843-1.236-5.902-2.022-5.098-5.94-8.9-11.75-11.413 4.76-1.312 8.508-3.6 11.244-6.857 2.924-3.448 4.385-7.496 4.385-12.145 0-7.384-2.96-13.36-8.883-17.936l5.172-7.478-11.244-4.667-1.46 7.246zm-17.43 14.73c1.425-1.61 3.15-2.418 5.173-2.418 2.024 0 3.767.808 5.23 2.418 1.423 1.61 2.135 3.562 2.135 5.848 0 2.25-.712 4.18-2.136 5.79-1.462 1.612-3.205 2.418-5.23 2.418-2.023 0-3.748-.805-5.17-2.416-1.463-1.61-2.194-3.542-2.194-5.79 0-2.286.73-4.237 2.193-5.85zm149.132-35.32L411.25 263.17l21.83 6.245 7.58-29.65 14.735 23.77 13.768-23.77 10.43 27.408 21.71-2.548-27.713-77.74-18.617 31.896-18.92-31.895zM546.89 211.99c-2.95-.93-6.022-1.397-9.217-1.397-7.883 0-14.554 2.588-20.012 7.764-5.538 4.853-8.31 11.765-8.31 20.738 0 9.258 2.772 16.11 8.31 20.56 5.338 4.687 12.008 7.033 20.013 7.033 4.446-.082 7.862-1.232 10.25-3.457l.484 3.76 25.41-1.395-6.978-57.67-19.77 1.397-.183 2.365.003.302zm-6.852 16.858c2.223 0 4.124.89 5.7 2.668 1.577 1.738 2.366 4.268 2.366 7.58 0 3.273-.79 5.802-2.366 7.58-1.576 1.737-3.48 2.606-5.7 2.606-2.224 0-4.124-.87-5.7-2.607-1.577-1.777-2.365-4.306-2.365-7.58 0-3.31.788-5.84 2.365-7.58 1.576-1.778 3.474-2.667 5.7-2.667zm76.906 36.808l-.606-27.957c0-2.102.667-3.9 2-5.397 1.335-1.493 2.952-2.24 4.852-2.24 2.95 0 4.43 3.053 4.43 9.153 0 1.375-.083 2.893-.244 4.55-.203 2.467-.688 7.114-1.456 13.947-.646 4.244-.99 6.935-1.03 8.063l24.803.242c2.91-7.356 4.365-15.604 4.365-24.74 0-.81-.02-1.616-.06-2.426-.324-7.925-2.204-14.637-5.642-20.136-3.477-5.173-7.964-8.206-13.462-9.095-1.01-.16-2.042-.24-3.092-.24-5.054 0-10.41 1.878-16.068 5.64v-7.338L589.9 209.5l1.576 56.88 25.468-.724z"/></symbol><symbol viewBox="0 0 248 41" id="logo-main"><title>Logo</title><g fill="#FFF" fill-rule="evenodd"><path d="M6.607 12.4l-4.335.146.355-7.995-2.495.11.036-3.357 8.187-.31.355 3.32-2.74.083.637 8.005zM9.603 12.456l-.346-10.86 4.362-.547-.02 4.338c.91-.552 1.712-.828 2.405-.828.266 0 .52.043.756.128.717.254 1.245.88 1.585 1.874.267.776.4 1.698.4 2.765V9.6c-.017 1.055-.15 1.99-.4 2.8l-3.724-.035c.007-.17.058-.57.155-1.2.116-.723.188-1.268.22-1.638.023-.255.035-.485.035-.69 0-.917-.22-1.375-.664-1.375-.286 0-.528.113-.73.337-.2.223-.3.493-.3.808l.092 3.74-3.825.108zM23.062 9.6c.103.15.264.28.482.39.316.164.705.246 1.166.246.012 0 .022-.003.028-.01.473 0 1.144-.175 2.012-.526l1.193 1.91c-1.1.6-2.234.9-3.406.9-.4 0-.808-.036-1.22-.11-1.275-.217-2.27-.775-2.987-1.673-.59-.727-.884-1.546-.884-2.456 0-.247.022-.502.064-.763.213-1.23.835-2.186 1.867-2.865.765-.522 1.6-.783 2.504-.783.293 0 .59.027.894.08 1.02.178 1.86.6 2.522 1.266.704.716 1.09 1.855 1.157 3.42l-5.39.973zm2.05-2.666c-.074-.28-.228-.488-.465-.628-.152-.084-.325-.127-.52-.127-.127 0-.263.017-.41.053-.194.06-.37.19-.532.387-.16.197-.25.426-.27.687l2.196-.373zM224.45 5.044l.373 12.216-4.656.186.51-12.294 3.773-.108zM226.356 17.25l-.256-9.203 4.185-.294V8.94c.916-.61 1.784-.913 2.603-.913.17 0 .337.013.5.04.89.144 1.618.634 2.18 1.47.557.89.862 1.976.914 3.258.007.13.01.262.01.393 0 1.478-.236 2.813-.707 4.003l-4.018-.04c.007-.18.063-.617.168-1.303.124-1.106.203-1.858.235-2.256.026-.268.04-.513.04-.736 0-.987-.24-1.48-.718-1.48-.307 0-.57.12-.785.362-.216.242-.324.533-.324.873l.098 4.522-4.124.118zM242.464 7.9c1.388 0 2.57.458 3.546 1.373l-2.7 2.355c-.29-.26-.56-.392-.817-.392-.215.007-.412.06-.59.157-.385.235-.585.61-.598 1.128.007.316.13.626.374.933.162.203.37.35.617.44.178.054.347.08.51.08.466 0 .907-.242 1.327-.726l2.426 2.17c-.955 1.22-2.32 1.833-4.095 1.833-1.408 0-2.583-.412-3.527-1.236-.975-.85-1.463-1.953-1.463-3.307 0-1.367.488-2.51 1.463-3.434.962-.915 2.138-1.373 3.526-1.373zM103.933 9.174c-1.547-.704-3.216-1.056-5.008-1.056-3.247 0-6.004 1.08-8.27 3.236C88.37 13.22 87.23 15.6 87.23 18.49c0 2.22.76 4.1 2.276 5.646 1.454 1.147 3.392 2.05 5.812 2.707-1.456.643-2.933 1.507-4.434 2.593l4.388 2.525c.766-.535 1.454-.802 2.067-.802.26 0 .497.045.712.138.612.23.92.65.92 1.262 0 .06-.01.13-.024.206-.077.75-.552 1.254-1.425 1.515-.337.106-.705.16-1.103.16-.872 0-1.9-.238-3.078-.712l-4.916 3.557c4.518 1.668 8.446 2.502 11.785 2.502.583 0 1.142-.023 1.678-.07 3.124-.306 5.33-1.377 6.616-3.212.704-.995 1.057-2.058 1.057-3.19 0-.765-.168-1.568-.505-2.41-.827-2.08-2.428-3.632-4.8-4.657 1.944-.536 3.475-1.47 4.593-2.8 1.195-1.407 1.792-3.06 1.792-4.956 0-3.014-1.21-5.454-3.63-7.32l2.114-3.053-4.595-1.906-.597 2.96zm-7.122 6.012c.583-.657 1.288-.987 2.115-.987.827 0 1.54.33 2.137.986.58.658.872 1.454.872 2.387 0 .918-.29 1.706-.872 2.363-.598.658-1.31.987-2.137.987s-1.532-.33-2.114-.987c-.596-.657-.895-1.445-.895-2.363 0-.933.3-1.73.896-2.387zM76.555 9.174c-1.547-.704-3.216-1.056-5.008-1.056-3.247 0-6.004 1.08-8.27 3.236-2.283 1.866-3.423 4.245-3.423 7.137 0 2.22.758 4.1 2.274 5.646 1.455 1.147 3.392 2.05 5.812 2.707-1.455.643-2.933 1.507-4.434 2.593l4.388 2.525c.766-.535 1.455-.802 2.068-.802.26 0 .497.045.712.138.612.23.92.65.92 1.262 0 .06-.01.13-.024.206-.077.75-.552 1.254-1.424 1.515-.338.106-.705.16-1.103.16-.873 0-1.9-.238-3.08-.712l-4.915 3.557c4.518 1.668 8.446 2.502 11.785 2.502.582 0 1.14-.023 1.677-.07 3.124-.306 5.33-1.377 6.616-3.212.705-.995 1.057-2.058 1.057-3.19 0-.765-.17-1.568-.506-2.41-.827-2.08-2.427-3.632-4.8-4.657 1.944-.536 3.476-1.47 4.594-2.8 1.195-1.407 1.792-3.06 1.792-4.956 0-3.014-1.21-5.454-3.63-7.32l2.114-3.053-4.595-1.906-.595 2.96zm-7.12 6.012c.58-.657 1.285-.987 2.112-.987.827 0 1.54.33 2.137.986.582.658.873 1.454.873 2.387 0 .918-.29 1.706-.873 2.363-.598.658-1.31.987-2.137.987s-1.532-.33-2.113-.987c-.598-.657-.896-1.445-.896-2.363 0-.933.298-1.73.896-2.387zM127.512.77l-10.135 31.136 8.92 2.55 3.098-12.103 6.022 9.702 5.625-9.702 4.262 11.187 8.87-1.04L142.85.77l-7.607 13.018-7.73-13.02zM171.577 11.016c-1.206-.38-2.462-.57-3.766-.57-3.22 0-5.947 1.056-8.177 3.17-2.263 1.98-3.395 4.8-3.395 8.464 0 3.778 1.132 6.575 3.395 8.39 2.18 1.914 4.907 2.872 8.178 2.872 1.817-.034 3.213-.504 4.19-1.41l.197 1.533 10.382-.57-2.85-23.538-8.078.57-.075.965v.124zm-2.8 6.88c.908 0 1.685.364 2.33 1.09.644.71.966 1.742.966 3.094 0 1.336-.322 2.368-.967 3.094-.644.71-1.42 1.064-2.33 1.064-.908 0-1.684-.355-2.328-1.064-.645-.726-.967-1.758-.967-3.094 0-1.352.323-2.384.968-3.094.644-.726 1.42-1.09 2.33-1.09zM199.385 32.92l-.247-11.41c0-.857.272-1.592.817-2.203.545-.61 1.206-.915 1.983-.915 1.205 0 1.81 1.246 1.81 3.737 0 .56-.035 1.18-.1 1.855-.084 1.008-.282 2.905-.596 5.694-.264 1.73-.405 2.83-.42 3.29l10.134.1c1.19-3.004 1.784-6.37 1.784-10.1 0-.33-.008-.66-.024-.99-.133-3.233-.9-5.973-2.305-8.218-1.42-2.11-3.253-3.35-5.5-3.712-.413-.066-.834-.1-1.263-.1-2.066 0-4.255.768-6.567 2.303V9.258L188.334 10l.644 23.218 10.407-.297zM36.426 29.46l19.412-.528-.528-8.835H45.5l-.115-2.57h7.627l-.16-6.334-7.513.184-.07-2.686L54.6 8.51l-.345-8.26-17.827.872v28.34z"/></g></symbol><symbol viewBox="0 0 185 30" id="logo-type"><title>Logo</title><g fill="#FFF" fill-rule="evenodd"><path d="M4.955 9.3l-3.25.11.265-5.997-1.87.082L.125.977l6.14-.232.267 2.49-2.056.062.478 6.004zM7.202 9.342l-.26-8.146 3.272-.41-.014 3.255c.684-.413 1.284-.62 1.803-.62.2 0 .39.032.567.096.538.19.934.66 1.19 1.405.2.583.3 1.275.3 2.075V7.2c-.014.79-.115 1.492-.3 2.1l-2.795-.026c.005-.127.044-.428.117-.9.086-.542.14-.95.164-1.23.018-.19.027-.362.027-.517 0-.687-.166-1.03-.5-1.03-.213 0-.395.084-.545.252-.15.167-.226.37-.226.606l.07 2.804-2.87.082zM17.296 7.2c.078.113.198.21.362.293.237.122.528.184.875.184.01 0 .016-.002.02-.006.355 0 .858-.13 1.51-.395l.894 1.433c-.824.45-1.676.675-2.554.675-.3 0-.606-.027-.915-.082-.957-.163-1.703-.58-2.24-1.254-.443-.546-.663-1.16-.663-1.842 0-.187.016-.378.048-.573.16-.923.625-1.64 1.4-2.15.573-.39 1.2-.586 1.878-.586.22 0 .443.02.67.062.765.132 1.396.448 1.892.948.528.537.817 1.392.868 2.566l-4.044.73zm1.537-2c-.054-.21-.17-.365-.348-.47-.114-.064-.243-.096-.39-.096-.095 0-.197.014-.307.04-.146.046-.28.143-.4.29-.12.15-.187.32-.2.516l1.645-.28zM168.337 3.783l.28 9.162-3.492.14.383-9.22 2.83-.082zM169.767 12.937l-.192-6.902 3.138-.22v.89c.688-.456 1.34-.684 1.953-.684.127 0 .252.01.375.03.67.108 1.214.476 1.637 1.104.417.667.645 1.48.685 2.442.005.1.007.197.007.295 0 1.11-.178 2.11-.53 3.003l-3.014-.03c.005-.136.046-.463.125-.978.094-.83.153-1.393.178-1.692.02-.2.03-.385.03-.552 0-.74-.18-1.11-.54-1.11-.23 0-.426.09-.588.272-.162.182-.243.4-.243.655l.074 3.392-3.093.087zM181.848 5.925c1.04 0 1.928.343 2.66 1.03L182.48 8.72c-.215-.195-.418-.293-.61-.293-.162.005-.31.044-.442.117-.29.177-.44.46-.45.847.006.237.1.47.28.7.124.152.28.262.465.33.133.04.26.06.383.06.35 0 .68-.182.995-.545l1.82 1.627c-.716.917-1.74 1.375-3.07 1.375-1.057 0-1.94-.31-2.646-.927-.732-.637-1.098-1.464-1.098-2.48 0-1.025.366-1.883 1.098-2.575.72-.687 1.603-1.03 2.644-1.03zM77.95 6.88c-1.16-.527-2.412-.79-3.756-.79-2.436 0-4.503.808-6.203 2.425-1.71 1.4-2.567 3.184-2.567 5.353 0 1.664.57 3.075 1.706 4.234 1.09.86 2.543 1.537 4.358 2.03-1.09.482-2.2 1.13-3.325 1.945l3.29 1.894c.575-.4 1.092-.602 1.552-.602.195 0 .373.034.534.104.458.172.688.487.688.946 0 .046-.006.097-.017.155-.057.562-.413.94-1.068 1.136-.252.08-.528.12-.827.12-.654 0-1.424-.178-2.31-.534l-3.686 2.668c3.388 1.25 6.334 1.876 8.838 1.876.437 0 .856-.017 1.258-.052 2.343-.23 3.997-1.033 4.962-2.41.528-.745.792-1.542.792-2.39 0-.575-.126-1.178-.38-1.808-.62-1.56-1.82-2.725-3.6-3.494 1.46-.402 2.608-1.102 3.446-2.1.896-1.055 1.344-2.294 1.344-3.717 0-2.262-.907-4.092-2.722-5.492l1.585-2.29-3.446-1.427-.447 2.22zm-5.34 4.51c.435-.494.963-.74 1.584-.74.62 0 1.154.246 1.602.74.437.493.655 1.09.655 1.79 0 .688-.217 1.28-.654 1.772-.448.493-.982.74-1.602.74-.62 0-1.15-.247-1.585-.74-.45-.493-.673-1.084-.673-1.773 0-.7.224-1.297.672-1.79zM57.416 6.88c-1.16-.527-2.412-.79-3.756-.79-2.435 0-4.503.808-6.203 2.425-1.71 1.4-2.567 3.184-2.567 5.353 0 1.664.57 3.075 1.706 4.234 1.09.86 2.544 1.537 4.36 2.03-1.093.482-2.2 1.13-3.326 1.945l3.29 1.894c.575-.4 1.092-.602 1.55-.602.196 0 .375.034.535.104.46.172.69.487.69.946 0 .046-.006.097-.018.155-.057.562-.413.94-1.068 1.136-.254.08-.53.12-.828.12-.655 0-1.424-.178-2.31-.534l-3.686 2.668c3.39 1.25 6.335 1.876 8.84 1.876.435 0 .854-.017 1.257-.052 2.343-.23 3.997-1.033 4.962-2.41.528-.745.792-1.542.792-2.39 0-.575-.127-1.178-.38-1.808-.62-1.56-1.82-2.725-3.6-3.494 1.46-.402 2.607-1.102 3.446-2.1.896-1.055 1.344-2.294 1.344-3.717 0-2.262-.908-4.092-2.723-5.492l1.585-2.29-3.446-1.427-.448 2.22zm-5.34 4.51c.436-.494.964-.74 1.584-.74.62 0 1.155.246 1.603.74.436.493.654 1.09.654 1.79 0 .688-.218 1.28-.654 1.772-.448.493-.982.74-1.603.74-.62 0-1.15-.247-1.585-.74-.448-.493-.672-1.084-.672-1.773 0-.7.224-1.297.672-1.79zM95.634.577l-7.6 23.352 6.69 1.91 2.322-9.076 4.516 7.277 4.22-7.276 3.196 8.39 6.653-.78L107.14.578l-5.706 9.764L95.634.578zM128.683 8.262c-.905-.285-1.847-.427-2.825-.427-2.416 0-4.46.792-6.133 2.376-1.698 1.486-2.546 3.602-2.546 6.35 0 2.833.847 4.93 2.545 6.293 1.636 1.435 3.68 2.153 6.133 2.153 1.362-.025 2.41-.377 3.14-1.058l.15 1.15 7.787-.426-2.138-17.654-6.058.427-.057.724v.092zm-2.1 5.16c.68 0 1.264.273 1.747.818.483.532.725 1.306.725 2.32 0 1.002-.242 1.776-.725 2.32-.483.532-1.066.798-1.747.798-.682 0-1.264-.266-1.747-.798-.483-.544-.725-1.318-.725-2.32 0-1.014.243-1.788.726-2.32.483-.545 1.065-.817 1.747-.817zM149.54 24.69l-.187-8.558c0-.643.205-1.194.614-1.65.408-.46.904-.688 1.486-.688.905 0 1.357.935 1.357 2.803 0 .42-.025.885-.075 1.392-.062.754-.21 2.177-.446 4.27-.2 1.298-.304 2.122-.316 2.468l7.6.074c.892-2.252 1.34-4.777 1.34-7.574 0-.248-.008-.495-.02-.742-.1-2.426-.675-4.48-1.728-6.164-1.066-1.584-2.44-2.512-4.126-2.784-.31-.05-.626-.074-.948-.074-1.548 0-3.19.575-4.924 1.726V6.944l-7.917.557.484 17.413 7.805-.222zM27.32 22.094l14.558-.395-.396-6.627h-7.357l-.086-1.928h5.72l-.12-4.75-5.636.138-.05-2.014 6.994-.14L40.69.187 27.32.84v21.254z"/></g></symbol><symbol viewBox="0 0 225.766 69.666" id="logo_exsite"><title>logo_exsite</title><path d="M101.17 19.59H90.14l-8.02 12.377-7.95-12.378H62.685L76.32 39.23 61.44 60.833h11.24l9.282-14.192L91.1 60.834h11.55L87.7 39.14zM225.77 40.54c0-5.856-1.697-11.1-5.787-15.42-4.01-4.09-9.717-6.636-15.426-6.636-12.266 0-21.443 9.796-21.443 21.986 0 12.11 9.64 21.52 21.674 21.52 8.56 0 16.197-5.325 19.44-13.19h-9.798c-2.314 3.394-5.86 4.935-9.95 4.935-5.862 0-11.1-4.163-12.34-9.873h33.32l.308-3.32m-33.71-3.932c1.16-5.398 6.476-9.717 12.04-9.717 6.09 0 11.337 3.78 12.956 9.717h-24.992"/><path d="M140.25 19.45v41.525h10.38l-.01-41.517zM174.44 7.116h-10.33v12.16h-7.35v8.397h1.98v.01h.49l.31.014h4.52V45.37h.01v15.463h10.39l-.01-33.14 7.56-.007V19.27h-7.57zM130.13 39.515c-1.266-.93-2.672-1.674-4.22-2.236-1.547-.563-3.08-1.014-4.598-1.352-2.87-.675-5.05-1.335-6.54-1.982-1.49-.646-2.236-1.758-2.236-3.333 0-1.575.675-2.7 2.025-3.375s2.84-1.012 4.474-1.012c1.856 0 3.57.436 5.147 1.308 1.575.873 2.813 1.898 3.713 3.08l5.55-4.913c-1.633-2.08-2.83-3.513-5.592-5.102-2.566-1.478-5.64-1.966-8.563-1.966-2.025 0-3.995.253-5.907.76-1.913.505-3.628 1.28-5.147 2.32-1.52 1.042-2.743 2.377-3.67 4.01-.93 1.632-1.393 3.573-1.393 5.823 0 1.913.337 3.516 1.013 4.81.675 1.294 1.574 2.377 2.7 3.248 1.125.873 2.405 1.575 3.84 2.11 1.434.534 2.91.97 4.43 1.307 3.092.732 5.412 1.464 6.96 2.194 1.547.73 2.32 1.94 2.32 3.628 0 .9-.197 1.66-.59 2.28-.395.618-.915 1.11-1.562 1.476-.645.366-1.35.633-2.108.802-.76.168-1.505.253-2.236.253-2.193 0-4.19-.478-5.99-1.435-1.802-.956-3.264-2.165-4.39-3.628l-5.87 5.252c1.763 2.58 4.528 5.1 7.51 6.25 2.982 1.153 5.166 1.408 8.317 1.408 2.194 0 4.317-.24 6.37-.717 2.055-.478 3.854-1.252 5.4-2.32 1.548-1.068 2.786-2.46 3.714-4.178.93-1.715 1.393-3.81 1.393-6.286 0-1.97-.395-3.643-1.18-5.02-.788-1.38-1.815-2.535-3.08-3.462"/><circle cx="145.44" cy="6.236" r="6.236"/><path d="M32.936 26.15c-5.56 0-10.885 4.32-12.04 9.723l25 .007c-1.622-5.94-6.87-9.728-12.96-9.73M33.3 9.204C16.604 9.2 3.06 22.73 3.06 39.424c0 5.04 1.25 9.79 3.43 13.97L.55 63.836s-1.14 1.954-.144 3.15c1.01 1.214 3.01.45 3.01.45L15.183 63.6c5.05 3.787 11.3 6.06 18.1 6.06 16.696.003 30.23-13.526 30.24-30.22.006-16.7-13.526-30.23-30.22-30.24m21 33.926l-33.34-.01C22.196 48.83 27.44 53 33.31 53.002c4.088 0 7.64-1.545 9.956-4.938l9.8.002C49.82 55.94 42.18 61.26 33.615 61.258c-12.04-.003-21.684-9.422-21.68-21.538.002-12.19 9.188-21.99 21.46-21.987 5.71 0 11.42 2.548 15.43 6.636 4.09 4.326 5.788 9.577 5.786 15.44l-.312 3.316"/></symbol><symbol viewBox="28.8 0 546.48 792" id="maps-icon"><title>maps-icon</title><path d="M563.4 198c-3.96-11.88-7.92-23.76-11.88-31.68C496.08 43.56 389.16 0 298.08 0 179.28 0 44.64 79.2 28.8 245.52v55.44c7.92 79.2 71.28 162.36 118.8 241.56L302.04 792c31.68-55.44 63.36-110.88 95.04-162.36 7.92-15.84 19.8-31.68 27.72-47.52 3.96-7.92 15.84-19.8 19.8-27.72 51.48-91.08 130.68-182.16 130.68-273.24v-35.64c0-11.88-11.88-47.52-11.88-47.52zM302.04 368.28c-35.64 0-75.24-19.8-95.04-67.32-3.96-7.92-3.96-23.76-3.96-23.76v-23.76c0-63.36 51.48-91.08 99-91.08 55.44 0 99 43.56 99 102.96 3.96 55.44-43.56 102.96-99 102.96z"/></symbol><symbol viewBox="-1.863 0.344 110.724 110.14" id="sun-icon"><title>sun-icon</title><path d="M53.5 13.028c-1.104 0-2-.896-2-2V2.344c0-1.104.896-2 2-2s2 .896 2 2v8.684c0 1.104-.896 2-2 2zm-17.48 3.715c1.01-.45 1.464-1.63 1.015-2.64l-3.53-7.934c-.45-1.01-1.632-1.465-2.642-1.015-1.01.45-1.463 1.632-1.013 2.64l3.53 7.934c.333.744 1.063 1.186 1.83 1.186.27 0 .547-.055.81-.173zM21.566 27.246c.74-.82.673-2.085-.148-2.825l-6.453-5.81c-.82-.738-2.085-.672-2.825.148-.74.82-.674 2.085.147 2.825l6.453 5.81c.382.345.86.515 1.338.515.547 0 1.092-.223 1.487-.662zM12.63 42.72c.342-1.05-.233-2.178-1.283-2.52l-8.26-2.684C2.038 37.178.91 37.75.568 38.8c-.34 1.05.234 2.18 1.284 2.52l8.26 2.685c.206.066.414.1.62.1.842 0 1.626-.54 1.9-1.384zM.348 63.6l8.636-.907c1.1-.114 1.896-1.1 1.78-2.197s-1.104-1.888-2.198-1.78l-8.636.907c-1.1.115-1.897 1.1-1.78 2.198.107 1.027.975 1.79 1.986 1.79.07 0 .14-.004.21-.01zM8.032 84.56l7.52-4.34c.957-.554 1.284-1.777.732-2.733s-1.776-1.283-2.732-.732l-7.52 4.342c-.957.553-1.284 1.776-.732 2.732.37.64 1.042 1 1.734 1 .34-.002.683-.088.998-.27zm15.547 16.025l5.103-7.025c.65-.894.45-2.145-.442-2.794-.892-.648-2.143-.45-2.793.442l-5.104 7.025c-.65.894-.45 2.145.442 2.794.355.258.767.382 1.174.382.618 0 1.228-.287 1.62-.825zM44.3 108.9l1.806-8.494c.23-1.08-.46-2.143-1.54-2.372-1.08-.232-2.143.46-2.372 1.54l-1.806 8.494c-.23 1.08.46 2.143 1.54 2.372.14.03.28.044.418.044.924 0 1.754-.643 1.954-1.584zm20.77 1.54c1.08-.23 1.77-1.29 1.54-2.372l-1.805-8.494c-.23-1.08-1.29-1.776-2.372-1.54-1.08.23-1.77 1.29-1.54 2.372L62.7 108.9c.198.94 1.03 1.584 1.953 1.584.138 0 .278-.013.418-.044zm21.144-9.413c.894-.65 1.092-1.9.442-2.794l-5.104-7.024c-.65-.894-1.897-1.094-2.794-.443-.894.65-1.092 1.9-.442 2.794l5.104 7.025c.392.538 1 .824 1.62.824.407 0 .818-.125 1.174-.383zm15.485-17.2c.55-.956.223-2.18-.733-2.73l-7.52-4.34c-.96-.554-2.18-.225-2.732.73-.552.958-.224 2.18.732 2.733l7.52 4.34c.315.182.66.268.998.268.69 0 1.363-.358 1.734-1zm7.15-22.01c.116-1.098-.68-2.082-1.78-2.197l-8.634-.906c-1.112-.11-2.082.682-2.198 1.78-.115 1.1.682 2.083 1.78 2.198l8.635.906c.07.007.142.01.21.01 1.01 0 1.88-.762 1.988-1.79zm-11.96-17.81l8.258-2.685c1.05-.342 1.625-1.47 1.284-2.52-.342-1.05-1.468-1.626-2.52-1.285l-8.258 2.685c-1.05.342-1.625 1.47-1.284 2.52.275.847 1.06 1.384 1.902 1.384.205 0 .414-.033.62-.1zm-8.628-16.612l6.45-5.81c.82-.74.888-2.004.148-2.825-.74-.82-2.002-.888-2.825-.148l-6.45 5.81c-.82.74-.888 2.004-.148 2.825.396.438.94.662 1.487.662.476-.002.955-.17 1.338-.515zM73.622 15.73l3.528-7.933c.45-1.01-.005-2.19-1.014-2.64-1.01-.45-2.192.005-2.64 1.014l-3.53 7.933c-.45 1.01.005 2.19 1.014 2.64.265.118.54.173.812.173.767 0 1.498-.442 1.83-1.187zM53.5 22.06c18.715 0 33.942 15.225 33.942 33.94 0 18.716-15.227 33.94-33.942 33.94S19.56 74.716 19.56 56c0-18.715 15.225-33.94 33.94-33.94m0-4c-20.954 0-37.94 16.985-37.94 37.94S32.546 93.94 53.5 93.94c20.956 0 37.942-16.985 37.942-37.94S74.455 18.06 53.5 18.06z"/><path d="M34.542 38.477c1.61 0 2.917 1.69 2.917 3.78s-1.31 3.78-2.92 3.78-2.916-1.693-2.916-3.78 1.307-3.78 2.917-3.78zm14.583 0c1.61 0 2.917 1.69 2.917 3.78s-1.306 3.78-2.917 3.78-2.917-1.693-2.917-3.78 1.306-3.78 2.917-3.78z"/></symbol><symbol viewBox="0 0 14 12" id="twitter-icon"><title>Shape</title><path d="M13.97 1.707c-.51.225-1.058.378-1.632.447.586-.352 1.036-.908 1.248-1.57-.548.324-1.156.56-1.803.688C11.265.72 10.527.375 9.71.375c-1.57 0-2.84 1.27-2.84 2.84 0 .223.025.44.073.647C4.583 3.744 2.49 2.612 1.09.895c-.245.42-.385.907-.385 1.428 0 .985.5 1.854 1.263 2.364-.465-.015-.903-.143-1.286-.355v.036c0 1.376.978 2.523 2.277 2.784-.24.065-.49.1-.75.1-.182 0-.36-.018-.533-.05.36 1.127 1.41 1.948 2.653 1.97-.972.763-2.197 1.217-3.528 1.217-.23 0-.455-.015-.677-.04 1.257.805 2.75 1.275 4.354 1.275 5.223 0 8.08-4.328 8.08-8.08 0-.124-.003-.247-.01-.368.556-.4 1.038-.9 1.418-1.47z" fill="#FFF" fill-rule="evenodd"/></symbol></svg>